<svg id="圖層_1" xmlns="http://www.w3.org/2000/svg" viewBox="0 0 115.4 114.6"><style>.st0{fill:#f3584a}.st1{opacity:.75}.st2{fill:#fff}.st3{fill:#4e005e}.st4{fill:#e08fbd}.st5{fill:#c2db44}.st6{fill:#f57634}.st7{fill:#1c0635}.st8{fill:#fff;stroke:#231815;stroke-width:.3298;stroke-miterlimit:10}.st9{fill:#055a1a}.st10{fill:#fff;stroke:#05681a;stroke-width:.3298;stroke-miterlimit:10}.st11{fill:#420b02}.st12{fill:#fff;stroke:#bc2300;stroke-width:.3298;stroke-miterlimit:10}</style><path class="st0" d="M989.2 797.2h-65.6l-46.4 46.4v65.6l46.4 46.4h65.6l46.4-46.3v-65.7z"/><g class="st1"><path d="M927 874.8c-.6 0-1.2-.1-1.7-.2-.6-.1-1.1-.5-1.7-.9l-3.2-2.8-2.6 3.3c-.3.4-.8.6-1.3.6h-6.6c-.5 0-.8-.3-.9-.6-.1-.3 0-.6.1-.8l6.3-7.9V858h-4.3c-.3 0-.6-.1-.8-.3-.3-.3-.4-.6-.4-.8v-3.1c0-.3 0-.5.1-.7.1-.2.1-.4.2-.5l4.3-7.9h-3.8c-.3 0-.6-.1-.8-.3-.3-.2-.4-.5-.4-.8v-3.1c0-.7.5-1.1 1.2-1.1h10.7c.8 0 1.3.5 1.3 1.3v2.3c0 .3-.1.6-.2.9-.1.3-.2.5-.4.7l-4.5 8.1h1.9c1.1 0 2 .4 2.6 1.2.6.7.9 1.6.9 2.6v9.3l1.6-4v-22.2h-1.2c-.3 0-.6-.1-.8-.3-.3-.2-.4-.5-.4-.8v-.1c-.2.1-.4.2-.7.2H916c-.7 0-1.2-.3-1.5-.9l-4.2-7.3c-.2-.4-.2-.8 0-1.1.2-.3.5-.5.9-.5h5.3c.8 0 1.3.4 1.5.8l4.2 7.3v-1.5c0-.7.5-1.1 1.2-1.1h3.9l-1.1-4c-.1-.4 0-.7.2-1 .2-.3.5-.5.8-.5h4.6c.4 0 .7.1 1 .3.2.2.4.4.5.7l1.2 4.4h3.5c.8 0 1.3.5 1.3 1.3v1.3l2.4-7c.2-.7.7-1.1 1.5-1.1h4.9c.2 0 .5.1.8.4.3.3.3.7.2 1.1l-.6 1.7h6.9c.8 0 1.3.5 1.3 1.3v2.6c0 .5-.2.8-.4 1-.3.3-.6.4-.9.4h-8.8l-.7 2.2c-.1.3-.4.6-.7.8-.1 0-.1.1-.2.1h9.4c.8 0 1.3.5 1.3 1.3v2.7c0 .5-.1 1-.2 1.3-.1.3-.4.6-.7.9l-3.7 4.1v1.4h4.3c.8 0 1.3.5 1.3 1.3v2.6c0 .5-.2.8-.4 1-.3.3-.6.4-.9.4h-4.3v6.8c0 1.6-.5 2.9-1.4 3.7-.9.8-2 1.2-3.5 1.2h-3.8c-.7 0-1.1-.4-1.3-1l-1-3c-.1-.5 0-.8.1-1 .1-.2.4-.4.8-.4h2.6v-6.4H940c-.3 0-.6-.1-.8-.3v8.3c0 1.1-.4 2.1-1.3 2.8-.4.3-.8.6-1.3.8-.5.2-1.1.3-1.7.3h-2.4c-.7 0-1.1-.4-1.3-1l-1-3v-.1l-1.1 2.8c-.1.3-.3.5-.7.8-.3.2-.6.3-.9.3h-1.9l.9.8h29.8c.3 0 .7.2.9.5.2.3.2.6.1.9l-1.6 3.1c-.3.6-.8.9-1.4.9H927zm4.6-14.7c0 .5 0 .9-.1 1.3 0 .5-.2.9-.4 1.4l-.4.9c.1-.1.3-.1.5-.1h1v-14.4h-.8v10.9zm3.1-16.2c.9 0 1.6.1 2.2.4.6.3 1.1.6 1.5 1.1.4.5.6 1.1.8 1.7.1.6.2 1.3.2 2v3.1c.2-.2.5-.3.8-.3h3.7v-1.3c0-1 .3-1.9 1-2.6l2.2-2.5h-5.9c-.3 0-.6-.1-.8-.3-.3-.3-.4-.6-.4-.8v-3.1c0-.4.2-.7.5-.9h-.7c-.3 0-.6-.1-.9-.5-.2-.2-.2-.4-.2-.7-.1.1-.3.1-.4.1h-6.5v4.6h2.9z"/><path d="M948.1 829.1c.1 0 .3.1.4.2.1.1.1.3.1.4l-.9 2.6h7.8c.5 0 .7.2.7.7v2.6c0 .2-.1.4-.2.6-.1.1-.3.2-.5.2h-9.3l-.9 2.6c-.1.2-.2.4-.4.5-.2.1-.4.2-.6.2h-4.7c-.2 0-.3-.1-.4-.2-.1-.2-.1-.3-.1-.5l3.2-9.3c.1-.4.4-.7.9-.7h4.9m-16.2.1c.2 0 .4.1.6.2.1.1.2.3.3.4l1.3 4.8h4c.4 0 .7.2.7.7v2.6c0 .2-.1.4-.2.6-.1.1-.3.2-.5.2H931v5.8h3.7c.8 0 1.4.1 2 .3s.9.5 1.2.9c.3.4.5.9.6 1.5s.2 1.2.2 1.8V865c0 1-.4 1.7-1.1 2.4-.3.3-.7.5-1.1.6-.4.2-.9.2-1.5.2h-2.4c-.4 0-.6-.2-.7-.5l-1-3.1c-.1-.3 0-.5.4-.5h1.6v-15.6h-2V860c0 .4 0 .9-.1 1.3 0 .4-.1.8-.3 1.2l-1.9 4.8c-.1.2-.2.3-.4.5s-.4.2-.6.2h-3.5l2.3 2h30.1c.1 0 .2.1.3.2.1.1.1.2.1.3l-1.6 3.1c-.2.4-.5.6-.9.6H927c-.6 0-1.1-.1-1.6-.2s-1-.4-1.4-.8l-3.7-3.2-3 3.8c-.2.3-.5.4-.8.4h-6.6c-.2 0-.3-.1-.3-.2s0-.2.1-.3l6.4-8.1v-8.3h-4.9c-.2 0-.3-.1-.4-.2-.1-.1-.2-.2-.2-.4v-3.1c0-.2 0-.3.1-.5s.1-.3.2-.5l4.8-8.7h-4.8c-.2 0-.3-.1-.4-.2s-.2-.2-.2-.4v-3.1c0-.3.2-.5.6-.5h10.7c.4 0 .7.2.7.7v2.3c0 .2-.1.4-.2.7-.1.3-.2.5-.3.6l-5 9h3c.9 0 1.6.3 2.2 1 .5.6.7 1.3.7 2.2v8.1c0 .8-.1 1.5-.2 2.1l.8.7 2.2-5.5v-23h-1.8c-.2 0-.3-.1-.4-.2-.1-.1-.2-.2-.2-.4v-3.1c0-.3.2-.5.6-.5h4.7l-1.3-4.8c0-.2 0-.3.1-.5.1-.1.2-.2.4-.2h4.3m-15.3.2c.4 0 .8.2.9.5l4.3 7.5c.1.2.1.3.1.4 0 .1-.1.2-.3.2H916c-.4 0-.8-.2-1-.6l-4.2-7.4c-.1-.2-.1-.3 0-.5.1-.1.2-.2.4-.2h5.4m37.9 11.8c.4 0 .7.2.7.7v2.7c0 .4-.1.8-.2 1-.1.2-.3.5-.6.7l-3.9 4.3v2.2h4.9c.4 0 .7.2.7.7v2.6c0 .2-.1.4-.2.6-.1.1-.3.2-.5.2h-4.9v7.5c0 1.5-.4 2.6-1.2 3.3-.8.7-1.8 1-3.1 1h-3.8c-.4 0-.6-.2-.7-.5l-1-3.1c-.1-.3 0-.5.4-.5h3.2v-7.7h-4.2c-.2 0-.3-.1-.4-.2-.1-.1-.2-.2-.2-.4V853c0-.3.2-.5.6-.5h4.3v-1.9c0-.9.3-1.6.8-2.2l3.2-3.5h-7.3c-.2 0-.3-.1-.4-.2-.1-.1-.2-.2-.2-.4v-3.1c0-.3.2-.5.6-.5h13.4m-6.4-12.8h-4.9c-1 0-1.8.6-2 1.5l-1.6 4.6c-.3-.4-.9-.7-1.5-.7H935l-1-3.9v-.2c-.1-.3-.4-.7-.6-.9-.3-.2-.7-.5-1.4-.5h-4.6c-.5 0-1 .2-1.3.7-.3.4-.4.9-.3 1.4l.9 3.2h-3.1c-.8 0-1.5.4-1.7 1.1l-3.2-5.5c-.2-.4-.8-1.1-2-1.1h-5.3c-.6 0-1.1.3-1.4.8-.3.5-.3 1-.1 1.6v.2l4.2 7.4c.2.4.5.7.9.9h-4.1c-1.1 0-1.8.7-1.8 1.7v3.1c0 .5.2 1 .6 1.3.3.3.8.5 1.2.5h2.8l-3.8 6.9c-.1.2-.2.3-.2.6-.1.3-.2.6-.2 1v3.1c0 .5.2 1 .6 1.3.3.3.8.4 1.2.4h3.7v6.7l-6.2 7.7c-.3.4-.3.9-.2 1.4.2.6.8 1.1 1.5 1.1h6.6c.7 0 1.4-.3 1.8-.9l2.2-2.8 2.7 2.4c.6.5 1.3.9 1.9 1.1.6.1 1.2.2 1.9.2h27.5c.9 0 1.6-.5 2-1.3l1.6-3.1c.1-.3.3-.8-.1-1.5-.3-.5-.8-.8-1.4-.8h-7.3l.9-.6c1.1-1 1.6-2.4 1.6-4.2v-6.2h3.7c.5 0 1-.2 1.3-.6.3-.3.6-.7.6-1.4V853c0-1.2-.8-1.9-1.9-1.9H952v-.5l3.6-3.9c.4-.4.6-.7.8-1.1.2-.4.3-.9.3-1.5v-2.7c0-1.2-.8-1.9-1.9-1.9h-8v-.1l.6-1.7h8.4c.5 0 1-.2 1.3-.6.3-.3.6-.7.6-1.4v-2.6c0-1.2-.8-1.9-1.9-1.9h-6.1l.3-1c.2-.6.1-1.2-.3-1.7-.6-.4-1.1-.6-1.6-.6zM918.7 852l4-7.2c.1-.2.2-.5.4-.8.2-.4.2-.8.2-1.2v-2.3c0-.2 0-.5-.1-.7h.9v21.5l-.3.8v-5.9c0-1.1-.3-2.1-1-2.9a4.1 4.1 0 0 0-3.1-1.4h-1v.1zm13.5-12.1h5.8c.1.1.1.3.2.4.3.3.6.6 1 .7v3.5c0 .5.2 1 .6 1.3.3.3.8.4 1.2.4h4.5l-1.3 1.4c-.8.8-1.1 1.8-1.1 3v.7h-3.2V849c0-.7-.1-1.4-.2-2.1-.2-.7-.4-1.4-.9-1.9-.4-.5-1-.9-1.7-1.2-.7-.3-1.5-.4-2.4-.4h-2.5v-3.5zm7.7 23.6v-5.7h3.3v5.2h-2c-.7 0-1.1.3-1.3.5zm-8.1-.5zm6 5.8c.2-.1.5-.3.7-.5.8-.7 1.3-1.6 1.4-2.6l.8 2.3c.1.3.2.5.3.7h-3.2v.1zm-8.8 0c.4-.3.7-.6.9-1l.5-1.2.5 1.5c.1.3.2.5.3.7H929zm71.9 6c-1.4 0-2.5-.4-3.4-1.1-.4-.3-.7-.7-1-1.1-.3-.4-.5-.9-.6-1.5l-.1-.8-2.2 3.8c-.1.2-.5.7-1.3.7h-4.7c-.2 0-.7-.1-.9-.6-.3-.5-.2-.8-.1-1.1l.2-.4-17.3 1.7c-.3 0-.6-.1-.8-.4-.2-.2-.3-.6-.3-.9v-1.3l-.8 2.2v.1c-.1.2-.3.3-.5.5s-.5.2-.7.2h-5.6c-.3 0-.6-.2-.8-.4-.2-.3-.2-.7-.1-1l2.2-5.7v-28.4c0-1.1.4-2.1 1.3-2.8.9-.7 1.8-1 2.9-1h5.2V830c0-.6.3-.9.5-1.1.3-.2.6-.3.9-.3h4.5c.4 0 .7.1 1 .3.3.3.5.6.5 1v.9h8.4c1 0 1.3.6 1.3 1.2v1.7c0 .3-.1.6-.3.8-.2.3-.5.4-.9.4h-8.6v.5h6.6c.8 0 1.4.2 2 .7.7.6 1 1.3 1 2.1v3.6c0 .3-.1.7-.4 1 .1-.1.3-.1.4-.1l2.4-.3-2.2-12.6c-.1-.5.1-.8.2-1 .2-.3.5-.4.9-.4h5.1c.8 0 1.3.4 1.4 1.1l2.1 12.1 8.2-.9h.2c.3 0 .5.1.8.3.3.2.5.6.5.9v2.9c0 .8-.5 1.3-1.2 1.3l-7.5.8.6 3.7 1.1-1.7c.3-.5.9-.9 1.6-.9h4.4c.2 0 .7.1.9.6.2.4.2.8 0 1.1l-6.2 10.6 1.6 9.2h4.5c.4 0 .8.2.9.6.1.3.1.6 0 .8l-1.2 3c0 .2-.3.8-1.2.8h-5.4zm-31.4-7.8c0 .6 0 1.1-.1 1.6-.1.4-.2.9-.3 1.3l-.2.7c.2-.1.4-.2.7-.3l2.4-.2-1.2-2.9c-.1-.2-.1-.5.1-.9.2-.3.5-.5.9-.5h4.6c.2 0 .5.1.7.3.2.1.3.3.4.5v.1l1.2 2.8 1.1-2.8v-.1c.1-.2.3-.3.5-.5s.5-.3.7-.3h4.6c.4 0 .7.2.9.5.2.3.2.6.1.9l-.6 1.4 1.8-.2h.2c.3 0 .5.1.8.3.1.1.2.2.2.3l5.1-8.6-2.2-12.8-3.3.4c-.3 0-.5-.1-.8-.4-.3-.3-.4-.6-.4-.9v-2.9c0-.3.1-.5.2-.7-.2.1-.3.1-.5.1h-1.2v.3c0 .8-.5 1.3-1.3 1.3l-5.8.2v.9h7.4c.4 0 .7.2.9.5.2.3.3.7.1 1.1l-.8 1.7c-.3.6-.8.9-1.3.9h-9.6c-1.2 0-2.2-.4-2.9-1.3-.7-.8-1-1.7-1-2.8v-.8l-1.9.1v5.2h17.9c.8 0 1.3.5 1.3 1.2v1.7c0 .4-.2.8-.6 1-.2.1-.3.2-.6.2h-18.1V867zm0-25.9l1.9-.1v-1.4h-1.9v1.5zm9.2-.3l2.6-.1v-1.2h-2.6v1.3zm-5.6 25c-.9 0-1.6-.2-2.1-.7-.7-.5-1.1-1.4-1.1-2.5v-4.2c0-.9.3-1.6 1-2.3.6-.7 1.5-1.1 2.5-1.1h11c1.1 0 1.9.4 2.6 1.1.6.7 1 1.6 1 2.5v3.7c0 1-.3 1.8-1 2.4-.6.6-1.4 1-2.3 1h-11.6zm8.5-4.2v-2.3h-4.9v2.3h4.9zm19.9-21.8c-.7 0-1.3-.4-1.4-1.1l-1.4-7.2c-.1-.3 0-.7.3-.9.3-.3.6-.4.8-.4h4.7c.7 0 1.3.4 1.4 1.1l1.3 6.9c.1.3.1.6-.1 1-.1.2-.4.6-1.1.6h-4.5z"/><path d="M995 829c.5 0 .8.2.8.6l2.2 12.6 8.7-1h.1c.1 0 .3 0 .4.1.2.1.2.3.2.4v2.9c0 .4-.2.7-.6.7l-8.2.9 1 6 1.9-3.1c.2-.4.5-.6 1-.6h4.4c.2 0 .3.1.4.3.1.2.1.4 0 .5l-6.3 10.8 1.7 10h5c.2 0 .3.1.3.2.1.1.1.2 0 .3l-1.2 3.1c-.1.3-.3.4-.7.4h-5.3c-1.2 0-2.2-.3-3-.9-.3-.3-.6-.6-.8-1-.2-.4-.4-.8-.5-1.3l-.4-2.5-3.1 5.2c-.1.3-.4.4-.8.4h-4.7c-.2 0-.3-.1-.4-.3-.1-.2-.1-.4-.1-.5l.8-1.4-18.3 1.8h-.1c-.1 0-.2-.1-.3-.2-.1-.1-.2-.3-.2-.5v-1.6c0-.3.2-.5.7-.6l3.1-.3-1.5-3.6c0-.1 0-.2.1-.3.1-.2.2-.2.3-.2h4.6c.1 0 .2.1.4.2l.3.3 1.3 3.2.8-.1 1.3-3.1.3-.3c.1-.1.3-.2.4-.2h4.6c.1 0 .2.1.3.2.1.2.1.3.1.3l-1 2.4 2.8-.3h.1c.1 0 .2 0 .4.1.1.1.2.3.2.4v1.3l6.2-10.4-2.4-13.6-3.8.4h-.1c-.1 0-.2-.1-.4-.2-.2-.2-.2-.3-.2-.4v-2.9c0-.2.1-.3.2-.4.1-.1.3-.2.5-.2l3-.4-2.3-13.2c0-.2 0-.4.1-.5.1-.1.2-.2.4-.2h5.3m-17.7.4c.2 0 .5.1.6.2.2.1.3.3.3.5v1.5h9c.5 0 .7.2.7.6v1.7c0 .1-.1.3-.2.4-.1.1-.2.2-.4.2h-9.2v1.7h7.2c.6 0 1.1.2 1.6.6.5.5.8 1 .8 1.6v3.6c0 .2-.1.4-.2.6-.2.2-.4.3-.6.3H985v.9c0 .4-.2.7-.7.7l-6.4.2v2.1h8c.2 0 .3.1.4.2.1.2.1.3.1.4l-.8 1.7c-.2.3-.4.5-.8.5h-9.6c-1 0-1.9-.4-2.5-1.1-.6-.7-.9-1.5-.9-2.4v-1.4l-3.1.1v6.4h18.6c.4 0 .7.2.7.6v1.7c0 .2-.1.4-.3.5-.1.1-.2.1-.4.2h-18.6v13c0 .6 0 1.1-.1 1.5l-.3 1.2-1.5 4.1-.3.3c-.1.1-.3.1-.4.1h-5.6c-.1 0-.2-.1-.3-.2-.1-.1-.1-.2 0-.4l2.3-5.9v-28.5c0-1 .4-1.7 1.1-2.4.7-.5 1.6-.8 2.5-.8h5.8v-6.1c0-.3.1-.5.3-.6.2-.1.3-.2.5-.2h4.6m.8 12.4l3.8-.1V839h-3.8v2.4m-9.2.3l3.1-.1V839h-3.1v2.7m35.5-10.9c.4 0 .7.2.8.6l1.3 7c.1.2.1.4 0 .5-.1.2-.3.3-.5.3h-4.5c-.4 0-.7-.2-.8-.6l-1.4-7.2c0-.1 0-.3.1-.4.1-.1.2-.2.4-.2h4.6m-20 24.9c.9 0 1.6.3 2.2.9.5.6.8 1.3.8 2.1v3.7c0 .8-.3 1.4-.8 2s-1.1.8-1.9.8h-11.6c-.7 0-1.3-.2-1.6-.5-.6-.4-.9-1.1-.9-2v-4.2c0-.7.3-1.3.8-1.9.5-.6 1.2-.9 2.1-.9h10.9m-8.3 6.5h6.2v-3.5h-6.2v3.5m18.9-34.4h-5.1c-.5 0-1 .2-1.3.6-.3.4-.5.9-.4 1.5l.1.5c-.3-.1-.6-.2-.9-.2h-7.8v-.3c0-.6-.3-1.1-.8-1.5-.4-.3-.9-.4-1.4-.4h-4.5c-.3 0-.8.1-1.3.5s-.7.9-.7 1.6v4.9h-4.6c-1.2 0-2.3.4-3.3 1.1-1 .8-1.5 2-1.5 3.3v28.2l-2.2 5.7c-.2.5-.2 1.1.2 1.6.3.4.8.7 1.3.7h5.6c.3 0 .7-.1 1-.3.3-.2.5-.4.7-.6l.1-.1.1.1c.3.4.8.6 1.3.6h.3l16.1-1.6c0 .3 0 .6.2 1 .3.6.9.9 1.5.9h4.7c.8 0 1.5-.4 1.8-1l1.4-2.4c.1.3.3.7.5 1 .3.4.6.8 1 1.2 1 .8 2.3 1.2 3.8 1.2h5.3c1.1 0 1.6-.6 1.8-1.2l1.2-3c.1-.3.2-.7 0-1.2-.2-.6-.8-1-1.5-1h-4l-1.4-8.5 6.1-10.5c.3-.5.3-1.2 0-1.7-.3-.6-.9-.9-1.5-.9h-4.4c-.9 0-1.7.4-2.1 1.2l-.2.3-.2-1.4 6.9-.8c1 0 1.7-.8 1.7-1.9v-2.9c0-.6-.2-1-.7-1.4-.2-.2-.5-.3-.8-.4.2-.2.3-.3.4-.6.2-.5.2-.9.1-1.4l-1.3-6.9c-.2-1-.9-1.6-2-1.6h-4.7c-.3 0-.8.1-1.3.5-.4.4-.6 1-.5 1.5l1.4 7.2c.2 1 .9 1.6 2 1.6h1.2l-3.6.4-2-11.5c.1-.9-.5-1.7-1.8-1.7zm-7.4 7.7c.5 0 .9-.3 1.2-.6.1-.1.1-.2.2-.3l1.3 7.2-1.2.1v-3.8c0-.7-.2-1.6-1.2-2.5-.1 0-.2 0-.3-.1zm-17.4 4.7h.7v.2h-.7v-.2zm16.2 3.7h.3v1.5c-.2-.1-.4-.1-.6-.1h-.9c.7-.2 1.1-.7 1.2-1.4zm-16.2 2h.7v.1c0 1.3.4 2.4 1.2 3.2.2.3.5.5.7.7h-2.6v-4zm16.4 4c.1-.1.2-.2.2-.4l.6-1.3c.4.3.8.4 1.1.4h.3l2.6-.3 2.1 12-4.6 7.8c-.3-.1-.6-.2-.9-.2h-.3l-.7.1.2-.5c.1-.3.2-.8-.1-1.4-.1-.1-.1-.2-.2-.3.2-.1.4-.3.6-.5.8-.8 1.1-1.7 1.1-2.8v-3.7c0-1.1-.4-2.1-1.1-2.9-.2-.2-.4-.4-.6-.5h.7c.3-.1.5-.2.8-.3.5-.4.8-.9.8-1.5v-1.7c0-1.1-.8-1.8-1.9-1.8h-.7v-.2zm-16.4 5.4h.9c-.2.1-.4.3-.5.5-.1.1-.2.3-.3.4v-.9h-.1zm7.1 4.6h3.7v1.1h-3.7v-1.1zm-7.1 6.4V865c.2.2.3.4.5.5-.1.1-.3.3-.4.5-.1.1-.1.2-.1.3zm7.9.1h1.1l-.6 1.4-.5-1.4zm-8.3 3.2c.1-.3.2-.6.2-1 .1-.4.1-.8.1-1.3l.9 2.1-1.2.2zm-59.6 59.7c-.4 0-.8-.2-.9-.6-.2-.5 0-.9.3-1.1l14.6-11.5h-12c-.3 0-.6-.1-.8-.3-.3-.2-.5-.5-.5-.9v-3c0-.4.2-.7.4-.9.2-.2.5-.2.8-.2h17.2v-2.5H911c-.3 0-.6-.1-.8-.3-.3-.2-.4-.5-.4-.8v-3c0-.4.2-.7.4-.9.2-.2.5-.2.8-.2h18.4v-2.4h-15.7c-.3 0-.6-.1-.8-.3-.3-.2-.5-.5-.5-.8v-3c0-.4.2-.7.4-.9.2-.2.5-.2.8-.2h15.7v-2.3h-17.4c-.3 0-.6-.1-.8-.3-.3-.2-.4-.5-.4-.8v-3c0-.4.2-.7.4-.9.2-.2.5-.2.8-.2h8.3l-2.4-3.4c-.2-.5 0-.9 0-1 .2-.3.5-.5.9-.5h6.3c.4 0 .8.2 1.1.7l3 4.3h7.8l3.1-4.3c.3-.4.7-.7 1.1-.7h6.3c.4 0 .7.2.9.5.1.1.3.5.1.9l-2.5 3.5h8.1c.3 0 .6.1.8.3.3.2.5.5.5.9v2.7c0 .5-.2.8-.4 1-.2.2-.5.3-.9.3h-17.1v2.3h15.5c.3 0 .6.1.8.3.3.2.5.5.5.9v2.7c0 .5-.2.8-.4 1-.3.2-.6.3-.9.3h-15.6v2.4h18.1c.3 0 .6.1.8.3.3.2.5.5.5.9v2.7c0 .5-.2.8-.4 1-.2.2-.5.3-.9.3h-18.2v2.5h17c.3 0 .6.1.8.3.3.2.5.5.5.9v2.7c0 .5-.2.8-.4 1-.2.2-.5.3-.9.3h-17.9l-.9.7h4.7c.4 0 .8.1 1.2.3l15.9 10.4c.3.2.5.6.3 1.1-.2.4-.5.6-.9.6H948c-.2 0-.4 0-.6-.1-.2-.1-.4-.1-.6-.2l-14.6-9.6-12.2 9.6-.6.3c-.2 0-.4.1-.6.1h-8.6z"/><path d="M947.4 883.6c.1 0 .2.1.3.2.1.2.1.3.1.3l-3.1 4.4h9.3c.2 0 .3.1.5.2s.2.2.2.4v2.7c0 .2-.1.4-.2.5-.1.1-.3.2-.5.2h-17.7v3.5h16.1c.2 0 .3.1.5.2s.2.2.2.4v2.7c0 .2-.1.4-.2.5-.1.1-.3.2-.5.2h-16.2v3.6H955c.2 0 .3.1.5.2s.2.2.2.4v2.7c0 .2-.1.4-.2.5-.1.1-.3.2-.5.2h-18.8v3.8h17.6c.2 0 .3.1.5.2s.2.2.2.4v2.7c0 .2-.1.4-.2.5-.1.1-.3.2-.5.2H936l-2.4 1.9h6.4c.3 0 .6.1.9.2l15.8 10.4c.1.1.1.2.1.4-.1.2-.2.3-.4.3H948c-.2 0-.3 0-.5-.1-.2 0-.3-.1-.4-.2l-15-9.8-12.6 9.9c-.1.1-.2.1-.4.2-.2 0-.3.1-.5.1h-8.4c-.2 0-.3-.1-.4-.3-.1-.2-.1-.3.1-.4l16-12.6h-13.8c-.2 0-.3-.1-.5-.2-.1-.1-.2-.2-.2-.4v-3c0-.2.1-.3.2-.4.1-.1.3-.1.4-.1h17.8v-3.8h-18.9c-.2 0-.3-.1-.5-.2-.1-.1-.2-.2-.2-.4v-3c0-.2.1-.3.2-.4.1-.1.3-.1.4-.1h19v-3.6h-16.3c-.2 0-.3-.1-.5-.2-.1-.1-.2-.2-.2-.4v-3c0-.2.1-.3.2-.4.1-.1.3-.1.4-.1h16.3v-3.5h-18c-.2 0-.3-.1-.5-.2-.1-.1-.2-.2-.2-.4v-3c0-.2.1-.3.2-.4.1-.1.3-.1.4-.1h9.5l-3-4.4c0-.1 0-.2.1-.3.1-.2.2-.2.3-.2h6.3c.2 0 .4.1.6.4l3.2 4.5h8.4l3.2-4.6c.2-.3.4-.4.6-.4h6.6m0-.8h-6.3c-.4 0-1 .2-1.6.9l-2.9 4.1h-7.2l-2.8-4c-.6-.8-1.2-.9-1.6-.9h-6.3c-.6 0-1.1.3-1.4.9-.4.7-.3 1.2-.1 1.5v.2l1.7 2.4h-7.2c-.4 0-.8.1-1.1.4-.4.3-.7.8-.7 1.4v3c0 .5.2 1 .7 1.3.3.3.8.4 1.2.4h16.8v1.1h-15.1c-.4 0-.8.1-1.1.4-.4.3-.7.8-.7 1.4v3c0 .5.2 1 .7 1.3.3.3.8.4 1.2.4h15.1v1.2H911c-.4 0-.8.1-1.1.4-.4.3-.7.8-.7 1.4v3c0 .5.2 1 .7 1.3.3.3.8.4 1.2.4h17.7v1.3h-16.6c-.4 0-.8.1-1.1.4-.4.3-.7.8-.7 1.4v3c0 .5.2 1 .7 1.3.3.3.8.4 1.2.4h10.2l-13.2 10.4c-.5.3-.8 1-.4 1.8.3.6.8 1 1.5 1h8.4c.3 0 .5 0 .7-.1.3-.1.6-.2.8-.3l11.9-9.4 14.2 9.3c.2.1.5.3.8.3.2.1.5.1.8.1h8.4c.7 0 1.2-.4 1.5-1 .3-.8 0-1.5-.5-1.8l-15.6-10.2h12.4c.5 0 .9-.2 1.3-.5.3-.2.6-.7.6-1.5v-2.7c0-.6-.3-1.1-.8-1.4-.4-.2-.8-.4-1.2-.4h-16.4V909h17.6c.5 0 .9-.2 1.3-.5.3-.2.6-.7.6-1.5v-2.7c0-.6-.3-1.1-.8-1.4-.3-.2-.8-.4-1.2-.4h-17.5v-1.2h15c.5 0 .9-.2 1.3-.5.4-.4.6-.9.6-1.5v-2.7c0-.6-.3-1.1-.8-1.4-.4-.2-.8-.4-1.2-.4h-14.9v-1.1h16.5c.5 0 .9-.2 1.3-.5.3-.3.6-.7.6-1.5V889c0-.6-.3-1.1-.8-1.4-.4-.2-.8-.4-1.2-.4h-7l1.7-2.5.1-.1v-.1c.2-.3.3-.8-.1-1.5-.3-.4-.8-.7-1.4-.7zm48.8 46.9c-.2 0-.5 0-.7-.1-.2-.1-.6-.3-.7-.8l-.9-3c-.1-.4 0-.7.1-.9h-2.8c-1 0-1.9-.4-2.6-1.2-.6-.7-.9-1.6-.9-2.7v-20c0-.3.1-.6.3-.9.3-.3.6-.5 1-.5h3.1c.4 0 .7.1 1 .4v-2.2c-.1.1-.1.2-.2.2-.3.3-.6.4-.9.4h-5v29.9c0 .3-.1.6-.3.9-.2.3-.6.5-.9.5h-4.9c-.4 0-.7-.2-.9-.5-.2-.3-.3-.6-.3-.9V898h-5.5c-.7 0-1.2-.4-1.2-1.1v-.6l-3.4 8.9h.1c.3 0 .7.1.9.4.2.2.3.5.3.8V923l2.2-6.1v-16.4c0-.5.2-.8.4-.9.3-.3.6-.4.8-.4h3.5c.2 0 .5.1.8.4.2.2.4.5.4.9v16.7c0 .5 0 1-.1 1.4-.1.4-.2.7-.3 1.1l-1.4 4.1c-.2.6-.7 1-1.4 1h-4c-.4 0-.7-.2-.9-.5v3.7c0 .3-.1.5-.2.8-.2.3-.5.5-.9.5h-5.1c-.3 0-.6-.1-.9-.5-.2-.3-.3-.6-.3-.9v-19.2h-2.1c-.4 0-.7-.2-.9-.5-.2-.3-.2-.7-.1-1l4.3-11.2h-3.2c-.4 0-.7-.2-.9-.5-.2-.3-.2-.7 0-1l4.6-10.5c.4-.7 1-1.1 1.8-1.1h5.4c.4 0 .7.1 1 .4.2.1.5.6.2 1.3l-3.9 8.9h2.3c.3 0 .6.1.9.3 0-.7.4-1.1 1.1-1.1h5.5v-8.4c0-.3.1-.6.3-.8.2-.3.6-.5 1-.5h5c.2 0 .5.1.8.4.2.2.4.5.4.9v.2c.2-.2.4-.3.7-.3h2.9c.6 0 1.1.3 1.2.9l1 6.6c.1.4-.1.7-.2.9l-.3.3c.6.1.9.6.9 1.3v2.4l.3-.3c.2-.2.5-.3.8-.3h12.4c.8 0 1.3.5 1.3 1.3v2.7c0 .4-.1.7-.4 1-.2.2-.5.3-.9.3h-1.8v24.3c0 .5-.1.9-.3 1.4-.2.4-.5.8-.8 1.2-.3.3-.7.6-1.2.8-.5.2-.9.3-1.4.3h-5zm1.4-5.3v-22.7h-3.2c-.3 0-.6-.1-.8-.3v18.2h2c.4 0 .7.2.9.5.2.4.1.8 0 1l-1.3 3c0 .1-.1.2-.2.3h2.6zm-9.3-31.2c-.3-.2-.5-.5-.6-.8l-.6-4.5v5.3h1.2zm6.7-3.2c-.3 0-.6-.1-.8-.3-.3-.3-.4-.6-.4-.8v-3.1c0-.4.2-.7.4-.9.2-.2.5-.2.8-.2h11c.8 0 1.3.5 1.3 1.3v2.7c0 .5-.2.8-.4 1-.2.2-.5.3-.9.3h-11z"/><path d="M985.9 883.6c.1 0 .3.1.4.2.1.1.2.3.2.4v9.1h5.6c.4 0 .7.2.7.7v2.6c0 .2-.1.4-.2.6-.1.1-.3.2-.5.2h-5.6v30.5c0 .2-.1.3-.2.5s-.3.2-.4.2H981c-.2 0-.3-.1-.4-.2-.1-.2-.2-.3-.2-.5v-30.5h-6.1c-.4 0-.6-.2-.6-.5v-3.1c0-.3.2-.5.5-.5h6.1v-9c0-.2.1-.3.2-.5.1-.1.3-.2.5-.2h4.9m-13.4 0c.2 0 .4.1.6.2.2.1.2.3.1.6l-4.2 9.7h3.2c.2 0 .4.1.6.2.2.2.2.4.1.6l-4.1 10.8h1c.2 0 .3.1.4.2.1.1.2.3.2.4v21.5c0 .2 0 .3-.1.5s-.2.2-.4.2h-5.1c-.2 0-.3-.1-.4-.2-.1-.2-.2-.3-.2-.5V908h-2.7c-.2 0-.3-.1-.4-.2-.1-.1-.1-.3 0-.4l4.6-12.1h-4.1c-.2 0-.3-.1-.4-.2-.1-.1-.1-.3 0-.4l4.6-10.5c.2-.5.7-.7 1.2-.7h5.5m18.2 1.2c.3 0 .5.1.6.4l1 6.5c0 .2 0 .3-.1.4-.1.1-.2.2-.4.2H989c-.4 0-.6-.2-.7-.6l-.9-6.4c0-.1 0-.3.1-.4.1-.1.2-.2.3-.2h2.9m15.3.2c.4 0 .7.2.7.7v2.7c0 .2-.1.4-.2.5-.1.1-.3.2-.5.2h-11c-.2 0-.3-.1-.4-.2-.1-.1-.2-.2-.2-.4v-3.1c0-.2.1-.3.2-.4.1-.1.3-.1.4-.1h11m.9 11.8c.4 0 .7.2.7.7v2.7c0 .2-.1.4-.2.5-.1.1-.3.2-.5.2h-2.4v24.9c0 .4-.1.8-.3 1.2-.2.4-.4.7-.7 1.1-.3.3-.6.5-1 .7-.4.2-.8.3-1.1.3h-5.2c-.2 0-.3 0-.5-.1s-.3-.2-.3-.4l-.9-3c-.1-.4.1-.6.5-.6h3.3v-24h-3.8c-.2 0-.3-.1-.5-.2s-.2-.3-.2-.5v-2.8c0-.2.1-.4.2-.5.1-.1.3-.2.5-.2h12.4m-14.8 3.3c.2 0 .4.1.6.2.2.2.3.3.3.5v19.1h2.6c.1 0 .2.1.3.2.1.2.1.3 0 .4l-1.3 3c-.1.3-.4.5-.8.5h-2.7c-.9 0-1.6-.3-2.1-1-.5-.6-.7-1.3-.7-2.3v-20c0-.2.1-.3.2-.5s.3-.3.5-.3h3.1m-14.2.2c.1 0 .3.1.4.2.1.1.2.3.2.4v16.7c0 .5 0 .9-.1 1.3-.1.3-.1.7-.3 1l-1.4 4.1c-.1.4-.4.6-.8.6h-4c-.2 0-.3-.1-.4-.2-.1-.2-.1-.3 0-.5l2.3-6.4v-16.6c0-.2.1-.4.2-.5.1-.1.2-.2.4-.2h3.5m8-17.4h-5c-.6 0-1.1.2-1.4.7-.3.4-.4.8-.4 1.2v7.8h-4.9c-.7 0-1.3.4-1.6.9h-1.8l3.5-8c.3-.8.1-1.5-.4-2-.4-.3-.9-.5-1.4-.5H967c-1.1 0-1.9.5-2.3 1.4l-4.6 10.5c-.2.5-.2 1 0 1.5.3.5.8.9 1.5.9h2.3l-4 10.4c-.2.5-.2 1.1.1 1.5.3.5.8.8 1.4.8h1.4V928c0 .4.2.9.4 1.2.4.5.9.7 1.4.7h5.1c.6 0 1.2-.3 1.5-.9.2-.3.3-.7.3-1.1v-2.6h4.3c.9 0 1.7-.6 1.9-1.5l1.2-3.6v7.6c0 .4.2.9.4 1.2.3.5.8.7 1.4.7h4.9c.6 0 1.1-.3 1.4-.7.3-.4.4-.8.4-1.2V923c.1.2.2.4.4.6.8.9 1.8 1.4 3.1 1.4h2.1c0 .1 0 .3.1.4l.9 3c.2.8.8 1.2 1.1 1.3.3.1.6.1.9.1h5.2c.6 0 1.1-.1 1.7-.4.5-.2.9-.6 1.3-.9.3-.4.6-.8.9-1.3.3-.6.4-1.1.4-1.7v-23.7h1.2c.5 0 .9-.2 1.3-.5.4-.4.6-.9.6-1.4v-2.7c0-1.2-.8-1.9-1.9-1.9h-12.4c-.2 0-.3 0-.5.1V894c0-.6-.2-1.1-.6-1.5.2-.3.2-.7.1-1.1l-1-6.5v-.2c-.2-.8-.9-1.3-1.8-1.3h-3.1c-.1-.2-.2-.4-.4-.6-.3-.4-.8-.5-1.1-.5zm-15.4 22.4l2.5-6.6c.3.2.6.4 1 .4-.3.1-.6.2-.9.5-.3.3-.5.7-.5 1.4v16.3l-.9 2.6v-13c0-.5-.2-.9-.5-1.2-.2-.1-.5-.3-.7-.4zm21.9-6.1h.2v.1c-.1-.1-.2-.1-.2-.1zm-4.7 0h1c-.4.1-.7.3-1 .5v-.5zm-9.5 0h.8v.4c-.2-.2-.5-.3-.8-.4zm16 19.9v-16.7h2.8v17.5c-.3-.5-.8-.8-1.4-.8h-1.4zm1.8 4.8l1-2.3v2.3h-1zm10-39.7h-11c-.4 0-.8.1-1.1.4-.4.3-.7.8-.7 1.4v3.1c0 .5.2 1 .6 1.3.3.3.8.4 1.2.4h11c.5 0 .9-.2 1.3-.5.3-.3.6-.7.6-1.5v-2.7c0-1.2-.7-1.9-1.9-1.9z"/></g><path class="st2" d="M924.5 872.4c-.6 0-1.2-.1-1.7-.2-.6-.1-1.1-.5-1.7-.9l-3.2-2.8-2.6 3.3c-.3.4-.8.6-1.3.6h-6.6c-.5 0-.8-.3-.9-.6-.1-.3 0-.6.1-.8l6.3-7.9v-7.5h-4.3c-.3 0-.6-.1-.8-.3-.3-.3-.4-.6-.4-.8v-3.1c0-.3 0-.5.1-.7.1-.2.1-.4.2-.5l4.3-7.9h-3.8c-.3 0-.6-.1-.8-.3-.3-.2-.4-.5-.4-.8v-3.1c0-.7.5-1.1 1.2-1.1H919c.8 0 1.3.5 1.3 1.3v2.3c0 .3-.1.6-.2.9-.1.3-.2.5-.4.7l-4.5 8.1h1.9c1.1 0 2 .4 2.6 1.2.6.7.9 1.6.9 2.6v9.3l1.6-4v-22.2H921c-.3 0-.6-.1-.8-.3-.3-.2-.4-.5-.4-.8v-.1c-.2.1-.4.2-.7.2h-5.6c-.7 0-1.2-.3-1.5-.9l-4.2-7.3c-.2-.4-.2-.8 0-1.1.2-.3.5-.5.9-.5h5.3c.8 0 1.3.4 1.5.8l4.2 7.3V833c0-.7.5-1.1 1.2-1.1h3.9l-1.1-4c-.1-.4 0-.7.2-1 .2-.3.5-.5.8-.5h4.6c.4 0 .7.1 1 .3.2.2.4.4.5.7l1.2 4.4h3.5c.8 0 1.3.5 1.3 1.3v1.3l2.4-7c.2-.7.7-1.1 1.5-1.1h4.9c.2 0 .5.1.8.4.3.3.3.7.2 1.1l-.6 1.7h6.9c.8 0 1.3.5 1.3 1.3v2.6c0 .5-.2.8-.4 1-.3.3-.6.4-.9.4h-8.8l-.7 2.2c-.1.3-.4.6-.7.8-.1 0-.1.1-.2.1h9.4c.8 0 1.3.5 1.3 1.3v2.7c0 .5-.1 1-.2 1.3-.1.3-.4.6-.7.9l-3.7 4.1v1.4h4.3c.8 0 1.3.5 1.3 1.3v2.6c0 .5-.2.8-.4 1-.3.3-.6.4-.9.4h-4.3v6.8c0 1.6-.5 2.9-1.4 3.7-.9.8-2 1.2-3.5 1.2h-3.8c-.7 0-1.1-.4-1.3-1l-1-3c-.1-.5 0-.8.1-1 .1-.2.4-.4.8-.4h2.6v-6.4h-3.6c-.3 0-.6-.1-.8-.3v8.3c0 1.1-.4 2.1-1.3 2.8-.4.3-.8.6-1.3.8-.5.2-1.1.3-1.7.3H930c-.7 0-1.1-.4-1.3-1l-1-3v-.1l-1.1 2.8c-.1.3-.3.5-.7.8-.3.2-.6.3-.9.3h-1.9l.9.8h29.8c.3 0 .7.2.9.5.2.3.2.6.1.9l-1.6 3.1c-.3.6-.8.9-1.4.9h-27.3zm4.7-14.8c0 .5 0 .9-.1 1.3 0 .5-.2.9-.4 1.4l-.4.9c.1-.1.3-.1.5-.1h1v-14.4h-.8v10.9zm3-16.2c.9 0 1.6.1 2.2.4.6.3 1.1.6 1.5 1.1.4.5.6 1.1.8 1.7.1.6.2 1.3.2 2v3.1c.2-.2.5-.3.8-.3h3.7v-1.3c0-1 .3-1.9 1-2.6l2.2-2.5h-5.9c-.3 0-.6-.1-.8-.3-.3-.3-.4-.6-.4-.8v-3.1c0-.4.2-.7.5-.9h-.7c-.3 0-.6-.1-.9-.5-.2-.2-.2-.4-.2-.7-.1.1-.3.1-.4.1h-6.5v4.6h2.9z"/><path class="st3" d="M945.7 826.7c.1 0 .3.1.4.2.1.1.1.3.1.4l-.9 2.6h7.8c.5 0 .7.2.7.7v2.6c0 .2-.1.4-.2.6-.1.1-.3.2-.5.2h-9.3l-.9 2.6c-.1.2-.2.4-.4.5-.2.1-.4.2-.6.2h-4.7c-.2 0-.3-.1-.4-.2-.1-.2-.1-.3-.1-.5l3.2-9.3c.1-.4.4-.7.9-.7h4.9m-16.2.1c.2 0 .4.1.6.2.1.1.2.3.3.4l1.3 4.8h4c.4 0 .7.2.7.7v2.6c0 .2-.1.4-.2.6-.1.1-.3.2-.5.2h-7.1v5.8h3.7c.8 0 1.4.1 2 .3s.9.5 1.2.9c.3.4.5.9.6 1.5s.2 1.2.2 1.8v16.1c0 1-.4 1.7-1.1 2.4-.3.3-.7.5-1.1.6-.4.2-.9.2-1.5.2h-2.4c-.4 0-.6-.2-.7-.5l-1-3.1c-.1-.3 0-.5.4-.5h1.6v-15.6h-2v11.5c0 .4 0 .9-.1 1.3 0 .4-.1.8-.3 1.2l-1.9 4.8c-.1.2-.2.3-.4.5s-.4.2-.6.2h-3.5l2.3 2h30.1c.1 0 .2.1.3.2.1.1.1.2.1.3l-1.6 3.1c-.2.4-.5.6-.9.6h-27.5c-.6 0-1.1-.1-1.6-.2s-1-.4-1.4-.8l-3.7-3.2-3 3.8c-.2.3-.5.4-.8.4h-6.6c-.2 0-.3-.1-.3-.2s0-.2.1-.3l6.4-8.1v-8.3h-4.9c-.2 0-.3-.1-.4-.2-.1-.1-.2-.2-.2-.4v-3.1c0-.2 0-.3.1-.5s.1-.3.2-.5l4.8-8.7h-4.8c-.2 0-.3-.1-.4-.2s-.2-.2-.2-.4v-3.1c0-.3.2-.5.6-.5H919c.4 0 .7.2.7.7v2.3c0 .2-.1.4-.2.7-.1.3-.2.5-.3.6l-5 9h3c.9 0 1.6.3 2.2 1 .5.6.7 1.3.7 2.2v8.1c0 .8-.1 1.5-.2 2.1l.8.7 2.2-5.5v-23H921c-.2 0-.3-.1-.4-.2-.1-.1-.2-.2-.2-.4v-3.1c0-.3.2-.5.6-.5h4.7l-1.3-4.8c0-.2 0-.3.1-.5.1-.1.2-.2.4-.2h4.6m-15.4.2c.4 0 .8.2.9.5l4.3 7.5c.1.2.1.3.1.4 0 .1-.1.2-.3.2h-5.6c-.4 0-.8-.2-1-.6l-4.2-7.4c-.1-.2-.1-.3 0-.5.1-.1.2-.2.4-.2h5.4m37.9 11.7c.4 0 .7.2.7.7v2.7c0 .4-.1.8-.2 1-.1.2-.3.5-.6.7l-3.9 4.3v2.2h4.9c.4 0 .7.2.7.7v2.6c0 .2-.1.4-.2.6-.1.1-.3.2-.5.2H948v7.5c0 1.5-.4 2.6-1.2 3.3-.8.7-1.8 1-3.1 1h-3.8c-.4 0-.6-.2-.7-.5l-1-3.1c-.1-.3 0-.5.4-.5h3.2V854h-4.2c-.2 0-.3-.1-.4-.2-.1-.1-.2-.2-.2-.4v-3.1c0-.3.2-.5.6-.5h4.3v-1.9c0-.9.3-1.6.8-2.2l3.2-3.5h-7.3c-.2 0-.3-.1-.4-.2-.1-.1-.2-.2-.2-.4v-3.1c0-.3.2-.5.6-.5H952m-6.3-12.6h-4.9c-1 0-1.8.6-2 1.5l-1.6 4.6c-.3-.4-.9-.7-1.5-.7h-3.1l-1-3.9v-.2c-.1-.3-.4-.7-.6-.9-.3-.2-.7-.5-1.4-.5H925c-.5 0-1 .2-1.3.7-.3.4-.4.9-.3 1.4l.9 3.2H921c-.8 0-1.5.4-1.7 1.1l-3.2-5.5c-.2-.4-.8-1.1-2-1.1h-5.3c-.6 0-1.1.3-1.4.8-.3.5-.3 1-.1 1.6v.2l4.2 7.4c.2.4.5.7.9.9h-4.1c-1.1 0-1.8.7-1.8 1.7v3.1c0 .5.2 1 .6 1.3.3.3.8.5 1.2.5h2.8l-3.8 6.9c-.1.2-.2.3-.2.6-.1.3-.2.6-.2 1v3.1c0 .5.2 1 .6 1.3.3.3.8.4 1.2.4h3.7v6.7l-6.2 7.7c-.3.4-.3.9-.2 1.4.2.6.8 1.1 1.5 1.1h6.6c.7 0 1.4-.3 1.8-.9l2.2-2.8 2.7 2.4c.6.5 1.3.9 1.9 1.1.6.1 1.2.2 1.9.2H952c.9 0 1.6-.5 2-1.3l1.6-3.1c.1-.3.3-.8-.1-1.5-.3-.5-.8-.8-1.4-.8h-7.3l.9-.6c1.1-1 1.6-2.4 1.6-4.2v-6.2h3.7c.5 0 1-.2 1.3-.6.3-.3.6-.7.6-1.4v-2.6c0-1.2-.8-1.9-1.9-1.9h-3.7v-.5l3.6-3.9c.4-.4.6-.7.8-1.1.2-.4.3-.9.3-1.5V839c0-1.2-.8-1.9-1.9-1.9h-8v-.1l.6-1.7h8.4c.5 0 1-.2 1.3-.6.3-.3.6-.7.6-1.4v-2.6c0-1.2-.8-1.9-1.9-1.9H947l.3-1c.2-.6.1-1.2-.3-1.7s-.9-.7-1.3-.7zm-29.4 24.1l4-7.2c.1-.2.2-.5.4-.8.2-.4.2-.8.2-1.2V838c0-.2 0-.5-.1-.7h.9V859l-.3.8v-5.9c0-1.1-.3-2.1-1-2.9a4.1 4.1 0 0 0-3.1-1.4h-1v-.1zm13.5-12.1h5.8c.1.1.1.3.2.4.3.3.6.6 1 .7v3.5c0 .5.2 1 .6 1.3.3.3.8.4 1.2.4h4.5l-1.3 1.4c-.8.8-1.1 1.8-1.1 3v.7h-3.2v-2.2c0-.7-.1-1.4-.2-2.1-.2-.7-.4-1.4-.9-1.9-.4-.5-1-.9-1.7-1.2-.7-.3-1.5-.4-2.4-.4h-2.5v-3.6zm7.7 23.6v-5.7h3.3v5.2h-2c-.7 0-1.1.3-1.3.5zm-8.2-.5zm6 5.9c.2-.1.5-.3.7-.5.8-.7 1.3-1.6 1.4-2.6l.8 2.3c.1.3.2.5.3.7h-3.2v.1zm-8.8 0c.4-.3.7-.6.9-1l.5-1.2.5 1.5c.1.3.2.5.3.7h-2.2z"/><path class="st2" d="M998.4 872.3c-1.4 0-2.5-.4-3.4-1.1-.4-.3-.7-.7-1-1.1-.3-.4-.5-.9-.6-1.5l-.1-.8-2.2 3.8c-.1.2-.5.7-1.3.7h-4.7c-.2 0-.7-.1-.9-.6-.3-.5-.2-.8-.1-1.1l.2-.4L967 872c-.3 0-.6-.1-.8-.4-.2-.2-.3-.6-.3-.9v-1.3l-.8 2.2v.1c-.1.2-.3.3-.5.5s-.5.2-.7.2h-5.6c-.3 0-.6-.2-.8-.4-.2-.3-.2-.7-.1-1l2.2-5.7v-28.4c0-1.1.4-2.1 1.3-2.8.9-.7 1.8-1 2.9-1h5.2v-5.5c0-.6.3-.9.5-1.1.3-.2.6-.3.9-.3h4.5c.4 0 .7.1 1 .3.3.3.5.6.5 1v.9h8.4c1 0 1.3.6 1.3 1.2v1.7c0 .3-.1.6-.3.8-.2.3-.5.4-.9.4h-8.6v.5h6.6c.8 0 1.4.2 2 .7.7.6 1 1.3 1 2.1v3.6c0 .3-.1.7-.4 1 .1-.1.3-.1.4-.1l2.4-.3-2.2-12.6c-.1-.5.1-.8.2-1 .2-.3.5-.4.9-.4h5.1c.8 0 1.3.4 1.4 1.1l2.1 12.1 8.2-.9h.2c.3 0 .5.1.8.3.3.2.5.6.5.9v2.9c0 .8-.5 1.3-1.2 1.3l-7.5.8.6 3.7 1.1-1.7c.3-.5.9-.9 1.6-.9h4.4c.2 0 .7.1.9.6.2.4.2.8 0 1.1l-6.2 10.6 1.6 9.2h4.5c.4 0 .8.2.9.6.1.3.1.6 0 .8l-1.2 3c0 .2-.3.8-1.2.8h-5.4zm-31.3-7.8c0 .6 0 1.1-.1 1.6-.1.4-.2.9-.3 1.3l-.2.7c.2-.1.4-.2.7-.3l2.4-.2-1.2-2.9c-.1-.2-.1-.5.1-.9.2-.3.5-.5.9-.5h4.6c.2 0 .5.1.7.3.2.1.3.3.4.5v.1l1.2 2.8 1.1-2.8v-.1c.1-.2.3-.3.5-.5s.5-.3.7-.3h4.6c.4 0 .7.2.9.5.2.3.2.6.1.9l-.6 1.4 1.8-.2h.2c.3 0 .5.1.8.3.1.1.2.2.2.3l5.1-8.6-2.2-12.8-3.3.4c-.3 0-.5-.1-.8-.4-.3-.3-.4-.6-.4-.9v-2.9c0-.3.1-.5.2-.7-.2.1-.3.1-.5.1h-1.2v.3c0 .8-.5 1.3-1.3 1.3l-5.8.2v.9h7.4c.4 0 .7.2.9.5.2.3.3.7.1 1.1l-.8 1.7c-.3.6-.8.9-1.3.9h-9.6c-1.2 0-2.2-.4-2.9-1.3-.7-.8-1-1.7-1-2.8v-.8l-1.9.1v5.2H985c.8 0 1.3.5 1.3 1.2v1.7c0 .4-.2.8-.6 1-.2.1-.3.2-.6.2H967v12.4zm0-25.9l1.9-.1v-1.4h-1.9v1.5zm9.2-.2l2.6-.1v-1.2h-2.6v1.3zm-5.6 24.9c-.9 0-1.6-.2-2.1-.7-.7-.5-1.1-1.4-1.1-2.5V856c0-.9.3-1.6 1-2.3.6-.7 1.5-1.1 2.5-1.1h11c1.1 0 1.9.4 2.6 1.1.6.7 1 1.6 1 2.5v3.7c0 1-.3 1.8-1 2.4-.6.6-1.4 1-2.3 1h-11.6zm8.5-4.2v-2.3h-4.9v2.3h4.9zm19.8-21.7c-.7 0-1.3-.4-1.4-1.1l-1.4-7.2c-.1-.3 0-.7.3-.9.3-.3.6-.4.8-.4h4.7c.7 0 1.3.4 1.4 1.1l1.3 6.9c.1.3.1.6-.1 1-.1.2-.4.6-1.1.6H999z"/><path class="st3" d="M992.5 826.6c.5 0 .8.2.8.6l2.2 12.6 8.7-1h.1c.1 0 .3 0 .4.1.2.1.2.3.2.4v2.9c0 .4-.2.7-.6.7l-8.2.9 1 6 1.9-3.1c.2-.4.5-.6 1-.6h4.4c.2 0 .3.1.4.3.1.2.1.4 0 .5l-6.3 10.8 1.7 10h5c.2 0 .3.1.3.2.1.1.1.2 0 .3l-1.2 3.1c-.1.3-.3.4-.7.4h-5.3c-1.2 0-2.2-.3-3-.9-.3-.3-.6-.6-.8-1-.2-.4-.4-.8-.5-1.3l-.4-2.5-3.1 5.2c-.1.3-.4.4-.8.4H985c-.2 0-.3-.1-.4-.3-.1-.2-.1-.4-.1-.5l.8-1.4-18.3 1.8h-.1c-.1 0-.2-.1-.3-.2-.1-.1-.2-.3-.2-.5v-1.6c0-.3.2-.5.7-.6l3.1-.3-1.5-3.6c0-.1 0-.2.1-.3.1-.2.2-.2.3-.2h4.6c.1 0 .2.1.4.2l.3.3 1.3 3.2.8-.1 1.3-3.1.3-.3c.1-.1.3-.2.4-.2h4.6c.1 0 .2.1.3.2.1.2.1.3.1.3l-1 2.4 2.8-.3h.1c.1 0 .2 0 .4.1.1.1.2.3.2.4v1.3l6.2-10.4-2.4-13.6-3.8.4h-.1c-.1 0-.2-.1-.4-.2-.2-.2-.2-.3-.2-.4v-2.9c0-.2.1-.3.2-.4.1-.1.3-.2.5-.2l3-.4-2.3-13.2c0-.2 0-.4.1-.5.1-.1.2-.2.4-.2h5.3m-17.7.4c.2 0 .5.1.6.2.2.1.3.3.3.5v1.5h9c.5 0 .7.2.7.6v1.7c0 .1-.1.3-.2.4-.1.1-.2.2-.4.2h-9.2v1.7h7.2c.6 0 1.1.2 1.6.6.5.5.8 1 .8 1.6v3.6c0 .2-.1.4-.2.6-.2.2-.4.3-.6.3h-1.9v.9c0 .4-.2.7-.7.7l-6.4.2v2.1h8c.2 0 .3.1.4.2.1.2.1.3.1.4l-.8 1.7c-.2.3-.4.5-.8.5h-9.6c-1 0-1.9-.4-2.5-1.1-.6-.7-.9-1.5-.9-2.4V842l-3.1.1v6.4H985c.4 0 .7.2.7.6v1.7c0 .2-.1.4-.3.5-.1.1-.2.1-.4.2h-18.6v13c0 .6 0 1.1-.1 1.5l-.3 1.2-1.5 4.1-.3.3c-.1.1-.3.1-.4.1h-5.6c-.1 0-.2-.1-.3-.2-.1-.1-.1-.2 0-.4l2.3-5.9v-28.5c0-1 .4-1.7 1.1-2.4.7-.5 1.6-.8 2.5-.8h5.8v-6.1c0-.3.1-.5.3-.6.2-.1.3-.2.5-.2h4.4m.9 12.4l3.8-.1v-2.4h-3.8v2.5m-9.2.2l3.1-.1v-2.6h-3.1v2.7m35.5-10.9c.4 0 .7.2.8.6l1.3 7c.1.2.1.4 0 .5-.1.2-.3.3-.5.3H999c-.4 0-.7-.2-.8-.6l-1.4-7.2c0-.1 0-.3.1-.4.1-.1.2-.2.4-.2h4.7m-20 24.9c.9 0 1.6.3 2.2.9.5.6.8 1.3.8 2.1v3.7c0 .8-.3 1.4-.8 2s-1.1.8-1.9.8h-11.6c-.7 0-1.3-.2-1.6-.5-.6-.4-.9-1.1-.9-2V856c0-.7.3-1.3.8-1.9.5-.6 1.2-.9 2.1-.9H982m-8.4 6.6h6.2v-3.5h-6.2v3.5m18.9-34.5h-5.1c-.5 0-1 .2-1.3.6-.3.4-.5.9-.4 1.5l.1.5c-.3-.1-.6-.2-.9-.2H977v-.3c0-.6-.3-1.1-.8-1.5-.4-.3-.9-.4-1.4-.4h-4.5c-.3 0-.8.1-1.3.5s-.7.9-.7 1.6v4.9h-4.6c-1.2 0-2.3.4-3.3 1.1-1 .8-1.5 2-1.5 3.3V865l-2.2 5.7c-.2.5-.2 1.1.2 1.6.3.4.8.7 1.3.7h5.6c.3 0 .7-.1 1-.3.3-.2.5-.4.7-.6l.1-.1.1.1c.3.4.8.6 1.3.6h.3l16.1-1.6c0 .3 0 .6.2 1 .3.6.9.9 1.5.9h4.7c.8 0 1.5-.4 1.8-1l1.4-2.4c.1.3.3.7.5 1 .3.4.6.8 1 1.2 1 .8 2.3 1.2 3.8 1.2h5.3c1.1 0 1.6-.6 1.8-1.2l1.2-3c.1-.3.2-.7 0-1.2-.2-.6-.8-1-1.5-1h-4l-1.4-8.5 6.1-10.5c.3-.5.3-1.2 0-1.7-.3-.6-.9-.9-1.5-.9h-4.4c-.9 0-1.7.4-2.1 1.2l-.2.3-.2-1.4 6.9-.8c1 0 1.7-.8 1.7-1.9v-2.9c0-.6-.2-1-.7-1.4-.2-.2-.5-.3-.8-.4.2-.2.3-.3.4-.6.2-.5.2-.9.1-1.4l-1.3-6.9c-.2-1-.9-1.6-2-1.6H997c-.3 0-.8.1-1.3.5-.4.4-.6 1-.5 1.5l1.4 7.2c.2 1 .9 1.6 2 1.6h1.2l-3.6.4-2-11.5c.2-.8-.4-1.6-1.7-1.6zm-7.3 7.8c.5 0 .9-.3 1.2-.6.1-.1.1-.2.2-.3l1.3 7.2-1.2.1v-3.8c0-.7-.2-1.6-1.2-2.5-.2 0-.3-.1-.3-.1zm-17.5 4.6h.7v.2h-.7v-.2zm16.2 3.8h.3v1.5c-.2-.1-.4-.1-.6-.1h-.9c.7-.3 1.1-.8 1.2-1.4zm-16.2 1.9h.7v.1c0 1.3.4 2.4 1.2 3.2.2.3.5.5.7.7h-2.6v-4zm16.5 4c.1-.1.2-.2.2-.4l.6-1.3c.4.3.8.4 1.1.4h.3l2.6-.3 2.1 12-4.6 7.8c-.3-.1-.6-.2-.9-.2h-.3l-.7.1.2-.5c.1-.3.2-.8-.1-1.4-.1-.1-.1-.2-.2-.3.2-.1.4-.3.6-.5.8-.8 1.1-1.7 1.1-2.8v-3.7c0-1.1-.4-2.1-1.1-2.9-.2-.2-.4-.4-.6-.5h.7c.3-.1.5-.2.8-.3.5-.4.8-.9.8-1.5v-1.7c0-1.1-.8-1.8-1.9-1.8h-.7v-.2zm-16.5 5.4h.9c-.2.1-.4.3-.5.5-.1.1-.2.3-.3.4v-.9h-.1zm7.1 4.6h3.7v1.1h-3.7v-1.1zm-7.1 6.5v-1.3c.2.2.3.4.5.5-.1.1-.3.3-.4.5 0 .1-.1.2-.1.3zm8 0h1.1l-.6 1.4-.5-1.4zm-8.3 3.3c.1-.3.2-.6.2-1 .1-.4.1-.8.1-1.3l.9 2.1-1.2.2z"/><path class="st2" d="M907.8 926.9c-.4 0-.8-.2-.9-.6-.2-.5 0-.9.3-1.1l14.6-11.5h-12c-.3 0-.6-.1-.8-.3-.3-.2-.5-.5-.5-.9v-3c0-.4.2-.7.4-.9.2-.2.5-.2.8-.2h17.2v-2.5h-18.3c-.3 0-.6-.1-.8-.3-.3-.2-.4-.5-.4-.8v-3c0-.4.2-.7.4-.9.2-.2.5-.2.8-.2H927v-2.4h-15.7c-.3 0-.6-.1-.8-.3-.3-.2-.5-.5-.5-.8v-3c0-.4.2-.7.4-.9.2-.2.5-.2.8-.2h15.7v-2.3h-17.4c-.3 0-.6-.1-.8-.3-.3-.2-.4-.5-.4-.8v-3c0-.4.2-.7.4-.9.2-.2.5-.2.8-.2h8.3l-2.4-3.4c-.2-.5 0-.9 0-1 .2-.3.5-.5.9-.5h6.3c.4 0 .8.2 1.1.7l3 4.3h7.8l3.1-4.3c.3-.4.7-.7 1.1-.7h6.3c.4 0 .7.2.9.5.1.1.3.5.1.9l-2.5 3.5h8.1c.3 0 .6.1.8.3.3.2.5.5.5.9v2.7c0 .5-.2.8-.4 1-.2.2-.5.3-.9.3h-17.1v2.3H950c.3 0 .6.1.8.3.3.2.5.5.5.9v2.7c0 .5-.2.8-.4 1-.3.2-.6.3-.9.3h-15.6v2.4h18.1c.3 0 .6.1.8.3.3.2.5.5.5.9v2.7c0 .5-.2.8-.4 1-.2.2-.5.3-.9.3h-18.2v2.5h17c.3 0 .6.1.8.3.3.2.5.5.5.9v2.7c0 .5-.2.8-.4 1-.2.2-.5.3-.9.3h-17.9l-.9.7h4.7c.4 0 .8.1 1.2.3l15.9 10.4c.3.2.5.6.3 1.1-.2.4-.5.6-.9.6h-8.4c-.2 0-.4 0-.6-.1-.2-.1-.4-.1-.6-.2l-14.6-9.6-12.2 9.6-.6.3c-.2 0-.4.1-.6.1h-8.3z"/><path class="st3" d="M945 881.1c.1 0 .2.1.3.2.1.2.1.3.1.3l-3.1 4.4h9.3c.2 0 .3.1.5.2s.2.2.2.4v2.7c0 .2-.1.4-.2.5-.1.1-.3.2-.5.2H934v3.5h16.1c.2 0 .3.1.5.2s.2.2.2.4v2.7c0 .2-.1.4-.2.5-.1.1-.3.2-.5.2H934v3.6h18.8c.2 0 .3.1.5.2s.2.2.2.4v2.7c0 .2-.1.4-.2.5-.1.1-.3.2-.5.2H934v3.8h17.6c.2 0 .3.1.5.2s.2.2.2.4v2.7c0 .2-.1.4-.2.5-.1.1-.3.2-.5.2h-18.1l-2.4 1.9h6.4c.3 0 .6.1.9.2l15.8 10.4c.1.1.1.2.1.4-.1.2-.2.3-.4.3h-8.4c-.2 0-.3 0-.5-.1-.2 0-.3-.1-.4-.2l-15-9.8-12.6 9.9c-.1.1-.2.1-.4.2-.2 0-.3.1-.5.1h-8.4c-.2 0-.3-.1-.4-.3-.1-.2-.1-.3.1-.4l16-12.6h-13.8c-.2 0-.3-.1-.5-.2-.1-.1-.2-.2-.2-.4v-3c0-.2.1-.3.2-.4.1-.1.3-.1.4-.1h17.8V905h-18.9c-.2 0-.3-.1-.5-.2-.1-.1-.2-.2-.2-.4v-3c0-.2.1-.3.2-.4.1-.1.3-.1.4-.1h19v-3.6H911c-.2 0-.3-.1-.5-.2-.1-.1-.2-.2-.2-.4v-3c0-.2.1-.3.2-.4.1-.1.3-.1.4-.1h16.3v-3.5h-18c-.2 0-.3-.1-.5-.2-.1-.1-.2-.2-.2-.4v-3c0-.2.1-.3.2-.4.1-.1.3-.1.4-.1h9.5l-3-4.4c0-.1 0-.2.1-.3.1-.2.2-.2.3-.2h6.3c.2 0 .4.1.6.4l3.2 4.5h8.4l3.2-4.6c.2-.3.4-.4.6-.4h6.7m0-.7h-6.3c-.4 0-1 .2-1.6.9l-2.9 4.1H927l-2.8-4c-.6-.8-1.2-.9-1.6-.9h-6.3c-.6 0-1.1.3-1.4.9-.4.7-.3 1.2-.1 1.5v.2l1.7 2.4h-7.2c-.4 0-.8.1-1.1.4-.4.3-.7.8-.7 1.4v3c0 .5.2 1 .7 1.3.3.3.8.4 1.2.4h16.8v1.1h-15.1c-.4 0-.8.1-1.1.4-.4.3-.7.8-.7 1.4v3c0 .5.2 1 .7 1.3.3.3.8.4 1.2.4h15.1v1.2h-17.7c-.4 0-.8.1-1.1.4-.4.3-.7.8-.7 1.4v3c0 .5.2 1 .7 1.3.3.3.8.4 1.2.4h17.7v1.3h-16.6c-.4 0-.8.1-1.1.4-.4.3-.7.8-.7 1.4v3c0 .5.2 1 .7 1.3.3.3.8.4 1.2.4h10.2L906.9 925c-.5.3-.8 1-.4 1.8.3.6.8 1 1.5 1h8.4c.3 0 .5 0 .7-.1.3-.1.6-.2.8-.3l11.9-9.4 14.2 9c.2.1.5.3.8.3.2.1.5.1.8.1h8.4c.7 0 1.2-.4 1.5-1 .3-.8 0-1.5-.5-1.8l-15.6-10.2h12.4c.5 0 .9-.2 1.3-.5.3-.2.6-.7.6-1.5v-2.7c0-.6-.3-1.1-.8-1.4-.4-.2-.8-.4-1.2-.4h-16.4v-1.3h17.6c.5 0 .9-.2 1.3-.5.3-.2.6-.7.6-1.5v-2.7c0-.6-.3-1.1-.8-1.4-.3-.2-.8-.4-1.2-.4h-17.5v-1.2h15c.5 0 .9-.2 1.3-.5.4-.4.6-.9.6-1.5v-2.7c0-.6-.3-1.1-.8-1.4-.4-.2-.8-.4-1.2-.4h-14.9v-1.1h16.5c.5 0 .9-.2 1.3-.5.3-.3.6-.7.6-1.5v-2.7c0-.6-.3-1.1-.8-1.4-.4-.2-.8-.4-1.2-.4h-7l1.7-2.5.1-.1v-.1c.2-.3.3-.8-.1-1.5-.3-.4-.8-.7-1.4-.7z"/><path class="st2" d="M993.7 926.8c-.2 0-.5 0-.7-.1-.2-.1-.6-.3-.7-.8l-.9-3c-.1-.4 0-.7.1-.9h-2.8c-1 0-1.9-.4-2.6-1.2-.6-.7-.9-1.6-.9-2.7v-20c0-.3.1-.6.3-.9.3-.3.6-.5 1-.5h3.1c.4 0 .7.1 1 .4v-2.2c-.1.1-.1.2-.2.2-.3.3-.6.4-.9.4h-5v29.9c0 .3-.1.6-.3.9-.2.3-.6.5-.9.5h-4.9c-.4 0-.7-.2-.9-.5-.2-.3-.3-.6-.3-.9v-29.9h-5.5c-.7 0-1.2-.4-1.2-1.1v-.6l-3.4 8.9h.1c.3 0 .7.1.9.4.2.2.3.5.3.8v16.6l2.2-6.1V898c0-.5.2-.8.4-.9.3-.3.6-.4.8-.4h3.5c.2 0 .5.1.8.4.2.2.4.5.4.9v16.7c0 .5 0 1-.1 1.4-.1.4-.2.7-.3 1.1l-1.4 4.1c-.2.6-.7 1-1.4 1h-4c-.4 0-.7-.2-.9-.5v3.7c0 .3-.1.5-.2.8-.2.3-.5.5-.9.5h-5.1c-.3 0-.6-.1-.9-.5-.2-.3-.3-.6-.3-.9v-19.2h-2c-.4 0-.7-.2-.9-.5-.2-.3-.2-.7-.1-1l4.3-11.2h-3.2c-.4 0-.7-.2-.9-.5-.2-.3-.2-.7 0-1l4.6-10.5c.4-.7 1-1.1 1.8-1.1h5.4c.4 0 .7.1 1 .4.2.1.5.6.2 1.3l-3.9 8.9h2.3c.3 0 .6.1.9.3 0-.7.4-1.1 1.1-1.1h5.5v-8.4c0-.3.1-.6.3-.8.2-.3.6-.5 1-.5h5c.2 0 .5.1.8.4.2.2.4.5.4.9v.2c.2-.2.4-.3.7-.3h2.9c.6 0 1.1.3 1.2.9l1 6.6c.1.4-.1.7-.2.9l-.3.3c.6.1.9.6.9 1.3v2.4l.3-.3c.2-.2.5-.3.8-.3h12.4c.8 0 1.3.5 1.3 1.3v2.7c0 .4-.1.7-.4 1-.2.2-.5.3-.9.3h-1.8V923c0 .5-.1.9-.3 1.4-.2.4-.5.8-.8 1.2-.3.3-.7.6-1.2.8-.5.2-.9.3-1.4.3h-5.1zm1.5-5.3v-22.7H992c-.3 0-.6-.1-.8-.3v18.2h2c.4 0 .7.2.9.5.2.4.1.8 0 1l-1.3 3c0 .1-.1.2-.2.3h2.6zm-9.4-31.3c-.3-.2-.5-.5-.6-.8l-.6-4.5v5.3h1.2zm6.7-3.1c-.3 0-.6-.1-.8-.3-.3-.3-.4-.6-.4-.8v-3.1c0-.4.2-.7.4-.9.2-.2.5-.2.8-.2h11c.8 0 1.3.5 1.3 1.3v2.7c0 .5-.2.8-.4 1-.2.2-.5.3-.9.3h-11z"/><path class="st3" d="M983.4 881.1c.1 0 .3.1.4.2.1.1.2.3.2.4v9.1h5.6c.4 0 .7.2.7.7v2.6c0 .2-.1.4-.2.6-.1.1-.3.2-.5.2H984v30.5c0 .2-.1.3-.2.5s-.3.2-.4.2h-4.9c-.2 0-.3-.1-.4-.2-.1-.2-.2-.3-.2-.5v-30.5h-6.1c-.4 0-.6-.2-.6-.5v-3.1c0-.3.2-.5.5-.5h6.1v-9c0-.2.1-.3.2-.5.1-.1.3-.2.5-.2h4.9m-13.4.1c.2 0 .4.1.6.2.2.1.2.3.1.6l-4.2 9.7h3.2c.2 0 .4.1.6.2.2.2.2.4.1.6l-4.1 10.8h1c.2 0 .3.1.4.2.1.1.2.3.2.4v21.5c0 .2 0 .3-.1.5s-.2.2-.4.2h-5.1c-.2 0-.3-.1-.4-.2-.1-.2-.2-.3-.2-.5v-19.8H959c-.2 0-.3-.1-.4-.2-.1-.1-.1-.3 0-.4l4.6-12.1h-4.1c-.2 0-.3-.1-.4-.2-.1-.1-.1-.3 0-.4l4.6-10.5c.2-.5.7-.7 1.2-.7h5.5m18.2 1.1c.3 0 .5.1.6.4l1 6.5c0 .2 0 .3-.1.4-.1.1-.2.2-.4.2h-2.8c-.4 0-.6-.2-.7-.6l-.9-6.4c0-.1 0-.3.1-.4.1-.1.2-.2.3-.2h2.9m15.4.2c.4 0 .7.2.7.7v2.7c0 .2-.1.4-.2.5-.1.1-.3.2-.5.2h-11c-.2 0-.3-.1-.4-.2-.1-.1-.2-.2-.2-.4v-3.1c0-.2.1-.3.2-.4.1-.1.3-.1.4-.1h11m.8 11.8c.4 0 .7.2.7.7v2.7c0 .2-.1.4-.2.5-.1.1-.3.2-.5.2h-2.4V923c0 .4-.1.8-.3 1.2-.2.4-.4.7-.7 1.1-.3.3-.6.5-1 .7-.4.2-.8.3-1.1.3h-5.2c-.2 0-.3 0-.5-.1s-.3-.2-.3-.4l-.9-3c-.1-.4.1-.6.5-.6h3.3v-24H992c-.2 0-.3-.1-.5-.2s-.2-.3-.2-.5v-2.8c0-.2.1-.4.2-.5.1-.1.3-.2.5-.2h12.4m-14.7 3.3c.2 0 .4.1.6.2.2.2.3.3.3.5v19.1h2.6c.1 0 .2.1.3.2.1.2.1.3 0 .4l-1.3 3c-.1.3-.4.5-.8.5h-2.7c-.9 0-1.6-.3-2.1-1-.5-.6-.7-1.3-.7-2.3v-20c0-.2.1-.3.2-.5s.3-.3.5-.3h3.1m-14.3.2c.1 0 .3.1.4.2.1.1.2.3.2.4v16.7c0 .5 0 .9-.1 1.3-.1.3-.1.7-.3 1l-1.4 4.1c-.1.4-.4.6-.8.6h-4c-.2 0-.3-.1-.4-.2-.1-.2-.1-.3 0-.5l2.3-6.4V898c0-.2.1-.4.2-.5.1-.1.2-.2.4-.2h3.5m8-17.4h-5c-.6 0-1.1.2-1.4.7-.3.4-.4.8-.4 1.2v7.8h-4.9c-.7 0-1.3.4-1.6.9h-1.8l3.5-8c.3-.8.1-1.5-.4-2-.4-.3-.9-.5-1.4-.5h-5.4c-1.1 0-1.9.5-2.3 1.4l-4.6 10.5c-.2.5-.2 1 0 1.5.3.5.8.9 1.5.9h2.3l-4 10.4c-.2.5-.2 1.1.1 1.5.3.5.8.8 1.4.8h1.4v18.6c0 .4.2.9.4 1.2.4.5.9.7 1.4.7h5.1c.6 0 1.2-.3 1.5-.9.2-.3.3-.7.3-1.1v-2.6h4.3c.9 0 1.7-.6 1.9-1.5l1.2-3.6v7.6c0 .4.2.9.4 1.2.3.5.8.7 1.4.7h4.9c.6 0 1.1-.3 1.4-.7.3-.4.4-.8.4-1.2v-4.9c.1.2.2.4.4.6.8.9 1.8 1.4 3.1 1.4h2.1c0 .1 0 .3.1.4l.9 3c.2.8.8 1.2 1.1 1.3.3.1.6.1.9.1h5.2c.6 0 1.1-.1 1.7-.4.5-.2.9-.6 1.3-.9.3-.4.6-.8.9-1.3.3-.6.4-1.1.4-1.7v-23.7h1.2c.5 0 .9-.2 1.3-.5.4-.4.6-.9.6-1.4v-2.7c0-1.2-.8-1.9-1.9-1.9H992c-.2 0-.3 0-.5.1v-1.3c0-.6-.2-1.1-.6-1.5.2-.3.2-.7.1-1.1l-1-6.5v-.2c-.2-.8-.9-1.3-1.8-1.3h-3.1c-.1-.2-.2-.4-.4-.6-.5-.4-.9-.5-1.3-.5zM968 902.3l2.5-6.6c.3.2.6.4 1 .4-.3.1-.6.2-.9.5-.3.3-.5.7-.5 1.4v16.3l-.9 2.6v-13c0-.5-.2-.9-.5-1.2-.2-.2-.4-.3-.7-.4zm21.9-6.2h.2v.1c-.1-.1-.1-.1-.2-.1zm-4.7.1h1c-.4.1-.7.3-1 .5v-.5zm-9.4 0h.8v.4c-.3-.3-.6-.4-.8-.4zm16 19.8v-16.7h2.8v17.5c-.3-.5-.8-.8-1.4-.8h-1.4zm1.8 4.8l1-2.3v2.3h-1zm10-39.7h-11c-.4 0-.8.1-1.1.4-.4.3-.7.8-.7 1.4v3.1c0 .5.2 1 .6 1.3.3.3.8.4 1.2.4h11c.5 0 .9-.2 1.3-.5.3-.3.6-.7.6-1.5V883c0-1.1-.8-1.9-1.9-1.9z"/><path class="st4" d="M989.2 567h-65.6l-46.4 46.4V679l46.4 46.5h65.6l46.4-46.5v-65.6z"/><text transform="translate(899.249 639.35)"><tspan x="0" y="0" class="st7" font-family="MFinanceHK-Bold" font-size="56.162">空間</tspan><tspan x="0" y="58.3" class="st7" font-family="MFinanceHK-Bold" font-size="56.162">設計</tspan></text><text transform="translate(897.535 637.349)"><tspan x="0" y="0" fill="#fff" stroke="#231815" stroke-width="1.118" stroke-miterlimit="10" font-family="MFinanceHK-Bold" font-size="56.162">空間</tspan><tspan x="0" y="58.3" fill="#fff" stroke="#231815" stroke-width="1.118" stroke-miterlimit="10" font-family="MFinanceHK-Bold" font-size="56.162">設計</tspan></text><path class="st5" d="M1105.8 681.7h-65.7l-46.3 46.4-.1 65.7 46.4 46.4h65.7l46.4-46.4v-65.7z"/><text transform="translate(1016.96 754.102)"><tspan x="0" y="0" class="st9" font-family="MFinanceHK-Bold" font-size="56.162">網頁</tspan><tspan x="0" y="58.3" class="st9" font-family="MFinanceHK-Bold" font-size="56.162">設計</tspan></text><text transform="translate(1013.594 752.984)"><tspan x="0" y="0" fill="#fff" stroke="#05681a" stroke-width="1.118" stroke-miterlimit="10" font-family="MFinanceHK-Bold" font-size="56.162">網頁</tspan><tspan x="0" y="58.3" fill="#fff" stroke="#05681a" stroke-width="1.118" stroke-miterlimit="10" font-family="MFinanceHK-Bold" font-size="56.162">設計</tspan></text><path class="st6" d="M873.2 681.7h-65.6l-46.4 46.4v65.7l46.4 46.4h65.6l46.4-46.4v-65.7z"/><text transform="translate(789.114 754.102)"><tspan x="0" y="0" class="st11" font-family="MFinanceHK-Bold" font-size="56.162" letter-spacing="-1">視覺</tspan><tspan x="0" y="58.3" class="st11" font-family="MFinanceHK-Bold" font-size="56.162" letter-spacing="-1">設計</tspan></text><text transform="translate(785.474 751.866)"><tspan x="0" y="0" fill="#fff" stroke="#bc2300" stroke-width="1.118" stroke-miterlimit="10" font-family="MFinanceHK-Bold" font-size="56.162" letter-spacing="-1">視覺</tspan><tspan x="0" y="58.3" fill="#fff" stroke="#bc2300" stroke-width="1.118" stroke-miterlimit="10" font-family="MFinanceHK-Bold" font-size="56.162" letter-spacing="-1">設計</tspan></text><path class="st0" d="M67.3 67.9H47.9L34.2 81.6V101l13.7 13.6h19.4L81 101V81.6z"/><g class="st1"><path d="M48.9 90.8c-.2 0-.4 0-.5-.1-.2 0-.3-.1-.5-.3l-.9-.7-.8 1c-.1.1-.2.2-.4.2h-1.9c-.2 0-.2-.1-.3-.2v-.1l.1-.2 1.9-2.3v-2.2h-1.3c-.1 0-.2 0-.2-.1-.1-.1-.1-.2-.1-.2v-1.1c0-.1 0-.1.1-.1l1.3-2.3h-1.1c-.1 0-.2 0-.2-.1-.1-.1-.1-.2-.1-.2v-.9c0-.2.1-.3.3-.3h3.2c.2 0 .4.2.4.4v.7c0 .1 0 .2-.1.3 0 .1-.1.2-.1.2l-1.3 2.4h.6c.3 0 .6.1.8.4.2.2.3.5.3.8v2.7l.5-1.2v-6.5h-.4c-.1 0-.2 0-.2-.1-.1-.1-.1-.2-.1-.2s-.1.1-.2.1h-1.6c-.2 0-.4-.1-.4-.3L44 77.6c-.1-.1 0-.2 0-.3.1-.1.2-.1.3-.1h1.6c.3 0 .4.1.4.2l1.2 2.2v-.4c0-.2.1-.3.3-.3H49l-.3-1.2c0-.1 0-.2.1-.3.1-.1.2-.1.3-.1h1.3c.1 0 .2 0 .3.1.1.1.1.1.1.2l.4 1.3h1c.2 0 .4.2.4.4v.4l.7-2.1c.1-.2.2-.3.4-.3h1.4c.1 0 .2 0 .2.1.1.1.1.2 0 .3l-.2.5h2c.2 0 .4.2.4.4v.8c0 .1-.1.2-.1.3-.1.1-.2.1-.3.1h-2.6l-.2.6c0 .1-.1.2-.2.2H54h3c.2 0 .4.2.4.4v.8c0 .2 0 .3-.1.4 0 .1-.1.2-.2.3L56 83.6v.4h1.3c.2 0 .4.2.4.4v.8c0 .2-.1.2-.1.3-.1.1-.2.1-.3.1H56v2c0 .5-.1.9-.4 1.1-.3.2-.6.4-1 .4h-1.1c-.2 0-.3-.1-.4-.3l-.3-.9v-.3s.1-.1.2-.1h.8v-1.9h-1.1c-.1 0-.2 0-.2-.1v2.4c0 .3-.1.6-.4.8-.1.1-.2.2-.4.2-.1.1-.3.1-.5.1h-.7c-.2 0-.3-.1-.4-.3l-.3-.9-.3.8c0 .1-.1.2-.2.2 0 .2-.1.2-.2.2h-.6l.3.2h8.8c.1 0 .2.1.3.1l.1.1v.2l-.5.9c-.1.2-.2.3-.4.3h-8.2zm1.4-4.3v.4c0 .1 0 .3-.1.4l-.1.3h.5v-4.2h-.2v3.1zm.9-4.8c.3 0 .5 0 .6.1.2.1.3.2.4.3.1.1.2.3.2.5s.1.4.1.6v.9c.1-.1.1-.1.2-.1h1.1v-.4c0-.3.1-.6.3-.8l.7-.7h-1.7c-.1 0-.2 0-.2-.1-.1-.1-.1-.2-.1-.2v-.9c0-.1 0-.2.1-.3h-.2c-.1 0-.2 0-.3-.1 0-.1-.1-.1-.1-.2h-2v1.4h.9z"/><path d="M55.2 77.3s.1 0 .1.1v.1l-.3.8h2.3c.1 0 .2.1.2.2v.8c0 .1 0 .1-.1.2l-.1.1h-2.7l-.3.8c0 .1-.1.1-.1.2-.1 0-.1.1-.2.1h-1.4c-.1 0-.1 0-.1-.1v-.1l.9-2.7c0-.1.1-.2.3-.2h1.5m-4.8-.3c.1 0 .1 0 .2.1l.1.1.4 1.4h1.2c.1 0 .2.1.2.2v.8c0 .1 0 .1-.1.2l-.1.1h-2.1v1.7h1.1c.2 0 .4 0 .6.1.2.1.3.2.4.3.1.1.2.3.2.4 0 .2.1.3.1.5v4.7c0 .3-.1.5-.3.7-.1.1-.2.1-.3.2-.1 0-.3.1-.4.1h-.7c-.1 0-.2-.1-.2-.2l-.3-.9c0-.1 0-.2.1-.2h.5V83h-.6v3.8c0 .1 0 .2-.1.3l-.6 1.4c0 .1-.1.1-.1.1-.1 0-.1.1-.2.1h-1l.7.6H58s.1 0 .1.1v.1l-.5.9c-.1.1-.1.2-.3.2h-8.1c-.2 0-.3 0-.5-.1-.1 0-.3-.1-.4-.2l-1.1-1-.9 1.1c-.1.1-.1.1-.2.1h-1.9c-.1 0-.1 0-.1-.1v-.1l1.9-2.4v-2.5h-1.6l-.1-.1v-1.1c0-.1 0-.1.1-.1l1.4-2.6h-1.5l-.1-.1v-.9c0-.1.1-.2.2-.2h3.2c.1 0 .2.1.2.2v.9c0 .1-.1.1-.1.2l-1.5 2.7h.9c.3 0 .5.1.6.3.1.2.2.4.2.6v3l.2.2.6-1.6V80h-.6l-.1-.1V79c0-.1.1-.2.2-.2h1.4l-.4-1.4v-.1l.1-.1h1.1m-4.5.1c.1 0 .2 0 .3.1l1.3 2.2v.1s0 .1-.1.1h-1.6c-.1 0-.2-.1-.3-.2l-1.2-2.2v-.1l.1-.1h1.5M57 80.8c.1 0 .2.1.2.2v1.1c0 .1-.1.1-.2.2l-1.2 1.3v.7h1.4c.1 0 .2.1.2.2v.8c0 .1 0 .1-.1.2l-.1.1h-1.4v2.2c0 .4-.1.8-.3 1-.2.2-.5.3-.9.3h-1.1c-.1 0-.2-.1-.2-.2l-.3-1.1c0-.1 0-.2.1-.2h1v-2.3h-1.3l-.1-.1v-.9c0-.1.1-.2.2-.2h1.3v-.6c0-.3.1-.5.2-.6l.9-1H53l-.1-.1v-.9c0-.1.1-.2.2-.2H57M55.2 77h-1.4c-.3 0-.5.2-.6.5l-.5 1.4c-.1-.1-.3-.2-.4-.2h-.9l-.4-1.3c-.1-.1-.1-.2-.2-.3-.1-.1-.2-.1-.4-.1H49c-.2 0-.3.1-.4.2-.1.1-.1.3-.1.4l.3 1h-.9c-.2 0-.4.1-.5.3l-.9-1.6c-.1-.1-.2-.3-.6-.3h-1.6c-.2 0-.3.1-.4.2-.1.1-.1.3 0 .5l1.3 2.2c.1.1.1.2.3.3h-1.2c-.3 0-.5.2-.5.5v.9c0 .1.1.3.2.4.1.1.2.1.4.1h.6l-1.1 2c0 .1-.1.1-.1.2s-.1.2-.1.3v.9c0 .1.1.3.2.4.1.1.2.1.3.1h1.1v2l-1.8 2.3c-.1.1-.1.3-.1.4.1.2.2.3.4.3h1.9c.2 0 .4-.1.5-.3l.6-.8.8.7c.2.2.4.3.6.3.2 0 .4.1.6.1H57c.3 0 .5-.1.6-.4l.5-.9c0-.1.1-.2 0-.4s-.3-.3-.5-.3h-2.1c.1-.1.2-.1.3-.2.3-.3.5-.7.5-1.2v-1.8h1.1c.1 0 .3-.1.4-.2.1-.1.2-.2.2-.4v-.8c0-.3-.2-.6-.6-.6h-1.1v-.1l1.1-1.2c.1-.1.2-.2.2-.3.1-.1.1-.3.1-.4V81c0-.3-.2-.6-.6-.6h-2.4l.2-.5h2.5c.1 0 .3-.1.4-.2.1-.1.2-.2.2-.4v-.8c0-.3-.2-.6-.6-.6h-1.8l.1-.3c.1-.2 0-.3-.1-.5-.2-.1-.3-.1-.4-.1zm-8.7 7.1l1.2-2.1c0-.1.1-.1.1-.2s.1-.2.1-.3v-.9h.3v6.3l-.2.2v-1.7c0-.3-.1-.6-.3-.9-.2-.3-.5-.4-.9-.4h-.3zm4-3.6h1.7s0 .1.1.1c.1.1.2.2.3.2v1c0 .1.1.3.2.4.1.1.2.1.4.1h1.3l-.5.5c-.2.2-.3.5-.3.9v.2h-1v-.7c0-.2 0-.4-.1-.6 0-.2-.1-.4-.3-.6-.1-.2-.3-.3-.5-.4-.2-.1-.4-.1-.7-.1h-.7v-1h.1zm2.2 7v-1.7h1v1.5h-.6c-.2 0-.3.1-.4.2zm-2.4-.2zm1.8 1.7c.1 0 .1-.1.2-.1.2-.2.4-.5.4-.8l.2.7c0 .1 0 .1.1.2h-.9zm-2.6 0l.3-.3.1-.3.2.5c0 .1 0 .1.1.2h-.7V89zm21.2 1.8c-.4 0-.7-.1-1-.3l-.3-.3c-.1-.1-.1-.3-.2-.4v-.2l-.7 1.1c0 .1-.1.2-.4.2h-1.4c-.1 0-.2 0-.3-.2-.1-.1-.1-.2 0-.3l.1-.1-5.1.5c-.1 0-.2 0-.3-.1-.1-.1-.1-.2-.1-.3V90l-.2.6-.2.2c-.1 0-.1.1-.2.1h-1.7c-.1 0-.2 0-.2-.1-.1-.1-.1-.2 0-.3l.7-1.7v-8.3c0-.3.1-.6.4-.8.3-.2.5-.3.9-.3H62v-1.6c0-.2.1-.3.1-.3.1-.1.2-.1.3-.1h1.3c.1 0 .2 0 .3.1.1.1.2.2.2.3v.3h2.5c.3 0 .4.2.4.4v.5c0 .1 0 .2-.1.2-.1-.2-.1-.2-.3-.2h-2.5v.2h1.9c.2 0 .4.1.6.2.2.2.3.4.3.6v1.1c0 .1 0 .2-.1.3h.1l.7-.1-.6-3.7c0-.1 0-.2.1-.3.1-.1.2-.1.3-.1H69c.2 0 .4.1.4.3L70 81l2.4-.3c.1 0 .2 0 .2.1.1.1.1.2.1.3v.8c0 .2-.1.4-.3.4l-2.2.3.2 1.1.3-.5c.1-.2.3-.3.5-.3h1.3c.1 0 .2 0 .3.2.1.1.1.2 0 .3L71 86.5l.5 2.7h1.3c.1 0 .2.1.3.2v.3l-.4.9c0 .1-.1.2-.4.2h-1.6zm-9.2-2.3v.5c0 .1-.1.3-.1.4l-.1.2c.1 0 .1-.1.2-.1l.7-.1-.3-.9v-.3c.1-.1.2-.2.3-.2h1.4c.1 0 .1 0 .2.1.1 0 .1.1.1.1l.4.8.3-.8c0-.1.1-.1.2-.2s.1-.1.2-.1h1.4c.1 0 .2.1.3.2 0 0 .1.2 0 .3l-.4.6h.5c.1 0 .2 0 .3.1l.1.1 1.5-2.5-.7-3.8-1 .1c-.1 0-.2 0-.3-.1-.1-.1-.1-.2-.1-.3v-.9c0-.1 0-.1.1-.2h-.6v.1c0 .2-.1.4-.4.4h-1.5v.3h2.2c.1 0 .2.1.3.1.1.1.1.2 0 .3l-.2.5c-.1.2-.2.3-.4.3h-2.8c-.4 0-.6-.1-.9-.4-.2-.2-.3-.5-.3-.8v-.2h-.6v1.5h5.3c.2 0 .4.1.4.3v.5c0 .1 0 .2-.2.3-.1 0-.1.1-.2.1h-5.3v3.7zm0-7.7h.6v-.4h-.6v.4zm2.7 0h.8v-.3h-.8v.3zm-1.7 7.3c-.3 0-.5-.1-.6-.2-.2-.2-.3-.4-.3-.7V86c0-.3.1-.5.3-.7.2-.2.4-.3.7-.3h3.2c.3 0 .6.1.8.3.2.2.3.5.3.7v1.1c0 .3-.1.5-.3.7-.2.2-.4.3-.7.3h-3.4zm2.5-1.2v-.7h-1.5v.7H65zm5.9-6.4c-.2 0-.4-.1-.4-.3l-.4-2.2c0-.1 0-.2.1-.3.1-.1.2-.1.2-.1h1.4c.2 0 .4.1.4.3l.4 2.1v.3c-.1.1-.2.2-.3.2h-1.4z"/><path d="M69 77.3c.1 0 .2.1.2.2l.6 3.7 2.6-.3h.1l.1.1v.8c0 .1-.1.2-.2.2l-2.4.3.3 1.8.6-.9c.1-.1.2-.2.3-.2h1.3c.1 0 .1 0 .1.1v.2l-1.9 3.2.5 2.9h1.5c.1 0 .1 0 .1.1v.1l-.4.9c0 .1-.1.1-.2.1h-1.6c-.4 0-.7-.1-.9-.3-.1-.1-.2-.2-.2-.3-.1-.1-.1-.2-.1-.4l-.1-.7-.9 1.5c0 .1-.1.1-.2.1h-1.4c-.1 0-.1 0-.1-.1v-.1l.2-.4-5.4.5h-.1s-.1-.1-.1-.2v-.5c0-.1.1-.2.2-.2l.9-.1-.4-.9v-.1l.1-.1h1.5l.1.1.4.9h.2l.4-.9.1-.1h1.5s.1 0 .1.1v.1l-.3.7.8-.1h.1l.1.1v.4l1.8-3.1-.7-4-1.1.1s-.1 0-.1-.1l-.1-.1v-.9c0-.1 0-.1.1-.1l.1-.1.9-.1-.7-3.9v-.1l.1-.1H69m-5.2.2c.1 0 .1 0 .2.1.1 0 .1.1.1.2v.4h2.7c.1 0 .2.1.2.2v.6l-.1.1H64v.5h2.1c.2 0 .3.1.5.2s.2.3.2.5v1.1c0 .1 0 .1-.1.2 0 .1-.1.1-.2.1H66v.3c0 .1-.1.2-.2.2l-1.8-.2v.6h2.4c.1 0 .1 0 .1.1v.1l-.2.5c-.1.1-.1.2-.2.2h-2.8c-.3 0-.5-.1-.7-.3-.2-.2-.3-.4-.3-.7v-.4h-.9v1.9h5.5c.1 0 .2.1.2.2v.5c0 .1 0 .1-.1.2h-5.6v4.2c0 .1-.1.2-.1.3l-.4 1.2-.1.1H59s-.1 0-.1-.1v-.1l.7-1.7v-8.4c0-.3.1-.5.3-.7.2-.2.5-.2.7-.2h1.7v-1.8c0-.1 0-.1.1-.2.1 0 .1-.1.2-.1h1.2M64 81h1.1v-.7H64v.7m-2.7 0h.9v-.8h-.9v.8m10.5-3.2c.1 0 .2.1.2.2l.4 2.1v.2c0 .1-.1.1-.2.1h-1.3c-.1 0-.2-.1-.2-.2l-.5-2.2v-.1l.1-.1h1.5m-5.9 7.4c.3 0 .5.1.6.3.2.2.2.4.2.6v1.1c0 .2-.1.4-.2.6-.2.2-.3.2-.6.2h-3.4c-.2 0-.4-.1-.5-.2-.2-.1-.3-.3-.3-.6V86c0-.2.1-.4.2-.5.2-.2.4-.3.6-.3h3.4m-2.5 1.9h1.8v-1h-1.8v1M69 76.9h-1.5c-.2 0-.3.1-.4.2-.1.1-.1.3-.1.4v.1c-.1 0-.2-.1-.3-.1h-2.3v-.1c0-.2-.1-.3-.2-.4h-1.7c-.1 0-.2 0-.4.1-.1.1-.2.3-.2.5V79h-1.4c-.4 0-.7.1-1 .3-.3.3-.5.6-.5 1v8.3l-.6 1.7c-.1.1-.1.3.1.5.1.1.2.2.4.2h1.7c.1 0 .2 0 .3-.1.1-.1.2-.1.2-.2.1.1.2.2.4.2h.1l4.7-.5c0 .1 0 .2.1.3.1.2.3.3.4.3h1.4c.2 0 .4-.1.6-.3l.4-.7c0 .1.1.2.1.3.1.1.2.2.3.4.3.2.7.4 1.1.4h1.6c.3 0 .5-.2.5-.4l.3-.9c0-.1.1-.2 0-.3-.1-.2-.2-.3-.4-.3h-1.2l-.4-2.5 1.8-3.1c.1-.2.1-.3 0-.5s-.3-.3-.4-.3h-1.3c-.3 0-.5.1-.6.4l-.1.1-.1-.4 2-.2c.3 0 .5-.2.5-.6v-.8c0-.2-.1-.3-.2-.4-.1-.1-.2-.1-.2-.1.1 0 .1-.1.1-.2.1-.1.1-.3 0-.4l-.4-2c0-.3-.3-.5-.6-.5h-1.4c-.1 0-.2 0-.4.2-.1.1-.2.3-.1.5l.4 2.1c0 .3.3.5.6.5h.3l-1.1.1-.6-3.4c.2-.5.1-.8-.3-.8zm-2.2 2.3c.1 0 .3-.1.3-.2l.1-.1.4 2.1h-.3v-1c-.1-.2-.1-.5-.5-.8zm-5.1 1.4h.2v.1l-.2-.1zm4.7 1.1h.1v.4H66c.3-.1.4-.2.4-.4zm-4.7.6h.2c0 .4.1.7.4 1l.2.2h-.8v-1.2zm4.8 1.1s0-.1.1-.1l.2-.4c.1.1.2.1.3.1h.1l.7-.1.6 3.5-1.4 2.3c-.1 0-.2-.1-.3-.1h-.3l.1-.2c0-.1.1-.2 0-.4 0 0 0-.1-.1-.1.1 0 .1-.1.2-.1.2-.2.3-.5.3-.8v-1.1c0-.3-.1-.6-.3-.9l-.2-.2h.2c.1 0 .2-.1.2-.1.2-.1.3-.3.3-.5V84c0-.3-.2-.5-.6-.5h-.1v-.1zM61.7 85h.3c-.1 0-.1.1-.2.2l-.1.1V85zm2.1 1.4h1.1v.3h-1.1v-.3zm-2.1 1.9v-.4c0 .1.1.1.2.1-.1.1-.2.2-.2.3 0-.1 0 0 0 0zm2.3 0h.3l-.2.4-.1-.4zm-2.4 1c0-.1 0-.2.1-.3v-.4l.2.6-.3.1zM44 106.9c-.1 0-.2-.1-.3-.2-.1-.2 0-.3.1-.3l4.3-3.4h-3.5c-.1 0-.2 0-.2-.1-.1-.1-.1-.2-.1-.3v-.9c0-.1 0-.2.1-.3.1 0 .1-.1.2-.1h5.1v-.7h-5.4c-.1 0-.2 0-.2-.1-.1-.1-.1-.1-.1-.2v-.9c0-.1 0-.2.1-.3.1 0 .1-.1.2-.1h5.4v-.7H45c-.1 0-.2 0-.2-.1-.1-.1-.1-.2-.1-.3V97c0-.1 0-.2.1-.3.1 0 .1-.1.2-.1h4.6v-.7h-5.1c-.1 0-.2 0-.2-.1-.1-.1-.1-.2-.1-.3V95c0-.1 0-.2.1-.3.1 0 .1-.1.2-.1H47l-.7-1c-.1-.1 0-.2 0-.3.1-.1.1-.2.3-.2h1.9c.1 0 .2.1.3.2l.9 1.3H52l.9-1.3c.1-.1.2-.2.3-.2H55c.1 0 .2.1.3.2 0 0 .1.2 0 .3l-.7 1H57c.1 0 .2 0 .2.1.1.1.1.2.1.3v.8c0 .2-.1.2-.1.3-.1.1-.2.1-.3.1h-5v.7h4.6c.1 0 .2 0 .2.1.1.1.1.2.1.3v.8c0 .2-.1.2-.1.3-.1.1-.2.1-.3.1h-4.6v.7h5.4c.1 0 .2 0 .2.1.1.1.1.2.1.3v.8c0 .2-.1.2-.1.3-.1.1-.2.1-.3.1h-5.4v.7h5c.1 0 .2 0 .2.1.1.1.1.2.1.3v.8c0 .2-.1.2-.1.3-.1.1-.2.1-.3.1h-5.3l-.3.2h1.4c.1 0 .2 0 .3.1l4.7 3.1c.1.1.1.2.1.3 0 .1-.1.2-.3.2h-2.7c-.1 0-.1 0-.2-.1l-4.3-2.8-3.6 2.8c-.1 0-.1.1-.2.1H44z"/><path d="M55 93.4c.1.1.1.1.1.2l-.9 1.3H57l.1.1v.8c0 .1 0 .1-.1.2l-.1.1h-5.2v1h4.9l.1.1v.8c0 .1 0 .1-.1.2l-.1.1h-4.8v1.1h5.6l.1.1v.8c0 .1 0 .1-.1.2l-.1.1h-5.5v1.1H57l.1.1v.8c0 .1 0 .1-.1.2l-.1.1h-5.4l-.7.6h1.9c.1 0 .2 0 .3.1l4.7 3.1v.1c0 .1-.1.1-.1.1h-2.7l-4.4-2.9-3.7 2.9H44c-.1 0-.1 0-.1-.1v-.1l4.7-3.7h-4.2l-.1-.1v-.9c0-.1 0-.1.1-.1h5.3v-1.1H44l-.1-.1v-.9c0-.1 0-.1.1-.1h5.7v-1.1h-4.8l-.1-.1v-.9c0-.1 0-.1.1-.1h4.9v-1h-5.4l-.1-.1V95c0-.1 0-.1.1-.1h2.9l-.9-1.3v-.1l.1-.1h1.9c.1 0 .1 0 .2.1l.9 1.3H52l1-1.3c.1-.1.1-.1.2-.1H55m0-.4h-1.9c-.1 0-.3 0-.5.3l-.9 1.2h-2.1l-.8-1.2c-.2-.2-.4-.3-.5-.3h-1.9c-.2 0-.3.1-.4.3-.1.2-.1.3 0 .4l.5.8h-2.1c-.1 0-.2 0-.3.1-.1.1-.2.2-.2.4v.9c0 .2.1.3.2.4.1.1.2.1.4.1h4.9v.3h-4.5c-.1 0-.2 0-.3.1-.1.1-.2.2-.2.4v.9c0 .2.1.3.2.4.1.1.2.1.4.1h4.4v.4h-5.2c-.1 0-.2 0-.3.1-.1.1-.2.2-.2.4v.9c0 .2.1.3.2.4.1.1.2.1.4.1h5.2v.4h-4.9c-.1 0-.2 0-.3.1-.1.1-.2.2-.2.4v.9c0 .2.1.3.2.4.1.1.2.1.4.1h3l-3.9 3.1c-.1.1-.2.3-.1.5s.2.3.4.3h2.7c.1 0 .2-.1.2-.1l3.5-2.8 4.2 2.8c.1 0 .1.1.2.1h2.7c.2 0 .4-.1.4-.3.1-.2 0-.4-.2-.5l-4.6-3h3.6c.1 0 .3 0 .4-.1.1-.1.2-.2.2-.4v-.8c0-.2-.1-.3-.2-.4-.1-.1-.2-.1-.3-.1h-4.8v-.4h5.2c.1 0 .3 0 .4-.1.1-.1.2-.2.2-.4v-.8c0-.2-.1-.3-.2-.4-.2-.4-.3-.4-.5-.4H52v-.4h4.4c.1 0 .3 0 .4-.1.1-.1.2-.3.2-.4v-.8c0-.2-.1-.3-.2-.4-.1-.1-.2-.1-.3-.1h-4.4v-.3H57c.1 0 .3 0 .4-.1.1-.1.2-.2.2-.4v-1c0-.2-.1-.3-.2-.4-.1-.1-.2-.1-.3-.1H55l.5-.7c0-.1.1-.2 0-.4-.2-.3-.4-.4-.5-.4zm14.3 13.9h-.2c-.1 0-.2-.1-.2-.3l-.3-.9v-.3h-.8c-.3 0-.6-.1-.8-.4-.2-.2-.3-.5-.3-.8v-5.9c0-.1 0-.2.1-.3h1.3c.1 0 .2 0 .3.1v-.6s0 .1-.1.1c-.1.1-.2.1-.3.1h-1.5v8.8c0 .1 0 .2-.1.3-.1.1-.2.1-.3.1h-1.5c-.1 0-.2 0-.3-.1-.1-.1-.1-.2-.1-.3v-8.8h-1.6c-.2 0-.3-.1-.3-.3v-.2l-1 2.6c.1 0 .2 0 .3.1.1.1.1.2.1.2v4.9l.6-1.8v-4.8c0-.1.1-.2.1-.3.1-.1.2-.1.2-.1h1c.1 0 .2 0 .2.1.1.1.1.2.1.3v5.3c0 .1 0 .2-.1.3l-.4 1.2c0 .2-.2.3-.4.3h-1.2c-.1 0-.2-.1-.3-.1v1.1c0 .1 0 .2-.1.2-.1.1-.2.2-.3.2h-1.5c-.1 0-.2 0-.3-.1-.1-.1-.1-.2-.1-.3v-5.7h-.6c-.1 0-.2-.1-.3-.1-.1-.1-.1-.2 0-.3l1.3-3.3h-1c-.1 0-.2-.1-.3-.2v-.3l1.3-3.1c.1-.2.3-.3.5-.3h1.6c.1 0 .2 0 .3.1 0 0 .2.2.1.4L61 96.3h.7c.1 0 .2 0 .3.1 0-.2.1-.3.3-.3h1.6v-2.5c0-.1 0-.2.1-.2.1-.1.2-.1.3-.1h1.5c.1 0 .2 0 .2.1.1.1.1.2.1.3v.1c.1-.1.1-.1.2-.1h.8c.2 0 .3.1.4.3l.3 1.9c0 .1 0 .2-.1.3l-.1.1c.2 0 .3.2.3.4v.7s0-.1.1-.1c.1-.1.2-.1.2-.1h3.7c.2 0 .4.2.4.4v.8c0 .1 0 .2-.1.3-.1.1-.2.1-.3.1h-.5v7.2c0 .1 0 .3-.1.4-.1.1-.1.3-.2.4-.1.1-.2.2-.3.2-.1.1-.3.1-.4.1h-1.1zm.5-1.6v-6.7h-.9c-.1 0-.2 0-.2-.1v5.4h.6c.1 0 .2 0 .3.2.1.1.1.2 0 .3l-.4.9s0 .1-.1.1h.7zM67 96.1l-.2-.2-.2-1.3v1.6h.4zm2-1c-.1 0-.2 0-.2-.1-.1-.1-.1-.1-.1-.2v-.9c0-.1 0-.2.1-.3.1 0 .1-.1.2-.1h3.3c.2 0 .4.2.4.4v.8c0 .2-.1.2-.1.3-.1.1-.2.1-.3.1H69z"/><path d="M66.3 93.4s.1 0 .1.1l.1.1v2.7h1.7c.1 0 .2.1.2.2v.8c0 .1 0 .1-.1.2l-.1.1h-1.7v9c0 .1 0 .1-.1.1l-.1.1h-1.5c-.1 0-.1 0-.1-.1l-.1-.1v-9h-1.8c-.1 0-.2-.1-.2-.2v-.9c0-.1.1-.2.2-.2h1.8v-2.8l.1-.1h1.6m-4 0c.1 0 .1 0 .2.1 0 0 .1.1 0 .2l-1.2 2.9h1c.1 0 .1 0 .2.1 0 0 .1.1 0 .2l-1.2 3.2h.3c.1 0 .1 0 .1.1v6.5l-.1.1h-1.5c-.1 0-.1 0-.1-.1l-.1-.1v-5.8h-.8c-.1 0-.1 0-.1-.1v-.1l1.4-3.6h-1.2c-.1 0-.1 0-.1-.1v-.1l1.3-3.1c.1-.1.2-.2.4-.2h1.5m5.4.2c.1 0 .2 0 .2.1l.3 1.9v.1l-.1.1h-.8c-.1 0-.2-.1-.2-.2l-.3-1.9v-.1l.1-.1h.8m4.5.1c.1 0 .2.1.2.2v.8c0 .1 0 .1-.1.2l-.1.1h-3.3l-.1-.1V94c0-.1 0-.1.1-.1h3.3m.3 3.3c.1 0 .2.1.2.2v.8c0 .1 0 .1-.1.1l-.1.1h-.7v7.3c0 .1 0 .2-.1.3-.1.1-.1.2-.2.3-.1.1-.2.1-.3.2-.1.1-.2.1-.3.1h-1.6l-.1-.1-.3-.9c0-.1 0-.2.1-.2h1v-7.1h-1.1c-.1 0-.1 0-.1-.1s-.1-.1-.1-.1v-.8c0-.1 0-.1.1-.1h3.7m-4.4 1c.1 0 .1 0 .2.1.1 0 .1.1.1.2v5.6h.8s.1 0 .1.1v.1l-.4.9c0 .1-.1.1-.2.1h-.8c-.3 0-.5-.1-.6-.3-.1-.2-.2-.4-.2-.7v-5.9c0-.1 0-.1.1-.2 0-.1.1-.1.2-.1h.7m-4.2.1s.1 0 .1.1l.1.1v5.3c0 .1 0 .2-.1.3l-.4 1.2c0 .1-.1.2-.2.2h-1.2c-.1 0-.1 0-.1-.1v-.1l.7-1.9v-4.9c0-.1 0-.1.1-.1l.1-.1h.9m2.4-5.2h-1.5c-.2 0-.3.1-.4.2-.1.1-.1.2-.1.4v2.3h-1.4c-.2 0-.4.1-.5.3h-.5l1-2.4c.1-.2 0-.5-.1-.6-.1-.1-.3-.2-.4-.2h-1.6c-.3 0-.6.1-.7.4l-1.4 3.1c-.1.1-.1.3 0 .4.1.2.2.3.4.3h.7l-1.2 3.1c-.1.1-.1.3 0 .4.1.1.2.2.4.2h.4v5.5c0 .1 0 .3.1.4.1.1.3.2.4.2h1.5c.2 0 .3-.1.4-.3.1-.1.1-.2.1-.3v-.8h1.3c.3 0 .5-.2.6-.5l.4-1v2.3c0 .1 0 .3.1.4.1.1.3.2.4.2h1.5c.2 0 .3-.1.4-.2.1-.1.1-.2.1-.4V105c0 .1.1.1.1.2.2.3.5.4.9.4h.6v.1l.3.9c.1.2.2.3.3.4h1.8c.2 0 .3 0 .5-.1.1-.1.3-.2.4-.3.1-.1.2-.3.3-.4.1-.2.1-.3.1-.5v-7h.4c.1 0 .3 0 .4-.1.1-.1.2-.3.2-.4v-.8c0-.3-.2-.6-.6-.6h-3.8v-.4c0-.2-.1-.3-.2-.4 0-.1.1-.2 0-.3l-.3-1.9c-.1-.3-.3-.4-.5-.4h-.9c0-.1-.1-.1-.1-.2s-.2-.2-.3-.2zm-4.5 6.6l.7-1.9c.1.1.2.1.3.1-.1 0-.2.1-.3.1-.1.1-.2.2-.2.4v4.8l-.3.8v-3.8c0-.1 0-.3-.1-.4 0 0-.1 0-.1-.1zm6.4-1.8zm-1.4 0h.3c-.1 0-.2.1-.3.2v-.2zm-2.8 0h.2v.2c0-.1-.1-.2-.2-.2zm4.7 5.9v-4.9h.9v5.2c-.1-.2-.2-.2-.4-.2h-.5v-.1zm.6 1.4l.3-.7v.7h-.3zm2.9-11.7H69c-.1 0-.2 0-.3.1-.1.1-.2.2-.2.4v.9c0 .1.1.3.2.4.1.1.2.1.4.1h3.3c.1 0 .3 0 .4-.1.1-.1.2-.2.2-.4V94c-.2-.4-.4-.6-.8-.6z"/></g><path class="st2" d="M48.2 90.1c-.2 0-.4 0-.5-.1-.2 0-.3-.1-.5-.3l-.9-.8-.8 1c-.1.1-.2.2-.4.2h-1.9c-.2 0-.2-.1-.3-.2v-.1l.1-.2 1.9-2.3v-2.2h-1.3c-.1 0-.2 0-.2-.1-.1-.1-.1-.2-.1-.2v-1.1c0-.1 0-.1.1-.1l1.3-2.3h-1.1c-.1 0-.2 0-.2-.1-.1-.1-.1-.2-.1-.2v-.9c0-.2.1-.3.3-.3h3.2c.2 0 .4.2.4.4v.7c0 .1 0 .2-.1.3 0 .1-.1.2-.1.2l-1.3 2.4h.3c.3 0 .6.1.8.4.2.2.3.5.3.8v2.3l.5-1.2v-6.5h-.4c-.1 0-.2 0-.2-.1-.1-.1-.1-.2-.1-.2s-.1.1-.2.1H45c-.2 0-.4-.1-.4-.3l-1.2-2.2c-.1-.1 0-.2 0-.3.1-.1.2-.1.3-.1h1.6c.3 0 .4.1.4.2l1.2 2.2v-.4c0-.2.1-.3.3-.3h1.2l-.4-1.4c0-.1 0-.2.1-.3.1-.1.2-.1.3-.1h1.3c.1 0 .2 0 .3.1.1.1.1.1.1.2l.4 1.3h1c.2 0 .4.2.4.4v.4l.7-2.1c.1-.2.2-.3.4-.3h1.4c.1 0 .2 0 .2.1.1.1.1.2 0 .3l-.2.5h2c.2 0 .4.2.4.4v.8c0 .1-.1.2-.1.3-.1.1-.2.1-.3.1H54l-.2.6c0 .1-.1.2-.2.2h-.1 2.8c.2 0 .4.2.4.4v.8c0 .2 0 .3-.1.4 0 .1-.1.2-.2.3l-1.1 1.2v.4h1.3c.2 0 .4.2.4.4v.8c0 .2-.1.2-.1.3-.1.1-.2.1-.3.1h-1.3v2c0 .5-.1.9-.4 1.1-.3.2-.6.4-1 .4h-1.1c-.2 0-.3-.1-.4-.3l-.3-.9v-.3s.1-.1.2-.1h.8v-1.9H52c-.1 0-.2 0-.2-.1v2.4c0 .3-.1.6-.4.8-.1.1-.2.2-.4.2-.1.1-.3.1-.5.1h-.7c-.2 0-.3-.1-.4-.3l-.3-.9-.3.8c0 .1-.1.2-.2.2-.1.1-.2.1-.3.1h-.6l.3.2h8.8c.1 0 .2.1.3.1l.1.1v.2l-.5.9c-.1.2-.2.3-.4.3h-8.1zm1.4-4.4v.4c0 .1 0 .3-.1.4l-.1.3h.5v-4.2h-.2v3.1zm.9-4.8c.3 0 .5 0 .6.1.2.1.3.2.4.3.1.1.2.3.2.5s.1.4.1.6v.9c.1-.1.1-.1.2-.1h1.1v-.4c0-.3.1-.6.3-.8l.7-.7h-1.7c-.1 0-.2 0-.2-.1-.2.1-.2 0-.2-.1v-.9c0-.1 0-.2.1-.3h-.2c-.1 0-.2 0-.3-.1 0-.1-.1-.1-.1-.2h-2V81h1z"/><path class="st3" d="M54.4 76.6s.1 0 .1.1v.1l-.3.8h2.3c.1 0 .2.1.2.2v.8c0 .1 0 .1-.1.2l-.1.1h-2.7l-.3.8c0 .1-.1.1-.1.2-.1 0-.1.1-.2.1h-1.4c-.1 0-.1 0-.1-.1v-.1l.9-2.7c0-.1.1-.2.3-.2h1.5m-4.7-.3c.1 0 .1 0 .2.1l.1.1.4 1.4h1.2c.1 0 .2.1.2.2v.8c0 .1 0 .1-.1.2l-.1.1h-2.1v1.7h1.1c.2 0 .4 0 .6.1.2.1.3.2.4.3.1.1.2.3.2.4 0 .2.1.3.1.5v4.7c0 .3-.1.5-.3.7-.1.1-.2.1-.3.2-.1 0-.3.1-.4.1h-.7c-.1 0-.2-.1-.2-.2l-.3-.9c0-.1 0-.2.1-.2h.2v-4.6h-.6v3.8c0 .1 0 .2-.1.3l-.6 1.4c0 .1-.1.1-.1.1-.1 0-.1.1-.2.1h-1l.7.6H57s.1 0 .1.1v.1l-.5.9c-.1.1-.1.2-.3.2h-8.1c-.2 0-.3 0-.5-.1-.1 0-.3-.1-.4-.2l-1.1-1-.9 1.1c-.1.1-.1.1-.2.1h-1.9c-.1 0-.1 0-.1-.1v-.1l1.9-2.4v-2.5h-1.6l-.1-.1v-1.1c0-.1 0-.1.1-.1l1.4-2.6h-1.5l-.1-.1v-.9c0-.1.1-.2.2-.2h3.2c.1 0 .2.1.2.2v.9c0 .1-.1.1-.1.2l-1.5 2.7h.8c.3 0 .5.1.6.3.1.2.2.4.2.6v3.1l.2.2.6-1.6v-6.8H47l-.1-.1v-.9c0-.1.1-.2.2-.2h1.4l-.4-1.4v-.1l.1-.1h1.5m-4.6 0c.1 0 .2 0 .3.1l1.3 2.2v.1s0 .1-.1.1H45c-.1 0-.2-.1-.3-.2l-1.2-2.2v-.1l.1-.1h1.5M56.3 80c.1 0 .2.1.2.2v1.1c0 .1-.1.1-.2.2l-1.2 1.3v.7h1.4c.1 0 .2.1.2.2v.8c0 .1 0 .1-.1.2l-.1.1h-1.4V87c0 .4-.1.8-.3 1-.2.2-.5.3-.9.3h-1.1c-.1 0-.2-.1-.2-.2l-.3-.9c0-.1 0-.2.1-.2h1v-2.3h-1.3l-.1-.1v-.9c0-.1.1-.2.2-.2h1.3v-.6c0-.3.1-.5.2-.6l.9-1h-2.3l-.1-.1v-.9c0-.1.1-.2.2-.2h3.9m-1.9-3.9H53c-.3 0-.5.2-.6.5l-.5 1.3c-.1-.1-.3-.2-.4-.2h-.9l-.3-1.2c-.1-.1-.1-.2-.2-.3-.1-.1-.2-.1-.4-.1h-1.3c-.2 0-.3.1-.4.2-.1.1-.1.3-.1.4l.3 1h-.9c-.2 0-.4.1-.5.3l-.9-1.6c-.1-.1-.2-.3-.6-.3h-1.6c-.2 0-.3.1-.4.2-.1.1-.1.3 0 .5l1.3 2.2c.1.1.1.2.3.3h-1.2c-.3 0-.5.2-.5.5v.9c0 .1.1.3.2.4.1.1.2.1.4.1h.8l-1.1 2c0 .1-.1.1-.1.2s-.1.2-.1.3v.9c0 .1.1.3.2.4.1.1.2.1.4.1H45v2l-1.8 2.3c-.1.1-.1.3-.1.4.1.2.2.3.4.3h1.9c.2 0 .4-.1.5-.3l.6-.8.8.7c.2.2.4.3.6.3.2 0 .4.1.6.1h8.1c.3 0 .5-.1.6-.4l.5-.9c0-.1.1-.2 0-.4-.1-.1-.2-.2-.4-.2h-2.1c.1-.1.2-.1.3-.2.3-.3.5-.7.5-1.2v-1.8h1.1c.1 0 .3-.1.4-.2.1-.1.2-.2.2-.4v-.8c0-.3-.2-.6-.6-.6H56V83l1.1-1.2c.1-.1.2-.2.2-.3.1-.1.1-.3.1-.4v-.8c0-.3-.2-.6-.6-.6H54l.2-.5h2.5c.1 0 .3-.1.4-.2.1-.1.2-.2.2-.4v-.8c0-.3-.2-.6-.6-.6h-1.8l.1-.3c.1-.2 0-.3-.1-.5-.2-.1-.3-.2-.5-.2zm-8.6 7.1l1.2-2.1c0-.1.1-.1.1-.2s.1-.2.1-.3v-.9h.3v6.3l-.1.2v-1.7c0-.3-.1-.6-.3-.9-.2-.3-.5-.4-.9-.4h-.4zm3.9-3.5h1.7s0 .1.1.1c.1.1.2.2.3.2v1c0 .1.1.3.2.4.1.1.2.1.4.1h1.3l-.4.4c-.2.2-.3.5-.3.9v.2h-1v-.7c0-.2 0-.4-.1-.6 0-.2-.1-.4-.3-.6-.1-.2-.3-.3-.5-.4-.2-.1-.4-.1-.7-.1h-.7v-.9zm2.3 6.9V85h1v1.5h-.6c-.2.1-.3.2-.4.2zm-2.4-.1zm1.8 1.7c.1 0 .1-.1.2-.1.2-.2.4-.5.4-.8l.2.7c0 .1 0 .1.1.2h-.9zm-2.6 0l.3-.3.1-.3.2.5c0 .1 0 .1.1.2h-.7v-.1z"/><path class="st2" d="M70 90.1c-.4 0-.7-.1-1-.3l-.3-.3c-.1-.1-.1-.3-.2-.4v-.2l-.7 1.1c0 .1-.1.2-.4.2H66c-.1 0-.2 0-.3-.2-.1-.1-.1-.2 0-.3l.1-.1-5.1.5c-.1 0-.2 0-.3-.1-.1-.1-.1-.2-.1-.3v-.4l-.2.6s0 .1-.1.1-.1.1-.2.1h-1.7c-.1 0-.2 0-.2-.1-.1-.1-.1-.2 0-.3l.7-1.7v-8.3c0-.3.1-.6.4-.8.3-.2.5-.3.9-.3h1.5V77c0-.2.1-.3.1-.3.1-.1.2-.1.3-.1H63c.1 0 .2 0 .3.1.1.1.2.2.2.3v.3H66c.3 0 .4.2.4.4v.3c0 .1 0 .2-.1.2-.1.1-.2.1-.3.1h-2.5v.2h1.9c.2 0 .4.1.6.2.2.2.3.4.3.6v1.1c0 .1 0 .2-.1.3h.1l.7-.1-.6-3.7c0-.1 0-.2.1-.3.1-.1.2-.1.3-.1h1.5c.2 0 .4.1.4.3l.6 3.6 2.4-.3c.1 0 .2 0 .2.1.1.1.1.2.1.3v.8c0 .2-.1.4-.3.4l-2.2.3.2 1.1.3-.5c.1-.2.3-.3.5-.3h1.3c.1 0 .2 0 .3.2.1.1.1.2 0 .3l-1.8 3.1.5 2.7H72c.1 0 .2.1.3.2v.3l-.4.9c0 .1-.1.2-.4.2H70zm-9.3-2.3v.5c0 .1-.1.3-.1.4l-.1.2c.1 0 .1-.1.2-.1l.7-.1-.3-.9v-.3c.1-.1.2-.2.3-.2h1.4c.1 0 .1 0 .2.1.1 0 .1.1.1.1l.4.8.3-.8c0-.1.1-.1.2-.2s.1-.1.2-.1h1.4c.1 0 .2.1.3.2 0 0 .1.2 0 .3l-.2.4h.5c.1 0 .2 0 .3.1l.1.1 1.5-2.5-.7-3.8-1 .1c-.1 0-.2 0-.3-.1-.1 0-.1-.1-.1-.2v-.9c0-.1 0-.1.1-.2h-.6v.1c0 .2-.1.4-.4.4l-1.7.1v.3h2.2c.1 0 .2.1.3.1.1.1.1.2 0 .3l-.2.5c-.1.2-.2.3-.4.3h-2.8c-.4 0-.6-.1-.9-.4-.2-.2-.3-.5-.3-.8v-.2h-.6v1.5H66c.2 0 .4.1.4.3v.5c0 .1 0 .2-.2.3-.1 0-.1.1-.2.1h-5.3v3.7zm0-7.7h.6v-.4h-.6v.4zm2.8-.1h.8v-.3h-.8v.3zm-1.7 7.4c-.3 0-.5-.1-.6-.2-.2-.2-.3-.4-.3-.7v-1.2c0-.3.1-.5.3-.7.2-.2.4-.3.7-.3h3.2c.3 0 .6.1.8.3.2.2.3.5.3.7v1.1c0 .3-.1.5-.3.7-.2.2-.4.3-.7.3h-3.4zm2.5-1.2v-.7h-1.5v.7h1.5zm5.9-6.4c-.2 0-.4-.1-.4-.3l-.4-2.1c0-.1 0-.2.1-.3.1-.1.2-.1.2-.1H71c.2 0 .4.1.4.3l.4 2.1v.3c-.1.1-.2.2-.3.2h-1.3z"/><path class="st3" d="M68.3 76.6c.1 0 .2.1.2.2l.6 3.7 2.6-.3h.1l.1.1v.8c0 .1-.1.2-.2.2l-2.4.3.3 1.8.6-.9c.1-.1.2-.2.3-.2h1.3c.1 0 .1 0 .1.1v.2L70 85.8l.5 2.9H72c.1 0 .1 0 .1.1v.1l-.4.9c0 .1-.1.1-.2.1H70c-.4 0-.7-.1-.9-.3-.1-.1-.2-.2-.2-.3-.1-.1-.1-.2-.1-.4l-.1-.7-.9 1.5c0 .1-.1.1-.2.1h-1.4c-.1 0-.1 0-.1-.1v-.1l.2-.4-5.4.5h-.1s-.1-.1-.1-.2V89c0-.1.1-.2.2-.2l.9-.1-.4-1.1v-.1l.1-.1H63l.1.1.4.9h.2l.4-.9.1-.1h1.5s.1 0 .1.1v.1l-.3.7.8-.1h.1l.1.1v.7l1.8-3.1-.7-4-1.2.1s-.1 0-.1-.1l-.1-.1v-.9c0-.1 0-.1.1-.1l.1-.1.9-.1-.7-3.9v-.1l.1-.1h1.6m-5.3.1c.1 0 .1 0 .2.1.1 0 .1.1.1.2v.5H66c.1 0 .2.1.2.2v.5l-.1.1h-2.7v.5h2.1c.2 0 .3.1.5.2s.2.3.2.5v1.1c0 .1 0 .1-.1.2 0 .1-.1.1-.2.1h-.5v.3c0 .1-.1.2-.2.2l-1.9.1v.6h2.4c.1 0 .1 0 .1.1v.1l-.2.5c-.1.1-.1.2-.2.2h-2.8c-.3 0-.5-.1-.7-.3-.2-.2-.3-.4-.3-.7v-.4h-.9v1.9H66c.1 0 .2.1.2.2v.5c0 .1 0 .1-.1.2h-5.6v4.2c0 .1-.1.2-.1.3l-.4 1-.1.1h-1.8s-.1 0-.1-.1v-.1l.7-1.7v-8.4c0-.3.1-.5.3-.7.2-.2.5-.2.7-.2h1.7v-1.8c0-.1 0-.1.1-.2.1 0 .1-.1.2-.1H63m.3 3.6h1.1v-.7h-1.1v.7m-2.7.1h.9v-.8h-.9v.8M71 77.1c.1 0 .2.1.2.2l.4 2.1v.2c0 .1-.1.1-.2.1h-1.3c-.1 0-.2-.1-.2-.2l-.4-2.1v-.1l.1-.1H71m-5.9 7.2c.3 0 .5.1.6.3.2.2.2.4.2.6v1.1c0 .2-.1.4-.2.6-.2.2-.3.2-.6.2h-3.4c-.2 0-.4-.1-.5-.2-.2-.1-.3-.3-.3-.6v-1.2c0-.2.1-.4.2-.5.2-.2.4-.3.6-.3h3.4m-2.4 2h1.8v-1h-1.8v1m5.6-10.2h-1.5c-.2 0-.3.1-.4.2-.1.1-.1.3-.1.4v.1c-.1 0-.2-.1-.3-.1h-2.3v-.1c0-.2-.1-.3-.2-.4-.1-.1-.3-.1-.4-.1h-1.3c-.1 0-.2 0-.4.1-.1.1-.2.3-.2.5v1.4h-1.4c-.4 0-.7.1-1 .3-.3.3-.5.6-.5 1v8.3l-.6 1.7c-.1.1-.1.3.1.5.1.1.2.2.4.2h1.7c.1 0 .2 0 .3-.1.1-.1.2-.1.2-.2.1.1.2.2.4.2h.1l4.7-.5c0 .1 0 .2.1.3.1.2.3.3.4.3h1.4c.2 0 .4-.1.6-.3l.4-.7c0 .1.1.2.1.3.1.1.2.2.3.4.3.2.7.4 1.1.4h1.6c.3 0 .5-.2.5-.4l.3-.9c0-.1.1-.2 0-.3-.1-.2-.2-.3-.4-.3h-1.2l-.4-2.5 1.8-3.1c.1-.2.1-.3 0-.5s-.2-.3-.4-.3h-1.3c-.3 0-.5.1-.6.4l-.1.1V82l2-.2c.3 0 .5-.2.5-.6v-.8c0-.2-.1-.3-.2-.4-.1-.1-.2-.1-.2-.1.1 0 .1-.1.1-.2.1-.1.1-.3 0-.4l-.4-2c0-.3-.3-.5-.6-.5h-1.4c-.1 0-.2 0-.4.2-.1.1-.2.3-.1.5l.4 2.1c0 .3.3.5.6.5h.3l-1.1.1-.6-3.4c.1-.4-.1-.6-.4-.6zm-2.2 2.3c.1 0 .3-.1.3-.2l.1-.1.4 2.1h-.3v-1.1c-.1-.1-.2-.4-.5-.7zm-5.2 1.4h.2v.1l-.2-.1zm4.8 1.1h.1v.4h-.5c.3-.1.4-.2.4-.4zm-4.8.5h.2c0 .4.1.7.4 1l.2.2h-.8v-1.2zm4.9 1.2s0-.1.1-.1l.2-.4c.1.1.2.1.3.1h.1l.7-.1.6 3.5-1.4 2.3c-.1 0-.2-.1-.3-.1h-.3l.1-.2c0-.1.1-.2 0-.4 0 0 0-.1-.1-.1.1 0 .1-.1.2-.1.2-.2.3-.5.3-.8v-1.1c0-.3-.1-.6-.3-.9l-.2-.2h.2c.1 0 .2-.1.2-.1.2-.1.3-.3.3-.5V83c0-.3-.2-.5-.6-.5h-.1v.2zm-4.9 1.6h.3c-.1 0-.1.1-.2.2l-.1.1v-.3zm2.1 1.4h1.1v.3H63v-.3zm-2.1 1.9v-.4c0 .1.1.1.2.1-.1.1-.1.1-.2.3.1-.1 0-.1 0 0zm2.4 0h.3l-.1.4-.2-.4zm-2.5 1c0-.1 0-.2.1-.3v-.4l.2.6-.3.1z"/><path class="st2" d="M43.3 106.2c-.1 0-.2-.1-.3-.2-.1-.2 0-.3.1-.3l4.3-3.4h-3.5c-.1 0-.2 0-.2-.1-.1-.1-.1-.2-.1-.3v-.9c0-.1 0-.2.1-.3.1 0 .1-.1.2-.1H49v-.6h-5.4c-.1 0-.2 0-.2-.1-.1-.1-.1-.1-.1-.2v-.9c0-.1 0-.2.1-.3.1 0 .1-.1.2-.1H49v-.7h-4.6c-.1 0-.2 0-.2-.1-.1-.1-.1-.2-.1-.3v-.9c0-.1 0-.2.1-.3.1 0 .1-.1.2-.1H49v-.7h-5.1c-.1 0-.2 0-.2-.1-.1-.1-.1-.2-.1-.3V94c0-.1 0-.2.1-.3.1 0 .1-.1.2-.1h2.5l-.7-1c-.1-.1 0-.2 0-.3.1-.1.1-.2.3-.2h1.9c.1 0 .2.1.3.2l.9 1.3h2.3l.9-1.3c.1-.1.2-.2.3-.2h1.9c.1 0 .2.1.3.2 0 0 .1.2 0 .3l-.7 1h2.4c.1 0 .2 0 .2.1.1.1.1.2.1.3v.8c0 .2-.1.2-.1.3-.1.1-.2.1-.3.1h-5v.7H56c.1 0 .2 0 .2.1.1.1.1.2.1.3v.8c0 .2-.1.2-.1.3-.1.1-.2.1-.3.1h-4.6v.7h5.4c.1 0 .2 0 .2.1.1.1.1.2.1.3v.8c0 .2-.1.2-.1.3-.1.1-.2.1-.3.1h-5.4v.7h5c.1 0 .2 0 .2.1.1.1.1.2.1.3v.8c0 .2-.1.2-.1.3-.1.1-.2.1-.3.1h-5.3l-.3.2H52c.1 0 .2 0 .3.1l4.7 3.1c.1.1.1.2.1.3 0 .1-.1.2-.3.2h-2.7c-.1 0-.1 0-.2-.1l-4.3-2.8-3.6 2.8c-.1 0-.1.1-.2.1h-2.5z"/><path class="st3" d="M54.2 92.7c.1 0 .1 0 0 0 .1.1.1.1.1.2l-.9 1.3h2.8l.1.1v.8c0 .1 0 .1-.1.2l-.1.1H51v1h4.9l.1.1v.8c0 .1 0 .1-.1.2l-.1.1H51v1.1h5.6l.1.1v.8c0 .1 0 .1-.1.2l-.1.1H51v1.1h5.3l.1.1v.8c0 .1 0 .1-.1.2l-.1.1h-5.4l-.7.6H52c.1 0 .2 0 .3.1L57 106v.1c0 .1-.1.1-.1.1h-2.7l-4.4-2.9-3.7 2.9h-2.7c-.1 0-.1 0-.1-.1v-.1l4.7-3.7h-4.2l-.1-.1v-.9c0-.1 0-.1.1-.1H49v-1.1h-5.7l-.1-.1v-.9c0-.1 0-.1.1-.1H49v-1.1h-4.9l-.1-.1v-.9c0-.1 0-.1.1-.1H49v-1h-5.4l-.1-.1v-.9c0-.1 0-.1.1-.1h2.9l-.9-1.3v-.1l.1-.1h1.9c.1 0 .1 0 .2.1l.9 1.3h2.5l1-1.3c.1-.1.1-.1.2-.1h1.8m0-.9h-1.9c-.1 0-.3 0-.5.3l-.8 1.2h-2.1l-.8-1.2c-.2-.2-.4-.3-.5-.3h-1.9c-.2 0-.3.1-.4.3-.1.2-.1.3 0 .4l.5.8h-2.1c-.1 0-.2 0-.3.1-.1.1-.2.2-.2.4v.9c0 .2.1.3.2.4.1.1.2.1.4.1h4.9v.3h-4.5c-.1 0-.2 0-.3.1-.1.1-.2.2-.2.4v.9c0 .2.1.3.2.4.1.1.2.1.4.1h4.4v.4h-5.2c-.1 0-.2 0-.3.1-.1.1-.2.2-.2.4v.9c0 .2.1.3.2.4.1.1.2.1.4.1h5.2v.4h-4.9c-.1 0-.2 0-.3.1-.1.1-.2.2-.2.4v.9c0 .2.1.3.2.4.1.1.2.1.4.1h3l-3.9 3.1c-.1.1-.2.3-.1.5s.2.3.4.3h2.7c.1 0 .2-.1.2-.1l3.5-2.8 4.2 2.8c.1 0 .1.1.2.1h2.7c.2 0 .4-.1.4-.3.1-.2 0-.4-.2-.5l-4.6-3h3.6c.1 0 .3 0 .4-.1.1-.1.2-.2.2-.4v-.8c0-.2-.1-.3-.2-.4-.1-.1-.2-.1-.3-.1h-4.8v-.4h5.2c.1 0 .3 0 .4-.1.1-.1.2-.2.2-.4v-.8c0-.2-.1-.3-.2-.4-.1-.1-.2-.1-.3-.1h-5.2v-.4h4.4c.1 0 .3 0 .4-.1.1-.1.2-.3.2-.4v-.8c0-.2-.1-.3-.2-.4-.3-.5-.4-.5-.6-.5h-4.4v-.3h4.9c.1 0 .3 0 .4-.1.1-.1.2-.2.2-.4v-.8c0-.2-.1-.3-.2-.4-.1-.1-.2-.1-.3-.1h-2.1l.5-.7c0-.1.1-.2 0-.4-.1-.4-.3-.5-.5-.5z"/><path class="st2" d="M68.6 106.1h-.2c-.1 0-.2-.1-.2-.3l-.3-.9v-.3h-.8c-.3 0-.6-.1-.8-.4-.2-.2-.3-.5-.3-.8v-5.9c0-.1 0-.2.1-.3.1-.1.2-.1.3-.1h.9c.1 0 .2 0 .3.1v-.6s0 .1-.1.1c-.1.1-.2.1-.3.1h-1.5v8.8c0 .1 0 .2-.1.3-.1.1-.2.1-.3.1h-1.5c-.1 0-.2 0-.3-.1-.1-.1-.1-.2-.1-.3v-8.8h-1.6c-.2 0-.3-.1-.3-.3v-.2l-1 2.6c.1 0 .2 0 .3.1.1.1.1.2.1.2v4.9l.6-1.8v-4.8c0-.1.1-.2.1-.3.1-.1.2-.1.2-.1h1c.1 0 .2 0 .2.1.1.1.1.2.1.3v5.3c0 .1 0 .2-.1.3l-.4 1.2c0 .2-.2.3-.4.3H61c-.1 0-.2-.1-.3-.1v1.1c0 .1 0 .2-.1.2-.1.1-.2.2-.3.2h-1.5c-.1 0-.2 0-.3-.1-.1-.1-.1-.2-.1-.3v-5.7h-.6c-.1 0-.2-.1-.3-.1-.1-.1-.1-.2 0-.3l1.3-3.3h-1c-.1 0-.2-.1-.3-.2v-.3l1.3-3.1c.1-.2.3-.3.5-.3h1.6c.1 0 .2 0 .3.1 0 0 .2.2.1.4l-1.1 2.6h.7c.1 0 .2 0 .3.1 0-.2.1-.3.3-.3h1.6v-2.5c0-.1 0-.2.1-.2.1-.1.2-.1.3-.1H65c.1 0 .2 0 .2.1.1.1.1.2.1.3v.1c.1-.1.1-.1.2-.1H67c.2 0 .3.1.4.3l.3 1.9c0 .1 0 .2-.1.3l-.1.1c.2 0 .3.2.3.4v.7s0-.1.1-.1c.1-.1.2-.1.2-.1h3.7c.2 0 .4.2.4.4v.8c0 .1 0 .2-.1.3-.1.1-.2.1-.3.1h-.5v7.2c0 .1 0 .3-.1.4-.1.1-.1.3-.2.4-.1.1-.2.2-.3.2-.1.1-.3.1-.4.1h-1.7zm.4-1.5v-6.7h-.9c-.1 0-.2 0-.2-.1v5.4h.6c.1 0 .2 0 .3.2.1.1.1.2 0 .3l-.4.9s0 .1-.1.1h.7zm-2.7-9.3l-.2-.2-.2-1.3v1.6h.4zm2-.9c-.1 0-.2 0-.2-.1-.1-.1-.1-.1-.1-.2v-.9c0-.1 0-.2.1-.3.1 0 .1-.1.2-.1h3.3c.2 0 .4.2.4.4v.8c0 .2-.1.2-.1.3-.1.1-.2.1-.3.1h-3.3z"/><path class="st3" d="M65.6 92.7s.1 0 .1.1l.1.1v2.7h1.7c.1 0 .2.1.2.2v.8c0 .1 0 .1-.1.2l-.1.1h-1.7v9c0 .1 0 .1-.1.1l-.1.1h-1.5c-.1 0-.1 0-.1-.1l-.1-.1v-9h-1.8c-.1 0-.2-.1-.2-.2v-.9c0-.1.1-.2.2-.2h1.8v-2.8l.1-.1h1.6m-4 0c.1 0 .1 0 .2.1 0 0 .1.1 0 .2l-1.2 2.9h1c.1 0 .1 0 .2.1 0 0 .1.1 0 .2l-1.2 3.2h.3c.1 0 .1 0 .1.1v6.5l-.1.1h-1.5c-.1 0-.1 0-.1-.1l-.1-.1v-5.8h-.8c-.1 0-.1 0-.1-.1v-.1l1.4-3.6h-1.2c-.1 0-.1 0-.1-.1v-.1l1.3-3.1c.1-.1.2-.2.4-.2h1.5m5.4.2c.1 0 .2 0 .2.1l.3 1.9v.1l-.1.1h-.8c-.1 0-.2-.1-.2-.2l-.4-1.8v-.1l.1-.1h.9m4.5 0c.1 0 .2.1.2.2v.8c0 .1 0 .1-.1.2l-.1.1h-3.4l-.1-.1v-.9c0-.1 0-.1.1-.1h3.4m.3 3.3c.1 0 .2.1.2.2v.8c0 .1 0 .1-.1.1l-.1.1H71v7.3c0 .1 0 .2-.1.3-.1.1-.1.2-.2.3-.1.1-.2.1-.3.2-.1.1-.2.1-.3.1h-1.6l-.1-.1-.3-.9c0-.1 0-.2.1-.2h1v-7.1h-1.1c-.1 0-.1 0-.1-.1s-.1-.1-.1-.1v-.8c0-.1 0-.1.1-.1h3.8m-4.4.9c.1 0 .1 0 .2.1.1 0 .1.1.1.2v5.6h.8s.1 0 .1.1v.1l-.4.9c0 .1-.1.1-.2.1h-.8c-.3 0-.5-.1-.6-.3-.1-.2-.2-.4-.2-.7v-5.9c0-.1 0-.1.1-.2 0-.1.1-.1.2-.1h.7m-4.2.1s.1 0 .1.1l.1.1v5.3c0 .1 0 .2-.1.3l-.4 1.2c0 .1-.1.2-.2.2h-1.2c-.1 0-.1 0-.1-.1v-.1l.7-1.9v-4.9c0-.1 0-.1.1-.1l.1-.1h.9m2.4-5.1h-1.5c-.2 0-.3.1-.4.2-.1.1-.1.2-.1.4v2.3h-1.4c-.2 0-.4.1-.5.3h-.5l1-2.4c.1-.2 0-.5-.1-.6-.1-.1-.3-.2-.4-.2H60c-.3 0-.6.1-.7.4L58 95.8c-.1.1-.1.3 0 .4.1.2.2.3.4.3h.7l-1.2 3.1c-.1.1-.1.3 0 .4.1.1.2.2.4.2h.4v5.5c0 .1 0 .3.1.4.1.1.3.2.4.2h1.5c.2 0 .3-.1.4-.3.1-.1.1-.2.1-.3v-.7h1.3c.3 0 .5-.2.6-.5l.4-1v2.3c0 .1 0 .3.1.4.1.1.3.2.4.2h1.5c.2 0 .3-.1.4-.2.1-.1.1-.2.1-.4v-1.4c0 .1.1.1.1.2.2.3.5.4.9.4h.6v.1l.3.9c.1.2.2.3.3.4H70c.2 0 .3 0 .5-.1.1-.1.3-.2.4-.3.1-.1.2-.3.3-.4.1-.2.1-.3.1-.5v-7h.4c.1 0 .3 0 .4-.1.1-.1.2-.3.2-.4v-.8c0-.3-.2-.6-.6-.6h-3.8v-.4c0-.2-.1-.3-.2-.4 0-.1.1-.2 0-.3l-.3-1.9c-.1-.3-.3-.4-.5-.4H66c0-.1-.1-.1-.1-.2-.1-.2-.2-.3-.3-.3zM61 98.9l.7-1.9c.1.1.2.1.3.1-.1 0-.2.1-.3.1-.1.1-.2.2-.2.4v4.8l-.3.8v-3.8c0-.1 0-.3-.1-.4.1 0 0-.1-.1-.1zm6.5-1.8zm-1.4 0h.3c-.1 0-.2.1-.3.2v-.2zm-2.8 0h.2v.1s-.1-.1-.2-.1zM68 103v-5h.9v5.2c-.1-.2-.2-.2-.4-.2H68zm.6 1.4l.3-.7v.7h-.3zm2.9-11.7h-3.3c-.1 0-.2 0-.3.1-.1.1-.2.2-.2.4v.9c0 .1.1.3.2.4.1.1.2.1.4.1h3.3c.1 0 .3 0 .4-.1.1-.1.2-.2.2-.4v-.8c-.1-.4-.4-.6-.7-.6z"/><path class="st4" d="M67.3 0H47.9L34.2 13.7v19.4l13.7 13.6h19.4L81 33.1V13.7z"/><path class="st7" d="M56.3 22.1H41.9l-.1-.1v-1c0-.1 0-.1.1-.1h6.2v-3.5h-5l-.1-.1v-1c0-.1 0-.1.1-.1h12.3l.1.1v1c0 .1-.1.2-.2.2h-4.9V21h6.2c.1 0 .1.1.1.1v1c-.3-.1-.3-.1-.4 0zm-.1-9.9c-.1.1-.1.1-.2.1h-1.6c-.2 0-.3-.1-.3-.3v-1.8h-2.6v3.1H56c.1 0 .1 0 .1.1v.1l-.4 1c-.1.1-.1.2-.3.2h-4.7c-.5 0-.8-.1-1.1-.4-.2-.2-.3-.6-.3-1v-3.1H44v2c0 .2-.1.3-.3.3h-1.6c-.1 0-.1 0-.1-.1s-.1-.1-.1-.2V10c0-.3.1-.6.3-.8.2-.1.3-.2.4-.2.1-.1.3-.1.5-.1h5.3l-.6-1.1v-.1l.1-.1h2c.1 0 .2 0 .2.1l.6 1.1H55c.2 0 .3 0 .5.1.1.1.3.1.4.2.2.2.4.4.4.7V12c0 .1-.1.1-.1.2zm-11 2.5s-.1.1-.2.1-.2.1-.2.1h-2c-.1 0-.1 0-.1-.1v-.1l3.5-3.7.1-.1h2.3s.1 0 .1.1v.1l-3.5 3.6zm19.7-1.4c-.1.1-.3.2-.4.3s-.3.1-.5.1h-3.1V22s0 .1-.1.1h-1.9l-.1-.1V9c0-.3.1-.6.3-.8.2-.3.5-.4.8-.4h4.4c.3 0 .5.1.7.3.1.1.2.2.2.4.1.1.1.3.1.4v3.6c-.1.3-.2.6-.4.8zM63.1 9h-2.4v1.2h2.4V9zm0 2.3h-2.4v1.2h2.4v-1.2zm6.1 9.3c-.2.2-.4.3-.7.3h-5.2c-.2 0-.4 0-.6-.1-.2 0-.3-.1-.5-.2-.2-.2-.3-.5-.3-.9v-4.3c0-.3.1-.5.3-.7.2-.2.5-.3.8-.3h5.4c.4 0 .7.1.9.3.2.2.3.5.3.8v4.3c-.1.4-.2.7-.4.8zm-1.8-4.9h-3.5v1.4h3.5v-1.4zm0 2.6h-3.5v1.4h3.5v-1.4zm4.9 3.5c-.2.2-.6.3-1 .3h-1.8c-.1 0-.2 0-.2-.1l-.3-.9V21l.1-.1h1.4v-7.3h-3.3c-.4 0-.7-.1-.9-.3-.2-.2-.3-.5-.3-.9V8.9c0-.3.1-.5.3-.7.2-.3.5-.4.9-.4h4.2c.2 0 .3 0 .5.1.1 0 .3.1.4.3.2.2.3.5.3.8v11.8c0 .4-.1.7-.3 1zM70.6 9h-2.4v1.2h2.4V9zm0 2.4h-2.4v1.2h2.4v-1.2zm-22.9 16l-.1.1h-5.7l-.1-.1v-1c0-.1 0-.1.1-.1h1.9l-.5-1.1V25s.1-.1.2-.1h1.7c.2 0 .3.1.4.2l.5 1.2h1.7l.1.1v.9c-.2 0-.2.1-.2.1zm-.6 11.7c-.2.2-.4.2-.6.2h-3.8c-.2 0-.4 0-.5-.1-.2-.2-.3-.4-.3-.6v-3.9c0-.2.1-.4.3-.6.2-.2.4-.3.7-.3h3.6c.3 0 .5.1.7.3s.3.4.3.7v3.8c-.1.1-.2.3-.4.5zm.2-9.2l-.1.1h-5.1l-.1-.1v-1c0-.1 0-.1.1-.1h5.3c.1 0 .1.1.1.1v.9c-.1 0-.1.1-.2.1zm0 2.5l-.1.1h-5.1l-.1-.1v-1c0-.1 0-.1.1-.1h5.3c.1 0 .1.1.1.1v.9c-.1 0-.1 0-.2.1zm-2 2.6H44v3h1.3v-3zm11-4.2c0 .1-.1.1-.1.2h-2.4c-.3 0-.6-.1-.8-.4-.1-.2-.2-.4-.2-.7v-3.6h-2.1v2.8c0 .1-.1.2-.1.3l-.9 1.5c0 .1-.1.1-.2.1h-1.8c-.1 0-.1 0-.1-.1v-.2l1.1-1.9V26c0-.3.1-.6.3-.7.2-.2.4-.2.7-.2h4.2c.3 0 .6.1.8.3.2.2.3.4.3.7v3.7h1.4c.1 0 .1 0 .2.1 0 .1.1.1 0 .2l-.3.7zm.3 8.4c0 .1-.1.1-.1.1H54c-.1 0-.1-.1-.2-.1l-2-1.8-1.6 1.8c-.1.1-.2.2-.3.2h-2.1c-.1 0-.1 0-.1-.1v-.2l2.7-3-2.3-2.1v-.1c0-.1 0-.1.1-.1h2.6c.1 0 .1.1.2.1l.8.8 1.3-1.4h-4.9c-.1 0-.1 0-.1-.1l-.1-.1V32c0-.1 0-.1.1-.1l.1-.1h7.3c.2 0 .3.1.3.3v.9c0 .1-.1.2-.1.2l-2.5 2.7 3.4 3.1v.2zm8.5-11.8l-.1.1h-6.5l-.1-.1v-1c0-.1 0-.1.1-.1h2.3l-.5-1.1V25c0-.1.1-.1.2-.1h1.7c.2 0 .3.1.4.2l.5 1.2h2.1c.1 0 .1.1.1.1v.9c-.1 0-.1.1-.2.1zm-.4 11.7c-.2.2-.4.2-.6.2h-4.6c-.2 0-.4 0-.5-.1-.2-.2-.3-.4-.3-.6v-3.9c0-.2.1-.4.3-.6.2-.2.4-.3.7-.3H64c.3 0 .5.1.7.3s.3.4.3.7v3.8c-.1.1-.2.3-.3.5zm.1-9.2l-.1.1h-5.9l-.1-.1v-1c0-.1 0-.1.1-.1h6.1l.1.1v.9c-.1 0-.1.1-.2.1zm0 2.5l-.1.1h-5.9l-.1-.1v-1c0-.1 0-.1.1-.1h6.1l.1.1v.9c-.1 0-.1 0-.2.1zm-2 2.6h-2.1v3h2.1v-3zm10.1-3.3l-.1.1h-2.6v7.6c0 .1-.1.1-.1.1h-1.8c-.1 0-.1 0-.1-.1 0 0-.1-.1-.1-.2v-7.4h-2.7l-.1-.1v-1c0-.1 0-.1.1-.1H68v-5.7l.1-.1H70s.1 0 .1.1l.1.1v5.4H73c.1 0 .1.1.1.1v.9c-.1.2-.1.2-.2.3z"/><path class="st8" d="M55.8 21.5H41.4l-.1-.1v-1c0-.1 0-.1.1-.1h6.2v-3.5h-5l-.1-.1v-1c0-.1 0-.1.1-.1h12.3l.1.1v1c0 .1-.1.2-.2.2h-4.9v3.5h6.2c.1 0 .1.1.1.1v1c-.3-.1-.3-.1-.4 0zm-.1-9.9c-.1.1-.1.1-.2.1H54c-.2 0-.3-.1-.3-.3V9.6h-2.6v3.1h4.4c.1 0 .1 0 .1.1v.1l-.4 1c-.1.1-.1.2-.3.2h-4.7c-.5 0-.8-.1-1.1-.4-.2-.2-.3-.6-.3-1V9.6h-5.5v2c0 .2-.1.3-.3.3h-1.6c-.1 0-.1 0-.1-.1s-.1-.1-.1-.2V9.5c0-.3.1-.6.3-.8.1-.1.2-.2.4-.3.1-.1.3-.1.5-.1h5.3l-.6-1.1v-.1l.1-.1h2c.1 0 .2 0 .2.1l.6 1.1h4.3c.2 0 .3 0 .5.1.1.1.3.1.4.2.2.2.4.4.4.7v2.1c.2.2.1.3.1.3zm-11 2.5s-.1.1-.2.1-.2.1-.2.1h-2c-.1 0-.1 0-.1-.1v-.1l3.5-3.7.1-.1h2.3s.1 0 .1.1v.1l-3.5 3.6zm19.7-1.4c-.1.1-.3.2-.4.3s-.3.1-.5.1h-3.1v8.3s0 .1-.1.1h-1.9l-.1-.1v-13c0-.3.1-.6.3-.8.2-.3.5-.4.8-.4h4.4c.3 0 .5.1.7.3.1.1.2.2.2.4.1.1.1.3.1.4v3.6c-.1.3-.2.6-.4.8zm-1.8-4.3h-2.4v1.2h2.4V8.4zm0 2.3h-2.4v1.2h2.4v-1.2zm6.1 9.4c-.2.2-.4.3-.7.3h-5.2c-.2 0-.4 0-.6-.1-.2 0-.3-.1-.5-.2-.2-.2-.3-.5-.3-.9v-4.3c0-.3.1-.5.3-.7.2-.2.5-.3.8-.3h5.4c.4 0 .7.1.9.3.2.2.3.5.3.8v4.3c-.1.3-.2.6-.4.8zm-1.8-5h-3.5v1.4h3.5v-1.4zm0 2.6h-3.5v1.4h3.5v-1.4zm4.9 3.5c-.2.2-.6.3-1 .3H69c-.1 0-.2 0-.2-.1l-.3-.9v-.1l.1-.1H70V13h-3.3c-.4 0-.7-.1-.9-.3-.2-.2-.3-.5-.3-.9V8.3c0-.3.1-.5.3-.7.2-.3.5-.4.9-.4h4.2c.2 0 .3 0 .5.1s.3.2.4.3c.2.2.3.4.3.8v11.8c0 .4-.1.8-.3 1zM70.1 8.4h-2.4v1.2h2.4V8.4zm0 2.4h-2.4V12h2.4v-1.2zm-22.9 16l-.1.1h-5.7l-.1-.1v-1c0-.1 0-.1.1-.1h1.9l-.5-1.1v-.2s.1-.1.2-.1h1.7c.2 0 .3.1.4.2l.5 1.2h1.6l.1.1v.9c-.1 0-.1.1-.1.1zm-.6 11.7c-.2.2-.4.2-.6.2h-3.8c-.2 0-.4 0-.5-.1-.2-.2-.3-.4-.3-.6v-4c0-.2.1-.4.3-.6.2-.2.4-.3.7-.3H46c.3 0 .5.1.7.3s.3.4.3.7v3.8c-.1.2-.2.4-.4.6zm.2-9.2l-.1.1h-5.1l-.1-.1v-1c0-.1 0-.1.1-.1h5.3c.1 0 .1.1.1.1v.9c-.1 0-.1.1-.2.1zm0 2.5l-.1.1h-5.1l-.1-.1v-1c0-.1 0-.1.1-.1h5.3c.1 0 .1.1.1.1v.9c-.1 0-.1 0-.2.1zm-2 2.6h-1.3v3h1.3v-3zm11-4.2c0 .1-.1.1-.1.2-.1 0-.1.1-.2.1h-2.2c-.3 0-.6-.1-.8-.4-.1-.2-.2-.4-.2-.7v-3.6h-2.1v2.8c0 .1-.1.2-.1.3l-.9 1.5c-.1.1-.1.1-.2.1h-1.8c-.1 0-.1 0-.1-.1v-.2l1.1-1.9v-2.9c0-.3.1-.6.3-.7.2-.2.4-.2.7-.2h4.2c.3 0 .6.1.8.3.2.2.3.4.3.7v3.7h1.4c.1 0 .1 0 .2.1 0 .1.1.1 0 .2l-.3.7zm.3 8.4c0 .1-.1.1-.1.1h-2.5c-.1 0-.1-.1-.2-.1l-2-1.8-1.6 1.8c-.1.1-.2.2-.3.2h-2.1c-.1 0-.1 0-.1-.1v-.2l2.7-3-2.3-2.1v-.1c0-.1 0-.1.1-.1h2.6c.1 0 .1.1.2.1l.8.8 1.3-1.4h-4.9c-.1 0-.1 0-.1-.1l-.1-.1v-.9c0-.1 0-.1.1-.1l.1-.1H55c.2 0 .3.1.3.3v.9c0 .1-.1.2-.1.2l-2.5 2.7 3.4 3.1c0-.1 0 0 0 0zm8.5-11.8l-.1.1H58l-.1-.1v-1c0-.1 0-.1.1-.1h2.3l-.5-1.1v-.2c0-.1.1-.1.2-.1h1.7c.2 0 .3.1.4.2l.5 1.2h2.1c.1 0 .1.1.1.1v.9c-.1 0-.1.1-.2.1zm-.4 11.7c-.2.2-.4.2-.6.2H59c-.2 0-.4 0-.5-.1-.2-.2-.3-.4-.3-.6v-4c0-.2.1-.4.3-.6.2-.2.4-.3.7-.3h4.4c.3 0 .5.1.7.3s.3.4.3.7v3.8c-.2.2-.3.4-.4.6zm.1-9.2l-.1.1h-5.9l-.1-.1v-1c0-.1 0-.1.1-.1h6.1l.1.1v.9c-.1 0-.1.1-.2.1zm0 2.5l-.1.1h-5.9l-.1-.1v-1c0-.1 0-.1.1-.1h6.1l.1.1v.9c-.1 0-.1 0-.2.1zm-2 2.6h-2.1v3h2.1v-3zm10.1-3.3l-.1.1h-2.6v7.6c0 .1-.1.1-.1.1h-1.8c-.1 0-.1 0-.1-.1 0 0-.1-.1-.1-.2v-7.4h-2.7l-.1-.2v-1c0-.1 0-.1.1-.1h2.7v-5.5l.1-.1h1.8s.1 0 .1.1l.1.1v5.4h2.8c.1 0 .1.1.1.1v.9c-.1.1-.1.2-.2.2z"/><path class="st5" d="M101.7 33.8H82.3L68.6 47.5v19.4l13.7 13.7h19.4l13.7-13.7V47.5z"/><path class="st9" d="M81.8 51.1c-.1.1-.3.2-.5.2h-4.4c-.1 0-.2 0-.2-.1s-.2-.2-.2-.2v-.9c0-.1.1-.2.1-.3l2.8-3.3h-2.7c-.1 0-.1 0-.2-.1s-.1-.1-.1-.2v-.8c0-.1.1-.1.1-.2l3-3.5.1-.1h1.9c.1 0 .1 0 .1.1v.2l-2.9 3.5h2.7c.1 0 .1 0 .2.1s.1.1.1.2v.9c0 .1-.1.2-.1.2L78.9 50h1.5v-1c0-.1 0-.2.1-.2.1-.1.1-.1.2-.1h1c.1 0 .1 0 .2.1s.1.1.1.2v1.5c0 .2-.1.4-.2.6zm-3.7 4.8l-.1.1h-1.1c-.1 0-.1 0-.1-.1s-.1-.1-.1-.2V52l.1-.1H78s.1 0 .1.1l.1.1v3.6c0 .1 0 .1-.1.2zm1.9 0l-.1.1h-1.2c-.1 0-.1 0-.1-.1V52l.1-.1h1.2c.1 0 .1 0 .1.1v3.7c.1.1 0 .1 0 .2zm1.9 0l-.1.1h-1.2c-.1 0-.1 0-.1-.1V52l.1-.1h1.2c.1 0 .1 0 .1.1v3.7c.1.1.1.1 0 .2zm8.7-.2c-.2.2-.5.3-.8.3h-2.3l-.1-.1-.3-.9v-.2c0-.1.1-.1.1-.1H89V50h-2v2.2h1.5c.1 0 .1 0 .1.1v.1l-.2.8c0 .1-.1.2-.2.2h-1.9c-.3 0-.5-.1-.7-.3-.2-.2-.3-.5-.3-.8V50h-.7v5.7c0 .1 0 .1-.1.1h-1.7c-.1 0-.2-.1-.2-.2v-13c0-.3.1-.6.3-.8.2-.2.5-.3.9-.3h5.9c.4 0 .6.1.9.3.3.2.4.5.4.9v12.1c0 .4-.1.7-.4.9zM89 42.8h-4.4v3.1h.6l-.3-2.2v-.1l.1-.1h1.1c.1 0 .2.1.2.2l.3 2.2h.3l.3-2.2c0-.1.1-.2.2-.2h1c.1 0 .1 0 .1.1 0 0 .1.1 0 .1l-.3 2.2h.8v-3.1zm0 4.3h-4.4v1.8h1.5l-.3-1v-.1l.1-.1h1.5c.1 0 .2.1.2.2l.3 1.1h1v-1.9zm7.6 8.7s-.1 0-.1.1h-3.3c-.1 0-.1 0-.1-.1v-.1l2.9-2.2s.1 0 .1-.1h3.3c.1 0 .1 0 .1.1v.1l-2.9 2.2zm10.9-13h-5.9l-.6 1.6h4.5c.2 0 .3 0 .5.1.1.1.3.1.4.2l.3.3c.1.1.1.3.1.4v6.4c0 .4-.1.6-.3.8-.2.2-.6.3-1 .3H95.2c-.4 0-.7-.1-.9-.4-.2-.2-.3-.5-.3-.8v-6.2c0-.3.1-.6.3-.8.2-.3.5-.4.9-.4h3.5l.6-1.6h-6.1l-.1-.1v-.8c0-.1 0-.1.1-.1h14.3c.1 0 .2.1.2.2v.8s0 .1-.2.1zm-2.8 2.7h-8.5v1.3h8.5v-1.3zm0 2.5h-8.5v1.3h8.5V48zm0 2.4h-8.5v1.3h8.5v-1.3zm3.1 5.5l-.1.1h-3.3c-.1 0-.1-.1-.1-.1l-2.9-2.2v-.1c0-.1.1-.1.1-.1h3.3c.1 0 .1.1.1.1l2.9 2.2c.1 0 .1 0 0 .1zm-25.4 5.4l-.1.1h-5.7l-.1-.1v-1c0-.1 0-.1.1-.1h1.9L78 59v-.2s.1-.1.2-.1h1.7c.2 0 .3.1.4.2l.5 1.2h1.7c.1 0 .1.1.1.1v.9c-.1.1-.2.1-.2.2zm-.5 11.6c-.2.2-.4.2-.6.2h-3.8c-.2 0-.4 0-.5-.1-.2-.2-.3-.4-.3-.6v-3.9c0-.2.1-.4.3-.6.2-.2.4-.3.7-.3h3.6c.3 0 .5.1.7.3.2.2.3.4.3.7v3.8c-.2.1-.3.3-.4.5zm.1-9.1l-.1.1h-5.1l-.1-.1v-1c0-.1 0-.1.1-.1h5.3l.1.1v.9c-.1 0-.1 0-.2.1zm0 2.4l-.1.1h-5.1l-.1-.1v-1c0-.1 0-.1.1-.1h5.3l.1.1v.8c-.1.1-.1.2-.2.2zm-2 2.7h-1.3v3H80v-3zm11-4.3c0 .1-.1.1-.1.2-.1 0-.1.1-.2.1h-2.2c-.3 0-.6-.1-.8-.4-.1-.2-.2-.4-.2-.7v-3.6h-2.1V63c0 .1-.1.2-.1.3l-.9 1.5c-.1.1-.1.1-.2.1h-1.8c-.1 0-.1 0-.1-.1v-.2l1.1-1.9v-2.9c0-.3.1-.6.3-.7.2-.2.4-.2.7-.2h4.2c.3 0 .6.1.8.3.2.2.3.4.3.7v3.7h1.4c.1 0 .1 0 .2.1 0 .1.1.1 0 .2l-.3.7zm.3 8.5c0 .1-.1.1-.1.1h-2.5c-.1 0-.1-.1-.2-.1l-2-1.8L85 73c-.1.1-.2.2-.3.2h-2.1c-.1 0-.1 0-.1-.1v-.2l2.7-3-2.3-2.1v-.1s0-.1.1-.1h2.6c.1 0 .1.1.2.1l.8.8 1.3-1.4H83c-.1 0-.1 0-.1-.1l-.1-.1V66c0-.1 0-.1.1-.1l.1-.1h7.3c.2 0 .3.1.3.3v.9c0 .1-.1.2-.1.2L88 69.9l3.4 3.1-.1.1zm8.6-11.8l-.1.1h-6.5l-.1-.1v-1c0-.1 0-.1.1-.1h2.3L95 59v-.2c0-.1.1-.1.2-.1h1.7c.2 0 .3.1.4.2l.5 1.2h2.1c.1 0 .1.1.1.1v.9c-.1.1-.1.1-.1.2zm-.5 11.6c-.2.2-.4.2-.6.2h-4.6c-.2 0-.4 0-.5-.1-.2-.2-.3-.4-.3-.6v-3.9c0-.2.1-.4.3-.6.2-.2.4-.3.7-.3h4.4c.3 0 .5.1.7.3.2.2.3.4.3.7v3.8c-.2.1-.3.3-.4.5zm.2-9.1l-.1.1h-5.9l-.1-.1v-1c0-.1 0-.1.1-.1h6.1l.1.1v.9c-.2 0-.2 0-.2.1zm0 2.4l-.1.1h-5.9l-.1-.1v-1c0-.1 0-.1.1-.1h6.1l.1.1v.8c-.2.1-.2.2-.2.2zm-2.1 2.7h-2.1v3h2.1v-3zm10.2-3.4l-.1.1H105v7.6c0 .1-.1.1-.1.1H103c-.1 0-.1 0-.1-.1 0 0-.1-.1-.1-.2v-7.4h-2.7l-.1-.1v-1c0-.1 0-.1.1-.1h2.7v-5.5l.1-.1h1.8s.1 0 .1.1l.1.1v5.4h2.8c.1 0 .1.1.1.1v.9c-.1 0-.1.1-.1.1z"/><path class="st10" d="M80.8 50.7c-.1.1-.3.2-.5.2h-4.4c-.1 0-.2 0-.2-.1s-.1-.1-.1-.2v-.9c0-.1.1-.2.1-.3l2.8-3.3h-2.7c-.1 0-.1 0-.2-.1s-.1-.1-.1-.2V45c0-.1.1-.1.1-.2l3-3.5.1-.1h1.9c.1 0 .1 0 .1.1v.2L77.8 45h2.7c.1 0 .1 0 .2.1s.1.1.1.2v.9c0 .1-.1.2-.1.2l-2.8 3.3h1.5v-1c0-.1 0-.2.1-.2.1-.1.1-.1.2-.1h1c.1 0 .1 0 .2.1s.1.1.1.2v1.5c0 .2-.1.4-.2.5zm-3.7 4.9l-.1.1h-1.1c-.1 0-.1 0-.1-.1s-.1-.1-.1-.2v-3.7l.1-.1H77s.1 0 .1.1l.1.1v3.6c0 .1 0 .1-.1.2zm1.9 0l-.1.1h-1.2c-.1 0-.1 0-.1-.1v-3.9l.1-.1h1.2c.1 0 .1 0 .1.1v3.7c.1.1.1.1 0 .2zm1.9 0l-.1.1h-1.2c-.1 0-.1 0-.1-.1v-3.9l.1-.1h1.2c.1 0 .1 0 .1.1v3.7c.1.1.1.1 0 .2zm8.7-.2c-.2.2-.5.3-.8.3h-2.3l-.1-.1-.4-.8v-.2c0-.1.1-.1.1-.1H88v-4.7h-2V52h1.5c.1 0 .1 0 .1.1v.1l-.1.8c0 .1-.1.2-.2.2h-1.9c-.3 0-.5-.1-.7-.3-.2-.2-.3-.5-.3-.8v-2.3h-.7v5.7c0 .1 0 .1-.1.1h-1.7c-.1 0-.2-.1-.2-.2v-13c0-.3.1-.6.3-.8.2-.2.5-.3.9-.3h5.9c.4 0 .6.1.9.3.3.2.4.5.4.9v12.1c-.1.3-.2.6-.5.8zM88 42.5h-4.4v3.1h.6l-.3-2.2v-.1l.1-.1h1.1c.1 0 .2.1.2.2l.3 2.2h.3l.3-2.2c0-.1.1-.2.2-.2h1c.1 0 .1 0 .1.1 0 0 .1.1 0 .1l-.3 2.2h.8v-3.1zm0 4.3h-4.4v1.8h1.5l-.3-1v-.1l.1-.1h1.5c.1 0 .2.1.2.2l.3 1.1h1v-1.9zm7.6 8.7s-.1 0-.1.1h-3.3c-.1 0-.1 0-.1-.1v-.1l2.9-2.2s.1 0 .1-.1h3.3c.1 0 .1 0 .1.1v.1l-2.9 2.2zm10.9-13h-5.9L100 44h4.5c.2 0 .3 0 .5.1.1.1.3.1.4.2l.3.3c.1.1.1.3.1.4v6.4c0 .4-.1.6-.3.8-.2.2-.6.3-1 .3H94.2c-.4 0-.7-.1-.9-.4-.2-.1-.3-.4-.3-.7v-6.2c0-.3.1-.6.3-.8.2-.3.5-.4.9-.4h3.5l.6-1.6h-6.1l-.1-.1v-.8c0-.1 0-.1.1-.1h14.3c.1 0 .2.1.2.2v.8s0 .1-.2.1zm-2.8 2.7h-8.5v1.3h8.5v-1.3zm0 2.4h-8.5v1.3h8.5v-1.3zm0 2.5h-8.5v1.3h8.5v-1.3zm3.2 5.5l-.1.1h-3.3c-.1 0-.1-.1-.1-.1l-2.9-2.2v-.1c0-.1.1-.1.1-.1h3.3c.1 0 .1.1.1.1l2.9 2.2v.1zm-25.5 5.3l-.1.1h-5.7l-.1-.1v-1c0-.1 0-.1.1-.1h1.9l-.5-1.2v-.2s.1-.1.2-.1h1.7c.2 0 .3.1.4.2l.5 1.2h1.7c.1 0 .1.1.1.1v.9c-.1.1-.1.2-.2.2zm-.5 11.7c-.2.2-.4.2-.6.2h-3.8c-.2 0-.4 0-.5-.1-.2-.2-.3-.4-.3-.6v-3.9c0-.2.1-.4.3-.6.2-.2.4-.3.7-.3h3.6c.3 0 .5.1.7.3.2.2.3.4.3.7V72c-.2.2-.3.4-.4.6zm.1-9.2l-.1.1h-5.1l-.1-.1v-1c0-.1 0-.1.1-.1h5.3l.1.1v.9c-.1 0-.1.1-.2.1zm0 2.5l-.1.1h-5.1l-.1-.1v-1c0-.1 0-.1.1-.1h5.3l.1.1v.9c-.1 0-.1 0-.2.1zm-2 2.6h-1.3v3H79v-3zm11-4.2c0 .1-.1.1-.1.2-.1 0-.1.1-.2.1h-2.2c-.3 0-.6-.1-.8-.4-.1-.2-.2-.4-.2-.7v-3.6h-2.1v2.8c0 .1-.1.2-.1.3l-.9 1.5c-.1.1-.1.1-.2.1h-1.8c-.1 0-.1 0-.1-.1v-.2l1.1-1.9v-2.9c0-.3.1-.6.3-.7.2-.2.4-.2.7-.2h4.2c.3 0 .6.1.8.3.2.2.3.4.3.7v3.7h1.4c.1 0 .1 0 .2.1 0 .1.1.1 0 .2l-.3.7zm.3 8.5c0 .1-.1.1-.1.1h-2.5c-.1 0-.1-.1-.2-.1l-2-1.8-1.5 1.7c-.1.1-.2.2-.3.2h-2.1c-.1 0-.1 0-.1-.1v-.2l2.7-3-2.3-2.1v-.1s0-.1.1-.1h2.6c.1 0 .1.1.2.1l.8.8 1.3-1.4H82c-.1 0-.1 0-.1-.1l-.1-.1v-.9c0-.1 0-.1.1-.1l.1-.1h7.3c.2 0 .3.1.3.3v.9c0 .1-.1.2-.1.2L87 69.6l3.4 3.1c0-.1 0 0-.1.1zm8.6-11.9l-.1.1h-6.5l-.1-.1v-1c0-.1 0-.1.1-.1h2.3l-.5-1.1v-.2c0-.1.1-.1.2-.1H96c.2 0 .3.1.4.2l.5 1.2H99c.1 0 .1.1.1.1v.9c-.2 0-.2.1-.2.1zm-.5 11.7c-.2.2-.4.2-.6.2h-4.6c-.2 0-.4 0-.5-.1-.2-.2-.3-.4-.3-.6v-3.9c0-.2.1-.4.3-.6.2-.2.4-.3.7-.3h4.4c.3 0 .5.1.7.3.2.2.3.4.3.7V72c-.2.2-.2.4-.4.6zm.2-9.2l-.1.1h-5.9l-.1-.1v-1c0-.1 0-.1.1-.1h6.1l.1.1v.9c-.2 0-.2.1-.2.1zm0 2.5l-.1.1h-5.9l-.1-.1v-1c0-.1 0-.1.1-.1h6.1l.1.1v.9c-.2 0-.2 0-.2.1zm-2.1 2.6h-2.1v3h2.1v-3zm10.2-3.3l-.1.1H104v7.6c0 .1-.1.1-.1.1H102c-.1 0-.1 0-.1-.1 0 0-.1-.1-.1-.2v-7.4h-2.7l-.1-.1V64h2.7v-5.5l.1-.1h1.8s.1 0 .1.1l.1.1V64h2.8c.1 0 .1.1.1.1v1.1z"/><path class="st6" d="M33.1 33.8H13.7L0 47.5v19.4l13.7 13.7h19.4l13.6-13.7V47.5z"/><path class="st11" d="M15.4 52.7l-.1.1h-1.5c-.1 0-.1-.1-.1-.2l-.7-5.1-.4.6V56c0 .1-.1 0-.2 0h-1.7c-.1 0-.1 0-.1-.1s-.1-.1-.1-.2V50H9.2s-.1 0-.1-.1v-.2l3.5-5.3h-3c-.1 0-.1 0-.2-.1s-.1-.1-.1-.2v-.9c0-.2.1-.2.2-.2h1.7l-.4-1.5v-.2c0-.1.1-.1.2-.1h1.7c.1 0 .2 0 .2.1l.5 1.6h1c.1 0 .2 0 .3.1.1.1.1.2.1.3v.7c0 .2-.1.5-.2.7L13 47.1h1.2c.2 0 .2.1.3.2l.8 5.1c.2.2.2.3.1.3zm1.1 3.1l-.1.1h-1.9c-.1 0-.1 0-.1-.1v-.1l2.5-3.6c0-.1.1-.1.2-.1h1.8c.1 0 .1 0 .1.1v.2l-2.5 3.5zm7.2.1c0 .1-.1.1-.1.1h-2.9c-.3 0-.5-.1-.7-.3-.2-.2-.3-.5-.3-.8v-3.4h-3.1c-.2 0-.4-.1-.5-.2-.2-.1-.3-.4-.3-.6v-8.1c0-.1 0-.2.1-.3 0-.1.1-.2.2-.3.2-.2.4-.3.7-.3h5.9c.3 0 .5.1.7.3.2.2.3.4.3.7v8c0 .3-.1.5-.2.6-.2.2-.4.2-.6.2H22v3.2h2s.1 0 .1.1v.1l-.4 1zm-2.4-13h-3.6v1.5h3.6v-1.5zm0 2.8h-3.6v1.6h3.6v-1.6zm0 2.8h-3.6v1.6h3.6v-1.6zm18.6 7.4c0 .1-.1.1-.1.1h-5.1c-.3 0-.5-.1-.7-.2-.2-.2-.3-.4-.3-.7v-1h-1.4l-3.6 1.8s-.1 0-.2.1h-2.8c-.1 0-.1 0-.1-.1v-.1l3.4-1.7h-1.3c-.4 0-.7-.1-.9-.3-.2-.2-.4-.5-.4-.8v-4.1h-.6c-.1 0-.1 0-.1-.1 0 0-.1-.1-.1-.2v-1.1c0-.2.1-.4.3-.6.1-.1.3-.2.4-.2v-4c0-.3.1-.5.2-.6.1-.1.2-.1.3-.2h1.6l.1-.3c.1-.1.1-.1.2-.1h1.6c.1 0 .1 0 .1.1v.1l-.2.7c0 .1-.1.2-.1.2l-.2.2c-.2.1-.3.2-.5.2h-1.1v.6H30c.1 0 .2.1.2.2v.5c0 .1 0 .2-.1.2l-.1.1h-1.7v.4H30c.1 0 .2.1.2.2v.5c0 .1 0 .2-.1.2l-.1.1h-1.7v.7h9V46h-1.5l-.1-.1v-.6s.1-.1.2-.1h1.4v-.6h-1.6l-.1-.1v-.6s.1-.1.2-.1h1.5v-.7h-1.7c-.1 0-.1 0-.1-.1s-.1-.1-.1-.1v-.7c0-.1 0-.1.1-.1h2.9c.3 0 .6.1.7.2.1.1.1.2.2.3s0 .2 0 .3V47c.2 0 .4.1.5.3.1.1.1.3.1.6V49c0 .1 0 .1-.1.2l-.1.1h-.6v4c0 .4-.1.7-.4.9-.1-.3-.4-.2-.7-.2h-2.3v1h4.4c.1 0 .2.1.1.2l-.3.7zm-2-8.3H27.7v.8h10.1v-.8zm-.8 1.7h-8.6v.7h8.6v-.7zm0 1.6h-8.6v.7h8.6v-.7zm0 1.5h-8.6v.7h8.6v-.7zM33.8 45l1.3.9.1.1s0 .1-.1.1h-1.5c-.1 0-.2 0-.3-.1l-.5-.4-.7.4s-.1 0-.1.1h-1.5c-.1 0-.1 0-.1-.1v-.1l1.5-.9-1.1-.7c-.1 0-.1-.1-.1-.1 0-.1.1-.1.1-.1h1.6c.1 0 .1.1.1.1l.4.2.4-.2s.1 0 .1-.1H35c.1 0 .1 0 .1.1v.1l-1.3.7zm1.3-1.5s-.1 0 0 0l-1.5.1h-.1s-.1 0-.1-.1l-.5-.3-.5.3s-.1 0-.1.1h-1.4c-.1 0-.1 0-.1-.1v-.1l1.3-.8-1.1-.8c-.1 0-.1-.1-.1-.1s0-.1.1-.1h1.6c.1 0 .1.1.1.1l.3.2.3-.2s.1 0 .1-.1H35c.1 0 .1 0 .1.1s0 .1-.1.1l-1.1.8 1.2.9c0-.1 0-.1 0 0zM15.2 61.3l-.1.1H9.3l-.1-.1v-1c0-.1 0-.1.1-.1h1.9l-.4-1.2v-.2s.1-.1.2-.1h1.7c.2 0 .3.1.4.2l.5 1.2h1.6l.1.1v.9c0 .1-.1.1-.1.2zm-.6 11.6c-.2.2-.4.2-.6.2h-3.8c-.2 0-.4 0-.5-.1-.2-.2-.3-.4-.3-.6v-3.9c0-.2.1-.4.3-.6.2-.2.4-.3.7-.3H14c.3 0 .5.1.7.3.2.2.3.4.3.7v3.8c-.1.1-.2.3-.4.5zm.2-9.1l-.1.1H9.6l-.1-.1v-1c0-.1 0-.1.1-.1h5.3c.1 0 .1.1.1.1v.9c-.1 0-.1 0-.2.1zm0 2.4l-.1.1H9.6l-.1-.1v-1c0-.1 0-.1.1-.1h5.3c.1 0 .1.1.1.1v.8c-.1.1-.1.2-.2.2zm-2 2.7h-1.3v3h1.3v-3zm11-4.3c0 .1-.1.1-.1.2-.1 0-.1.1-.2.1h-2.2c-.3 0-.6-.1-.8-.4-.1-.2-.2-.4-.2-.7v-3.6h-2.1V63c0 .1-.1.2-.1.3l-.9 1.5c-.1.1-.1.1-.2.1h-1.8c-.1 0-.1 0-.1-.1v-.2l1.1-1.9v-2.9c0-.3.1-.6.3-.7.2-.2.4-.2.7-.2h4.2c.3 0 .6.1.8.3.2.2.3.4.3.7v3.7h1.4c.1 0 .1 0 .2.1 0 .1.1.1 0 .2l-.3.7zm.3 8.5c0 .1-.1.1-.1.1h-2.5c-.1 0-.1-.1-.2-.1l-2-1.8-1.5 1.7c-.1.1-.2.2-.3.2h-2.1c-.1 0-.1 0-.1-.1v-.2l2.7-3-2.3-2.1v-.1c0-.1 0-.1.1-.1h2.6c.1 0 .1.1.2.1l.8.8 1.3-1.4h-4.9c-.1 0-.1 0-.1-.1l-.1-.1V66c0-.1 0-.1.1-.1l.1-.1H23c.2 0 .3.1.3.3v.9c0 .1-.1.2-.1.2l-2.5 2.7 3.4 3.1s.1 0 0 .1zm8.2-11.8l-.1.1h-6.5l-.1-.1v-1c0-.1 0-.1.1-.1H28l-.5-1.2v-.2c0-.1.1-.1.2-.1h1.7c.2 0 .3.1.4.2l.5 1.2h2.1c.1 0 .1.1.1.1v.9l-.2.2zm-.5 11.6c-.2.2-.4.2-.6.2h-4.6c-.2 0-.4 0-.5-.1-.2-.2-.3-.4-.3-.6v-3.9c0-.2.1-.4.3-.6.2-.2.4-.3.7-.3h4.4c.3 0 .5.1.7.3.2.2.3.4.3.7v3.8c-.1.1-.2.3-.4.5zm.2-9.1l-.1.1h-6l-.1-.1v-1c0-.1 0-.1.1-.1H32l.1.1v.9l-.1.1zm0 2.4l-.1.1h-6l-.1-.1v-1c0-.1 0-.1.1-.1H32l.1.1v.8c0 .1 0 .2-.1.2zm-2 2.7h-2.1v3H30v-3zm10.1-3.4l-.1.1h-2.6v7.6l-.1.1h-1.8c-.1 0-.1 0-.1-.1s-.1-.1-.1-.2v-7.4h-2.7l-.1-.1v-1c0-.1 0-.1.1-.1h2.7v-5.5l.1-.1h1.8s.1 0 .1.1l.1.1v5.4h2.8l.1.1v.9c-.1 0-.1.1-.2.1z"/><path class="st12" d="M14.3 52.1l-.1.1h-1.4c-.1 0-.1-.1-.1-.2l-.8-5.1-.4.6v7.9c0 .1-.1.1-.1.1H9.6c-.1 0-.1 0-.1-.1s-.1-.1-.1-.2v-5.7H8.1s-.1 0-.1-.1v-.2l3.5-5.3h-3c-.1 0-.1 0-.2-.1s-.1-.1-.1-.2v-.9c0-.2.1-.2.2-.2h1.7L9.8 41v-.2c0-.1.1-.1.2-.1h1.7c.1 0 .2 0 .2.1l.5 1.6h1c.1 0 .2 0 .3.1.1.1.1.2.1.3v.7c0 .2-.1.5-.2.7L12 46.6h1.2c.2 0 .2.1.3.2l.8 5.1c.1.1.1.1 0 .2zm1.1 3l-.1.1h-1.9c-.1 0-.1 0-.1-.1V55l2.5-3.6c0-.1.1-.1.2-.1h1.8c.1 0 .1 0 .1.1v.2l-2.5 3.5zm7.2.1c0 .1-.1.1-.1.1h-2.9c-.3 0-.5-.1-.7-.3-.2-.2-.3-.5-.3-.8v-3.4h-3.1c-.2 0-.4-.1-.5-.2-.2-.1-.3-.4-.3-.6v-8.1c0-.1 0-.2.1-.3 0-.1.1-.2.2-.3.2-.2.4-.3.7-.3h5.9c.3 0 .5.1.7.3.2.2.3.4.3.7v8c0 .3-.1.5-.2.6-.2.2-.4.2-.6.2h-.9V54h2.3s.1 0 .1.1v.1l-.7 1zm-2.4-12.9h-3.6v1.5h3.6v-1.5zm0 2.8h-3.6v1.6h3.6v-1.6zm0 2.8h-3.6v1.6h3.6v-1.6zm18.6 7.3c0 .1-.1.1-.1.1h-5.1c-.3 0-.5-.1-.7-.2-.2-.2-.3-.4-.3-.7v-1h-1.4l-3.6 1.8s-.1 0-.2.1h-2.8c-.1 0-.1 0-.1-.1v-.1l3.4-1.7h-1.3c-.4 0-.7-.1-.9-.3-.2-.2-.4-.5-.4-.8v-4.1h-.6c-.1 0-.1 0-.1-.1 0 0-.1-.1-.1-.2v-1.1c0-.2.1-.4.3-.6.1-.1.3-.2.4-.2v-4c0-.3.1-.5.2-.6.1-.1.2-.1.3-.2h1.6l.1-.3c.1-.1.1-.1.2-.1h1.6c.1 0 .1 0 .1.1v.1l-.2.7c0 .1-.1.2-.1.2 0 .1 0 .2-.1.2-.2.1-.3.2-.5.2h-1.1v.6H29c.1 0 .2.1.2.2v.5c0 .1 0 .2-.1.2l-.1.1h-1.7v.6H29c.1 0 .2.1.2.2v.3c0 .1 0 .2-.1.2l-.1.1h-1.7v.7h9v-.7h-1.5l-.1-.1v-.6s.1-.1.2-.1h1.4v-.6h-1.6l-.1-.1v-.6s.1-.1.2-.1h1.5v-.7h-1.7c-.1 0-.1 0-.1-.1s-.2-.3-.2-.3v-.7c0-.1 0-.1.1-.1h2.9c.3 0 .6.1.7.2.1.1.1.2.2.3s0 .2 0 .3v4c.2 0 .4.1.5.3.1.1.1.3.1.6V48c0 .1 0 .1-.1.2l-.1.1H38v4c0 .4-.1.7-.4.9-.2.2-.5.3-.8.3h-2.3v1h4.4c.1 0 .2.1.1.2l-.2.5zm-2-8.3H26.7v.8h10.1v-.8zm-.8 1.7h-8.6v.7H36v-.7zm0 1.6h-8.6v.7H36v-.7zm0 1.6h-8.6v.7H36v-.7zm-3.3-7.5l1.3.9.1.1s0 .1-.1.1h-1.5c-.1 0-.2 0-.3-.1l-.5-.3-.7.3s-.1 0-.1.1-.1 0-.1 0h-1.4c-.1 0-.1 0-.1-.1v-.1l1.5-.9-1.1-.7c-.1 0-.1-.1-.1-.1 0-.1.1-.1.1-.1h1.6c.1 0 .1.1.1.1l.4.2.4-.2s.1 0 .1-.1h1.6c.1 0 .1 0 .1.1v.1l-1.3.7zm1.3-1.5c0 .1 0 .1 0 0l-1.5.1h-.1s-.1 0-.1-.1l-.5-.3-.5.3s-.1 0-.1.1h-1.4c-.1 0-.1 0-.1-.1v-.1l1.3-.8-1.2-.9c-.1 0-.1-.1-.1-.1s0-.1.1-.1h1.6c.1 0 .1.1.1.1l.3.2.3-.2s.1 0 .1-.1h1.6c.1 0 .1 0 .1.1s0 .1-.1.1l-1.1.8 1.2.9c.1 0 .1 0 .1.1zM14.1 60.6l-.1.1H8.3l-.1-.1v-1c0-.1 0-.1.1-.1h1.9l-.5-1.1v-.2s.1-.2.2-.2h1.7c.2 0 .3.1.4.2l.5 1.2h1.7l.1.1v.9c-.1.1-.1.2-.2.2zm-.5 11.7c-.2.2-.4.2-.6.2H9.1c-.2 0-.4 0-.5-.1-.2-.2-.3-.4-.3-.6v-3.9c0-.2.1-.4.3-.6.2-.3.4-.4.6-.4h3.6c.3 0 .5.1.7.3.2.2.3.4.3.7v3.8c0 .2-.1.4-.2.6zm.2-9.2l-.1.1H8.6l-.1-.1v-1c0-.1 0-.1.1-.1h5.3c.1 0 .1.1.1.1v.9c-.2 0-.2.1-.2.1zm0 2.5l-.1.1H8.6l-.1-.1v-1c0-.1 0-.1.1-.1h5.3c.1 0 .1.1.1.1v.9c-.2 0-.2 0-.2.1zm-2.1 2.6h-1.3v3h1.3v-3zm11-4.2c0 .1-.1.1-.1.2-.1 0-.1.1-.2.1h-2.2c-.3 0-.6-.1-.8-.4-.1-.2-.2-.4-.2-.7v-3.6h-2.1v2.8c0 .1-.1.2-.1.3l-.9 1.5c-.1.1-.1.1-.2.1h-1.8c-.1 0-.1 0-.1-.1V64l1.1-1.9v-2.9c0-.3.1-.6.3-.7.2-.2.4-.2.7-.2h4.2c.3 0 .6.1.8.3.2.2.3.4.3.7V63h1.4c.1 0 .1 0 .2.1 0 .1.1.1 0 .2l-.3.7zm.3 8.4c0 .1-.1.1-.1.1h-2.5c-.1 0-.1-.1-.2-.1l-2-1.8-1.6 1.8c-.1.1-.2.2-.3.2h-2.1c-.1 0-.1 0-.1-.1v-.2l2.7-3-2.3-2.1v-.1c0-.1 0-.1.1-.1h2.6c.1 0 .1.1.2.1l.8.8 1.3-1.4h-4.9c-.1 0-.1 0-.1-.1l-.1-.1v-.9c0-.1 0-.1.1-.1l.1-.1h7.3c.2 0 .3.1.3.3v.7c0 .1-.1.2-.1.2l-2.5 2.7 3.4 3.1c.1.1.1.2 0 .2zm8.2-11.8l-.1.1h-6.5l-.1-.1v-1c0-.1 0-.1.1-.1h2.3l-.5-1.1v-.2c0-.1.1-.1.2-.1h1.7c.2 0 .3.1.4.2l.5 1.2h2.1c.1 0 .1.1.1.1v.9c-.1 0-.1.1-.2.1zm-.4 11.7c-.2.2-.4.2-.6.2h-4.6c-.2 0-.4 0-.5-.1-.2-.2-.3-.4-.3-.6v-3.9c0-.2.1-.4.3-.6.2-.2.4-.3.7-.3h4.4c.3 0 .5.1.7.3.2.2.3.4.3.7v3.8c-.2.1-.3.3-.4.5zm.1-9.2l-.1.1h-5.9l-.1-.1v-1c0-.1 0-.1.1-.1H31c.1 0 0 0 0 0v.9c0 .1 0 .2-.1.2zm0 2.5l-.1.1h-5.9l-.1-.1v-1c0-.1 0-.1.1-.1H31c.1 0 .1.1.1.1v.9c-.1 0-.1 0-.2.1zm-2 2.6h-2.1v3h2.1v-3zm10.2-3.3l-.1.1h-2.6v7.6l-.1.1h-1.8c-.1 0-.1 0-.1-.1s-.1-.1-.1-.2V65h-2.7l-.1-.1v-1c0-.1 0-.1.1-.1h2.7v-5.5l.1-.1h1.8s.1 0 .1.1l.1.1v5.4h2.8l.1.1v.9c-.2 0-.2 0-.2.1z"/></svg>