<svg id="圖層_1" xmlns="http://www.w3.org/2000/svg" viewBox="0 0 451 53"><style>.st0{fill:#fff}.st1{fill:#ff4612}</style><path class="st0" d="M424.5 53h-398C11.9 53 0 41.2 0 26.5 0 11.9 11.9 0 26.5 0h398C439.2 0 451 11.9 451 26.5c0 14.7-11.8 26.5-26.5 26.5z"/><path class="st1" d="M128.8 37.6V26.8h-5.9c-.2 4.5-.4 7.8-2.7 10.8l-5.3-1.1c2.3-2.2 2.6-8.2 2.6-13.2v-6.5h.5c7.4 0 14.5-.8 19.5-2.5l1.3 4.1c-5.5 1.5-10.2 2.2-15.8 2.3v2.6h16.3V27h-4.8v10.6h-5.7zm11.7-27.9h-24.1l-2.4 4.1h26.5V9.7zm-26.5 29v-29h-5.5v32.8h32.7v-3.8H114zm-33.8-.2v-5.4h20.6V19.5h-18l-2.4 3.8h14.8v6h-15V14.4H103v-3.8H71v3.9h3.5v24h-3.8v4h32.9v-4H80.2zM64.1 25.8C62.3 35.8 52.7 44 42.6 44c-10 0-16.7-8.1-14.8-18.2 1.8-10 11.5-18.2 21.5-18.2 10 .1 16.7 8.2 14.8 18.2zm-8-1.1h-9.8l-1.2 4.1h4.1l-1.4 4.7h-5.6c-3.4-.1-8.1-3.1-6.2-9.8.7-2.6 3-4.8 4.6-6.6-3.2 2.1-6.4 5.7-7.4 9.3-1.8 6.2 1.7 11.4 7.8 11.5h11.2l2.6-9.1 1.3-4.1zm3-11l-8.6-.2c-6.3.1-10.9 4.5-12.4 9.6s1.8 8.2 5.9 8.6c0 0-3.4-2-2-6.9 1.1-3.7 4.3-5.3 6.3-5.4h9.1l1.7-5.7zm175.7 4.1c2-.6 3.7-1.3 5.1-2.3.2 0 .7.6 1.7 1.7l3-2.3c-.8-.7-1.4-1.1-1.8-1.5.9-.7 1.6-1.3 2-1.8l-2.6-1.9s-1.5 1.6-1.9 1.7c-.6-.5-1.9-1.4-2.9-1.9l-2.4 2.3c1 .6 1.9 1 2.4 1.5-1 .6-1.8 1.1-3.7 1.6l1.1 2.9zm8.9 17.1c2.8-.7 4.8-1.9 6.2-2.9v-2.8H229v3.1h14.6c-2 .6-4 1-6 1.2v1.3h-15.7V38h15.7v.7c0 .7-.4 1.2-1.1 1.2h-5.2l.8 3.4h7.2c1.4 0 2.3-.3 2.7-.8.4-.5.6-1.5.6-3v-1.6H257v-3.2h-13.3zm-14.5-10.1v-1.6h4.1V20h-4.1v-1.4h4.1v-3.1h-4.1v-1.2c1.3-.1 2.8-.4 4.3-.8V10c-2.8.7-6.3 1.2-9.3 1.2v13.3h-1.6v8.3h4.8v-8h1.8zm27.1-.2v8.3h-4.8v-5l-24-.1 1.7-3h6.2l-1.7-3c1.9-.3 3.2-.6 4.1-1.1-.7-.6-1.5-1.1-2.3-1.6l2.4-1.9c.9.4 1.8.9 2.7 1.6.8-.5 1.6-1.2 2.4-1.9l2.6 1.8c-.8.9-1.6 1.5-2.4 2.1 1 .7 1.7 1.2 1.9 1.5l-2.3 2.5h7v-1.6H246v-3.1h3.8v-1.3H246v-3.1h3.8v-1.3h-4.3v-3.6h9.3v13.7h1.5zm-14 .2c-1-1.1-1.7-1.8-1.8-1.8-1.5.9-3.4 1.5-4.6 1.9l6.4-.1zm31.7 4.8h4c-.2 2.4-.7 4.2-1.5 5.4-1.1 1.5-2.9 2.7-5.3 3.6l3.2 4c2.9-1.4 5.1-3.2 6.4-5.3 1.1-1.6 1.7-4.2 2-7.7h2.5v9c0 1.1.3 1.9.9 2.5.5.5 1.5.8 2.9.8h3.5c1.2 0 2-.2 2.5-.7.8-.7 1.4-3 1.7-6.7l-4.3-1.3-.1 2.9c0 1.3-.2 2-.6 2h-1.2c-.3 0-.4-.3-.4-1v-7.4h6v-3.9H274v3.8zm21.5-17.5v8.4h-3.3v2.3h-14.9v-2.3H274v-8.4h8.1c-.3-.9-.6-1.8-1-2.6l5.6-.4c.2 1 .4 1.9.6 2.9h8.2zm-4.7 3.8h-12.2v2.9h12.2v-2.9zm-17.3-5.3H269l-2.2 3.9h2.3c-.4 2.2-1.3 4.7-2.5 7.3 1.7 2.5 2.5 4.7 2.5 6.6 0 1.5-.7 2.3-1.9 2.4-.2 0-.6 0-1.1-.1V10.6h-4.3v32h4.3v-8.1c3.2-.1 5.2-.5 5.9-1.4 1-.9 1.5-2.5 1.5-4.7 0-1.9-.8-4.1-2.4-6.6 1.1-3.5 2-6.3 2.4-8.6v-2.6zm-128.7 7.7h14.4v-4h-14.4v4zm1.6 10.3h11.1v-4h-11.1v4zm.2-5.1h11.1v-4h-11.1v4zm.1-10.1h10.8V9.5h-10.8v3.9zm14.8-4.1v5.8c0 1.3-.3 2.5-.8 3.3-.5.8-1.2 1.5-2.2 2.2l3.5 3.1c1.2-1.1 2.1-2.2 2.6-3.2.6-1 .9-2.8 1.1-5.4v-1.7h3.8v4.7c0 2.3.6 3.5 1.7 3.7.4.4 1.6.6 3.6.6.6 0 1.3 0 2-.1.5-.1.9-.3 1.3-.6.8-.6 1.2-2.1 1.3-4.6l-3.8-1.9c0 1.7-.1 2.8-.2 3.1 0 .1-.1.3-.3.3-.1 0-.2.1-.4.1s-.4 0-.6-.1c-.2-.2-.3-.8-.3-1.7V9.3h-12.3zm17.1 29l-2.2 4.3c-3-1-5.6-2.5-8-4.3-2.4 1.9-5.1 3.4-8.2 4.3l-2-4c2.8-.7 5.2-1.8 7.2-3.2-1.8-2.1-3.3-4.5-4.5-7.2h-1.7v-4.1h16.9v3.1c-1.2 3.4-2.7 6.1-4.5 8.1 2 1.2 4.3 2.2 7 3zm-7.2-10.2h-6.2c.8 1.7 1.9 3.2 3.2 4.5 1.3-1.3 2.3-2.8 3-4.5zm11.7-9.6H199v-4.2h-15.9v4.2zm1 5.1h13.1v-4.1h-13.1v4.1zm.2 5.1h12.8v-4.1h-12.8v4.1zm.4-15.3h12.4V9.3h-12.4v4.1zm26.9 10.7h7.2v-4.6h-7.2V9.3h-5.4v10.3h-7.3v4.6h7.3v18.4h5.4V24.1zm-59.9 5.8c-.3.8-1.3 3.3-1.5 3.8h3.8v3.8h-3.9v-7.6h-4v12.7h4v-1.3h7.9V29.9h-6.3zm38 0c-.4.9-1.6 3.9-1.6 3.9h5.3v3.5H188v-7.4h-4v12.5h4.1v-1.3h5.4v1.3h4.1V29.9h-7.9zm118 11.8h4.3c2.7 0 4.1-1.5 4.1-4.3v-8.8c0-2.8-1.3-4.3-4.1-4.3h-4.3v17.4zm4.3-14.9c.9 0 1.4.4 1.4 1.7v9.1c0 1.2-.5 1.7-1.4 1.7h-1.5V26.8h1.5zm8.6 0h4.7v-2.5h-7.5v17.5h7.5v-2.5h-4.7v-5.1h3.8v-2.5h-3.8v-4.9zm6.1 1.7c0 5 5.4 5.7 5.4 9.3 0 1.2-.5 1.7-1.4 1.7-.9 0-1.4-.4-1.4-1.7v-1.4h-2.6v1.2c0 2.8 1.4 4.4 4.1 4.4s4.1-1.6 4.1-4.4c0-5-5.4-5.7-5.4-9.3 0-1.2.5-1.7 1.4-1.7.9 0 1.4.5 1.4 1.7v.8h2.6v-.7c0-2.8-1.4-4.4-4-4.4-2.8.1-4.2 1.7-4.2 4.5zm9.7 13.2h2.7V24.3h-2.7v17.4zm8.8-7.2h1.2v3.2c0 1.2-.5 1.7-1.4 1.7s-1.4-.4-1.4-1.7v-9.4c0-1.2.5-1.7 1.4-1.7s1.4.5 1.4 1.7v1.9h2.6v-1.7c0-2.8-1.4-4.4-4.1-4.4-2.7 0-4.1 1.6-4.1 4.4v9.1c0 2.8 1.4 4.4 4.1 4.4 2.7 0 4.1-1.6 4.1-4.4V32h-3.8v2.5zm11.5 7.2h2.8V24.3h-2.4v10.5l-2.8-10.5h-3.4v17.5h2.5V29.1l3.3 12.6zm8.3-13.2c0 5 5.4 5.7 5.4 9.3 0 1.2-.5 1.7-1.4 1.7-.9 0-1.4-.4-1.4-1.7v-1.4H365v1.2c0 2.8 1.4 4.4 4.1 4.4s4.1-1.6 4.1-4.4c0-5-5.4-5.7-5.4-9.3 0-1.2.5-1.7 1.4-1.7s1.4.5 1.4 1.7v.8h2.6v-.7c0-2.8-1.4-4.4-4-4.4s-4.2 1.7-4.2 4.5zm15.1 6.7v2.5c0 1.2-.5 1.7-1.4 1.7-.9 0-1.4-.4-1.4-1.7v-9.4c0-1.2.5-1.7 1.4-1.7.9 0 1.4.5 1.4 1.7v1.9h2.6v-1.7c0-2.8-1.4-4.4-4.1-4.4-2.7 0-4.1 1.6-4.1 4.4v9.1c0 2.8 1.4 4.4 4.1 4.4 2.7 0 4.1-1.6 4.1-4.4v-2.3h-2.6zm7-1h3.1v7.5h2.8V24.3h-2.8v7.5h-3.1v-7.5h-2.7v17.5h2.7v-7.6zm7.7 3.3c0 2.8 1.5 4.4 4.2 4.4s4.2-1.6 4.2-4.4v-9.1c0-2.8-1.5-4.4-4.2-4.4s-4.2 1.6-4.2 4.4v9.1zm2.7-9.2c0-1.2.5-1.7 1.4-1.7.9 0 1.4.5 1.4 1.7v9.4c0 1.2-.5 1.7-1.4 1.7-.9 0-1.4-.5-1.4-1.7v-9.4zm7.1 9.2c0 2.8 1.5 4.4 4.2 4.4s4.2-1.6 4.2-4.4v-9.1c0-2.8-1.5-4.4-4.2-4.4s-4.2 1.6-4.2 4.4v9.1zm2.8-9.2c0-1.2.5-1.7 1.4-1.7.9 0 1.4.5 1.4 1.7v9.4c0 1.2-.5 1.7-1.4 1.7-.9 0-1.4-.5-1.4-1.7v-9.4zm7.3 13.4h7.3v-2.5h-4.5v-15h-2.7v17.5z"/></svg>