<?xml version="1.0" encoding="utf-8"?>
<!-- Generator: Adobe Illustrator 19.2.0, SVG Export Plug-In . SVG Version: 6.00 Build 0)  -->
<svg version="1.1" id="圖層_1" xmlns="http://www.w3.org/2000/svg" xmlns:xlink="http://www.w3.org/1999/xlink" x="0px" y="0px"
	 viewBox="0 0 451 53" style="enable-background:new 0 0 451 53;" xml:space="preserve">
<style type="text/css">
	.st0{fill:#FFFFFF;}
	.st1{fill:#FF4612;}
</style>
<path class="st0" d="M424.5,53h-398C11.9,53,0,41.2,0,26.5v0C0,11.9,11.9,0,26.5,0h398C439.2,0,451,11.9,451,26.5v0
	C451,41.2,439.2,53,424.5,53z"/>
<g>
	<path class="st1" d="M128.8,37.6V26.8h-5.9c-0.2,4.5-0.4,7.8-2.7,10.8l-5.3-1.1c2.3-2.2,2.6-8.2,2.6-13.2v-6.5c0.1,0,0.3,0,0.5,0
		c7.4,0,14.5-0.8,19.5-2.5l1.3,4.1c-5.5,1.5-10.2,2.2-15.8,2.3v2.6h16.3V27h-4.8v10.6H128.8z M140.5,9.7h-24.1l-2.4,4.1h26.5V9.7z
		 M114,38.7v-29h-5.5v32.8h32.7v-3.8H114z M80.2,38.5v-5.4h20.6V19.5h-18l-2.4,3.8h14.8v6H80.2V14.4H103v-3.8H71v3.9h3.5v24h-3.8v4
		h32.9v-4H80.2z M64.1,25.8C62.3,35.8,52.7,44,42.6,44c-10,0-16.7-8.1-14.8-18.2c1.8-10,11.5-18.2,21.5-18.2
		C59.3,7.7,66,15.8,64.1,25.8z M56.1,24.7H52h-5.7l-1.2,4.1h4.1l-1.4,4.7h-5.6c-3.4-0.1-8.1-3.1-6.2-9.8c0.7-2.6,3-4.8,4.6-6.6
		c-3.2,2.1-6.4,5.7-7.4,9.3c-1.8,6.2,1.7,11.4,7.8,11.5h4.5h6.7l2.6-9.1L56.1,24.7z M59.1,13.7l-8.6-0.2c-6.3,0.1-10.9,4.5-12.4,9.6
		c-1.5,5.1,1.8,8.2,5.9,8.6c0,0-3.4-2-2-6.9c1.1-3.7,4.3-5.3,6.3-5.4h9.1L59.1,13.7z M234.8,17.8c2-0.6,3.7-1.3,5.1-2.3
		c0.2,0,0.7,0.6,1.7,1.7l3-2.3c-0.8-0.7-1.4-1.1-1.8-1.5c0.9-0.7,1.6-1.3,2-1.8l-2.6-1.9c0,0-1.5,1.6-1.9,1.7
		c-0.6-0.5-1.9-1.4-2.9-1.9l-2.4,2.3c1,0.6,1.9,1,2.4,1.5c-1,0.6-1.8,1.1-3.7,1.6L234.8,17.8z M243.7,34.9c2.8-0.7,4.8-1.9,6.2-2.9
		v-2.8h-20.9v3.1h14.6c-2,0.6-4,1-6,1.2v1.3h-15.7v3.2h15.7v0.7c0,0.7-0.4,1.2-1.1,1.2h-5.2l0.8,3.4h7.2c1.4,0,2.3-0.3,2.7-0.8
		c0.4-0.5,0.6-1.5,0.6-3v-1.6H257v-3.2H243.7z M229.2,24.8l0-1.6h4.1V20h-4.1v-1.4h4.1v-3.1h-4.1v-1.2c1.3-0.1,2.8-0.4,4.3-0.8V10
		c-2.8,0.7-6.3,1.2-9.3,1.2v13.3h-1.6v8.3h4.8l0-8L229.2,24.8z M256.3,24.6v8.3h-4.8v-5l-24-0.1l1.7-3h6.2l-1.7-3
		c1.9-0.3,3.2-0.6,4.1-1.1c-0.7-0.6-1.5-1.1-2.3-1.6l2.4-1.9c0.9,0.4,1.8,0.9,2.7,1.6c0.8-0.5,1.6-1.2,2.4-1.9l2.6,1.8
		c-0.8,0.9-1.6,1.5-2.4,2.1c1,0.7,1.7,1.2,1.9,1.5l-2.3,2.5h7l0-1.6H246v-3.1h3.8v-1.3H246v-3.1h3.8v-1.3h-4.3v-3.6h9.3v13.7H256.3z
		 M242.3,24.8c-1-1.1-1.7-1.8-1.8-1.8c-1.5,0.9-3.4,1.5-4.6,1.9L242.3,24.8z M274,29.6h4c-0.2,2.4-0.7,4.2-1.5,5.4
		c-1.1,1.5-2.9,2.7-5.3,3.6l3.2,4c2.9-1.4,5.1-3.2,6.4-5.3c1.1-1.6,1.7-4.2,2-7.7h2.5v9c0,1.1,0.3,1.9,0.9,2.5
		c0.5,0.5,1.5,0.8,2.9,0.8h3.5c1.2,0,2-0.2,2.5-0.7c0.8-0.7,1.4-3,1.7-6.7l-4.3-1.3l-0.1,2.9c0,1.3-0.2,2-0.6,2h-1.2
		c-0.3,0-0.4-0.3-0.4-1v-7.4h6v-3.9H274V29.6z M295.5,12.1v8.4h-3.3v2.3h-14.9v-2.3H274v-8.4h8.1c-0.3-0.9-0.6-1.8-1-2.6l5.6-0.4
		c0.2,1,0.4,1.9,0.6,2.9H295.5z M290.8,15.9h-12.2v2.9h12.2V15.9z M273.5,10.6h-4.5l-2.2,3.9h2.3c-0.4,2.2-1.3,4.7-2.5,7.3
		c1.7,2.5,2.5,4.7,2.5,6.6c0,1.5-0.7,2.3-1.9,2.4c-0.2,0-0.6,0-1.1-0.1V14.5h0v-3.9h-4.3v32h4.3v-8.1c3.2-0.1,5.2-0.5,5.9-1.4
		c1-0.9,1.5-2.5,1.5-4.7c0-1.9-0.8-4.1-2.4-6.6c1.1-3.5,2-6.3,2.4-8.6V10.6z M144.8,18.3h14.4v-4h-14.4V18.3z M146.4,28.6h11.1v-4
		h-11.1V28.6z M146.6,23.5h11.1v-4h-11.1V23.5z M146.7,13.4h10.8V9.5h-10.8V13.4z M161.5,9.3v5.8c0,1.3-0.3,2.5-0.8,3.3
		c-0.5,0.8-1.2,1.5-2.2,2.2l3.5,3.1c1.2-1.1,2.1-2.2,2.6-3.2c0.6-1,0.9-2.8,1.1-5.4v-1.7h3.8v4.7c0,2.3,0.6,3.5,1.7,3.7
		c0.4,0.4,1.6,0.6,3.6,0.6c0.6,0,1.3,0,2-0.1c0.5-0.1,0.9-0.3,1.3-0.6c0.8-0.6,1.2-2.1,1.3-4.6l-3.8-1.9c0,1.7-0.1,2.8-0.2,3.1
		c0,0.1-0.1,0.3-0.3,0.3c-0.1,0-0.2,0.1-0.4,0.1c-0.2,0-0.4,0-0.6-0.1c-0.2-0.2-0.3-0.8-0.3-1.7V9.3h-10.2H161.5z M178.6,38.3
		l-2.2,4.3c-3-1-5.6-2.5-8-4.3c-2.4,1.9-5.1,3.4-8.2,4.3l-2-4c2.8-0.7,5.2-1.8,7.2-3.2c-1.8-2.1-3.3-4.5-4.5-7.2h-1.7v-4.1h16.9v3.1
		c-1.2,3.4-2.7,6.1-4.5,8.1C173.6,36.5,175.9,37.5,178.6,38.3z M171.4,28.1h-6.2c0.8,1.7,1.9,3.2,3.2,4.5
		C169.7,31.3,170.7,29.8,171.4,28.1z M183.1,18.5H199v-4.2h-15.9V18.5z M184.1,23.6h13.1v-4.1h-13.1V23.6z M184.3,28.7h12.8v-4.1
		h-12.8V28.7z M184.7,13.4h12.4V9.3h-12.4V13.4z M211.6,24.1h7.2v-4.6h-7.2V9.3h-5.4v10.3h-7.3v4.6h7.3v18.4h5.4V24.1z M151.7,29.9
		c-0.3,0.8-1.3,3.3-1.5,3.8h3.8v3.8h-3.9v-3.8h0c0-0.5,0-3,0-3.8h-4v12.7h4v-1.3h7.9V29.9H151.7z M189.7,29.9
		c-0.4,0.9-1.6,3.9-1.6,3.9h5.3v3.5h-5.4v-3.5h0c0,0,0-3,0-3.9H184v12.5h4.1v-1.3h5.4v1.3h4.1V29.9H189.7z M307.7,41.7h4.3
		c2.7,0,4.1-1.5,4.1-4.3v-8.8c0-2.8-1.3-4.3-4.1-4.3h-4.3V41.7z M312,26.8c0.9,0,1.4,0.4,1.4,1.7v9.1c0,1.2-0.5,1.7-1.4,1.7h-1.5
		V26.8H312z M320.6,26.8h4.7v-2.5h-7.5v17.5h7.5v-2.5h-4.7v-5.1h3.8v-2.5h-3.8V26.8z M326.7,28.5c0,5,5.4,5.7,5.4,9.3
		c0,1.2-0.5,1.7-1.4,1.7c-0.9,0-1.4-0.4-1.4-1.7v-1.4h-2.6v1.2c0,2.8,1.4,4.4,4.1,4.4s4.1-1.6,4.1-4.4c0-5-5.4-5.7-5.4-9.3
		c0-1.2,0.5-1.7,1.4-1.7c0.9,0,1.4,0.5,1.4,1.7v0.8h2.6v-0.7c0-2.8-1.4-4.4-4-4.4C328.1,24.1,326.7,25.7,326.7,28.5z M336.4,41.7
		h2.7V24.3h-2.7V41.7z M345.2,34.5h1.2v3.2c0,1.2-0.5,1.7-1.4,1.7s-1.4-0.4-1.4-1.7v-9.4c0-1.2,0.5-1.7,1.4-1.7s1.4,0.5,1.4,1.7v1.9
		h2.6v-1.7c0-2.8-1.4-4.4-4.1-4.4c-2.7,0-4.1,1.6-4.1,4.4v9.1c0,2.8,1.4,4.4,4.1,4.4c2.7,0,4.1-1.6,4.1-4.4V32h-3.8V34.5z
		 M356.7,41.7h2.8V24.3h-2.4v10.5l-2.8-10.5h-3.4v17.5h2.5V29.1L356.7,41.7z M365,28.5c0,5,5.4,5.7,5.4,9.3c0,1.2-0.5,1.7-1.4,1.7
		c-0.9,0-1.4-0.4-1.4-1.7v-1.4h-2.6v1.2c0,2.8,1.4,4.4,4.1,4.4s4.1-1.6,4.1-4.4c0-5-5.4-5.7-5.4-9.3c0-1.2,0.5-1.7,1.4-1.7
		s1.4,0.5,1.4,1.7v0.8h2.6v-0.7c0-2.8-1.4-4.4-4-4.4S365,25.7,365,28.5z M380.1,35.2v2.5c0,1.2-0.5,1.7-1.4,1.7
		c-0.9,0-1.4-0.4-1.4-1.7v-9.4c0-1.2,0.5-1.7,1.4-1.7c0.9,0,1.4,0.5,1.4,1.7v1.9h2.6v-1.7c0-2.8-1.4-4.4-4.1-4.4
		c-2.7,0-4.1,1.6-4.1,4.4v9.1c0,2.8,1.4,4.4,4.1,4.4c2.7,0,4.1-1.6,4.1-4.4v-2.3H380.1z M387.1,34.2h3.1v7.5h2.8V24.3h-2.8v7.5h-3.1
		v-7.5h-2.7v17.5h2.7V34.2z M394.8,37.5c0,2.8,1.5,4.4,4.2,4.4c2.7,0,4.2-1.6,4.2-4.4v-9.1c0-2.8-1.5-4.4-4.2-4.4
		c-2.7,0-4.2,1.6-4.2,4.4V37.5z M397.5,28.3c0-1.2,0.5-1.7,1.4-1.7c0.9,0,1.4,0.5,1.4,1.7v9.4c0,1.2-0.5,1.7-1.4,1.7
		c-0.9,0-1.4-0.5-1.4-1.7V28.3z M404.6,37.5c0,2.8,1.5,4.4,4.2,4.4c2.7,0,4.2-1.6,4.2-4.4v-9.1c0-2.8-1.5-4.4-4.2-4.4
		c-2.7,0-4.2,1.6-4.2,4.4V37.5z M407.4,28.3c0-1.2,0.5-1.7,1.4-1.7c0.9,0,1.4,0.5,1.4,1.7v9.4c0,1.2-0.5,1.7-1.4,1.7
		c-0.9,0-1.4-0.5-1.4-1.7V28.3z M414.7,41.7h7.3v-2.5h-4.5v-15h-2.7V41.7z"/>
</g>
</svg>
